<?xml version="1.0" encoding="UTF-8"?>
<svg version="1.1" xmlns="http://www.w3.org/2000/svg" width="800" height="800">
<path d="M0 0 C2.84262634 1.53487773 5.40331702 3.39687123 8 5.3125 C8.7532959 5.85865967 9.5065918 6.40481934 10.28271484 6.9675293 C20.9536109 14.79142033 30.56423661 23.31339676 39.80126953 32.78637695 C42.52552021 35.57495951 45.23750546 38.26553765 48.2578125 40.734375 C50.45297659 42.54804333 52.16297831 44.18385148 53.9375 46.375 C57.56922378 50.64857206 61.51698196 54.55856743 65.5 58.5 C70.54374784 63.5109054 75.48794039 68.49795263 80 74 C80.45020508 74.54172852 80.90041016 75.08345703 81.36425781 75.64160156 C91.69418519 88.08047441 101.44569145 100.84281576 110.24609375 114.4140625 C112.04038087 117.05953705 113.99125027 119.5152002 116 122 C117.65261841 121.6146106 117.65261841 121.6146106 119.33862305 121.22143555 C158.95241739 112.0122314 158.95241739 112.0122314 174.47851562 110.28710938 C177.38068389 109.95665334 180.27549551 109.58091363 183.171875 109.203125 C215.29516565 105.06887515 253.00754977 101.70727012 285 108 C290.50270738 158.8414701 284.56110511 216.30289459 269 265 C269.58233398 265.28053223 270.16466797 265.56106445 270.76464844 265.85009766 C287.74335069 274.58422693 303.45781612 287.75068887 318 300 C318.51175781 300.42684082 319.02351562 300.85368164 319.55078125 301.29345703 C334.65869552 313.90892602 348.69729007 327.60983238 362.625 341.5 C363.1881189 342.06044006 363.75123779 342.62088013 364.3314209 343.19830322 C370.440977 349.28577337 376.40807724 355.4271392 382 362 C384.31954375 364.57568969 386.65033613 367.14057882 388.984375 369.703125 C389.64953125 370.46109375 390.3146875 371.2190625 391 372 C391.58265625 372.65484375 392.1653125 373.3096875 392.765625 373.984375 C394.41405394 376.67611339 394.60105377 377.88461445 394 381 C392.34419668 383.33602522 390.72966372 385.33824274 388.8125 387.4375 C388.27729736 388.04223145 387.74209473 388.64696289 387.19067383 389.27001953 C382.7487145 394.25908802 378.20923774 399.16567673 373.63012695 404.02905273 C370.9808376 406.84294165 368.40044243 409.68964221 365.890625 412.62890625 C361.25240143 417.95893483 356.23312595 422.91639359 351.23022461 427.90014648 C349.56573723 429.5592732 347.90666553 431.22368051 346.24804688 432.88867188 C340.67197978 438.4685942 335.03713982 443.91532778 329 449 C327.94355456 449.91223276 326.88754368 450.8249691 325.83203125 451.73828125 C307.00107262 467.7920998 286.82362776 481.66508763 266 495 C267.61982644 501.07967978 269.31813552 507.09311354 271.3125 513.0625 C276.47741099 529.29080581 279.92801999 545.9643399 282.3125 562.8125 C282.47177979 563.91811279 282.63105957 565.02372559 282.79516602 566.1628418 C285.38390759 585.77309405 285.13523712 605.57329253 285.0625 625.3125 C285.05746836 627.72200426 285.05290844 630.13150956 285.04882812 632.54101562 C285.0379695 638.36070018 285.02136676 644.18034502 285 650 C231.56508516 661.24614568 166.22594742 649.99896929 114 637 C113.79890625 637.64582031 113.5978125 638.29164063 113.390625 638.95703125 C111.40713682 643.29730454 108.60816023 646.88266585 105.75 650.6875 C105.12883301 651.52112061 104.50766602 652.35474121 103.86767578 653.21362305 C78.864364 686.64271702 78.864364 686.64271702 66.68066406 698.3190918 C64.97575412 700.0242494 63.41624691 701.79859949 61.8515625 703.6328125 C57.81373742 708.27591209 53.53534021 712.6483889 49.1875 717 C48.42501953 717.77472656 47.66253906 718.54945313 46.87695312 719.34765625 C46.14798828 720.07855469 45.41902344 720.80945313 44.66796875 721.5625 C44.01078857 722.22378906 43.3536084 722.88507812 42.67651367 723.56640625 C41 725 41 725 39 725 C38.74347656 725.59296875 38.48695313 726.1859375 38.22265625 726.796875 C36.8838106 729.20936364 35.55037385 730.491406 33.4375 732.25 C30.53334175 734.7021694 27.68321551 737.18848753 24.875 739.75 C20.42187429 743.72296259 15.76198218 747.40007983 11.04833984 751.05566406 C10.48195801 751.49491211 9.91557617 751.93416016 9.33203125 752.38671875 C8.49599365 753.02939697 8.49599365 753.02939697 7.64306641 753.68505859 C6.53805506 754.56939606 5.46164809 755.49057214 4.41552734 756.44384766 C2.2201308 758.43730418 0.4597932 759.8765507 -2.4296875 760.65234375 C-6.42372655 759.63865907 -9.02863109 757.20117231 -12.125 754.5625 C-12.79096191 754.01045898 -13.45692383 753.45841797 -14.14306641 752.88964844 C-15.48647535 751.77547582 -16.82622256 750.656872 -18.16210938 749.53369141 C-20.52928132 747.5583229 -22.95569256 745.66095603 -25.375 743.75 C-37.29457957 733.93387565 -48.19710603 722.88765449 -59.125 712 C-60.43960205 710.69240723 -60.43960205 710.69240723 -61.78076172 709.35839844 C-66.72781814 704.39897675 -71.45193487 699.32594893 -76 694 C-76.96091835 692.90508905 -77.92310455 691.81128913 -78.88671875 690.71875 C-85.81993853 682.78075119 -92.2321351 674.54901142 -98.47802734 666.06298828 C-101.07067999 662.54872539 -103.69223152 659.05619131 -106.3125 655.5625 C-106.81168945 654.89476562 -107.31087891 654.22703125 -107.82519531 653.5390625 C-111.10276818 649.16311905 -114.4469397 644.84877437 -117.890625 640.6015625 C-119 639 -119 639 -119 637 C-119.86874756 637.19110352 -120.73749512 637.38220703 -121.63256836 637.57910156 C-152.02401955 644.23179723 -181.95331173 648.85792102 -213 651 C-213.70389862 651.0494577 -214.40779724 651.09891541 -215.13302612 651.14987183 C-225.94736173 651.89690402 -236.72323146 652.20066759 -247.5625 652.1875 C-248.3343866 652.18756042 -249.10627319 652.18762085 -249.90155029 652.18768311 C-260.00373912 652.17649344 -270.05016362 651.94234369 -280.125 651.125 C-281.11314697 651.04660889 -282.10129395 650.96821777 -283.11938477 650.88745117 C-289.73638816 650.26361184 -289.73638816 650.26361184 -292 648 C-292.2746582 644.96362305 -292.2746582 644.96362305 -292.30078125 641.01171875 C-292.30638062 640.29427994 -292.31197998 639.57684113 -292.31774902 638.83766174 C-292.32983096 636.45407098 -292.32326587 634.07109244 -292.3125 631.6875 C-292.31067719 630.86511841 -292.30885437 630.04273682 -292.30697632 629.19543457 C-292.1368654 583.25107905 -286.0377511 537.51857377 -271 494 C-271.91966553 493.71261963 -272.83933105 493.42523926 -273.78686523 493.12915039 C-277.63090739 491.77828837 -280.73994508 489.73682639 -284.0625 487.4375 C-285.04694092 486.76714722 -285.04694092 486.76714722 -286.05126953 486.08325195 C-287.3975161 485.1647953 -288.74160684 484.24317053 -290.08349609 483.31835938 C-291.80504939 482.13410615 -293.53667854 480.96453202 -295.26953125 479.796875 C-309.15959406 470.36211536 -322.32419851 460.00231084 -335 449 C-335.7115625 448.38898438 -336.423125 447.77796875 -337.15625 447.1484375 C-341.22918331 443.62635173 -345.21219007 440.00639153 -349.1875 436.375 C-349.93688843 435.69147461 -349.93688843 435.69147461 -350.70141602 434.99414062 C-353.88407188 432.0737479 -356.96060497 429.06857322 -360 426 C-360.80179687 425.20980469 -361.60359375 424.41960937 -362.4296875 423.60546875 C-366.80149472 419.28254756 -371.03662675 414.9229555 -375.03125 410.25 C-377.07856041 407.91021668 -379.18573112 405.6376205 -381.30761719 403.36572266 C-386.5186562 397.78617715 -391.48861753 392.11039236 -396.2578125 386.14453125 C-397.97161512 383.95973997 -397.97161512 383.95973997 -400 382 C-400.48249117 378.74218773 -400.69932408 376.22008995 -399.01513672 373.28173828 C-397.56860265 371.45222013 -396.03954292 369.75760765 -394.4375 368.0625 C-393.84670654 367.41192627 -393.25591309 366.76135254 -392.6472168 366.09106445 C-390.78065754 364.04547639 -388.89089901 362.02307453 -387 360 C-385.90220971 358.79557824 -384.80581457 357.58988312 -383.7109375 356.3828125 C-376.02104237 347.97802198 -368.00564178 339.88256018 -359.97763062 331.80239868 C-358.78558304 330.60218181 -357.59500574 329.40050286 -356.40591431 328.19735718 C-354.72762916 326.50130061 -353.04265223 324.81219939 -351.35546875 323.125 C-350.84466766 322.60706375 -350.33386658 322.0891275 -349.80758667 321.55549622 C-346.22917194 318 -346.22917194 318 -344 318 C-343.67 317.01 -343.34 316.02 -343 315 C-341.71484375 313.6328125 -341.71484375 313.6328125 -339.9375 312.125 C-339.22335937 311.51914062 -338.50921875 310.91328125 -337.7734375 310.2890625 C-331.54862849 305.15140323 -325.29111528 300.0562499 -319 295 C-318.20722656 294.360625 -317.41445313 293.72125 -316.59765625 293.0625 C-305.13222691 283.98097181 -293.15191534 275.50937442 -280.72265625 267.8046875 C-277.51322136 265.74671589 -277.51322136 265.74671589 -275 263 C-275.1404934 260.43722171 -275.1404934 260.43722171 -276.02734375 257.59375 C-276.3222168 256.47548828 -276.61708984 255.35722656 -276.92089844 254.20507812 C-277.25637695 252.98240234 -277.59185547 251.75972656 -277.9375 250.5 C-278.62493101 247.85831284 -279.29066534 245.21152233 -279.94921875 242.5625 C-280.1217215 241.86934692 -280.29422424 241.17619385 -280.47195435 240.46203613 C-286.10475363 217.42209127 -289.13759329 193.61320421 -291 170 C-291.09643799 168.82550293 -291.19287598 167.65100586 -291.29223633 166.44091797 C-292.16781507 154.46263173 -292.11314859 142.50467071 -292.0625 130.5 C-292.05747084 128.404949 -292.05291046 126.30989681 -292.04882812 124.21484375 C-292.03794422 119.14319938 -292.02075912 114.07161317 -292 109 C-239.82804692 98.92321106 -177.99414085 107.28030276 -126.89477539 120.52490234 C-123.7791006 121.03625455 -121.95953267 121.09883334 -119 120 C-117.0148295 117.97592454 -117.0148295 117.97592454 -115.36328125 115.328125 C-114.70851807 114.3597168 -114.05375488 113.39130859 -113.37915039 112.39355469 C-112.69715576 111.35618164 -112.01516113 110.31880859 -111.3125 109.25 C-109.8825241 107.13384995 -108.45024298 105.01925576 -107.015625 102.90625 C-105.98018555 101.37291016 -105.98018555 101.37291016 -104.92382812 99.80859375 C-99.15441822 91.38584102 -92.66301729 83.50206157 -86.1640625 75.63671875 C-83.36579406 72.22727615 -80.64018301 68.76245607 -77.921875 65.2890625 C-75.74920409 62.70128779 -73.39867229 60.38028585 -71 58 C-69.25347571 56.24261528 -67.50740358 54.4847811 -65.76171875 52.7265625 C-64.2534077 51.21086753 -62.7446095 49.69565937 -61.2355957 48.18066406 C-60.2079943 47.1480389 -59.18129286 46.11451732 -58.15551758 45.08007812 C-52.8536529 39.73480438 -47.53967646 34.47450935 -41.80297852 29.58959961 C-39.94981606 27.95575523 -38.23557945 26.23770494 -36.515625 24.46484375 C-32.87439846 20.76897819 -28.90089479 17.66340151 -24.75 14.5625 C-24.00782227 14.00409424 -23.26564453 13.44568848 -22.50097656 12.87036133 C-21.02066623 11.75852304 -19.53861564 10.6489973 -18.0546875 9.54199219 C-16.23041985 8.1729244 -14.42456896 6.78406223 -12.625 5.3828125 C-11.67625 4.65835937 -10.7275 3.93390625 -9.75 3.1875 C-8.94046875 2.56230469 -8.1309375 1.93710937 -7.296875 1.29296875 C-4.40743843 -0.33356782 -3.27447901 -0.64353923 0 0 Z M-38.99739075 62.76408386 C-40.33051374 64.10300805 -41.66195035 65.44361342 -42.99169922 66.78588867 C-45.02117502 68.83386809 -47.05878797 70.87348434 -49.09765625 72.91210938 C-50.41974676 74.23910933 -51.74137835 75.56656672 -53.0625 76.89453125 C-53.65740234 77.49054642 -54.25230469 78.08656158 -54.86523438 78.70063782 C-59.09645116 82.97907268 -63.07638942 87.43920834 -67 92 C-67.45493332 92.52201492 -67.90986664 93.04402985 -68.37858582 93.5818634 C-89.51319547 117.85136137 -107.00874359 144.75466047 -120.16210938 174.15673828 C-120.95849903 175.90870271 -121.7984689 177.64066347 -122.640625 179.37109375 C-129.87596098 194.29854197 -133.34883696 209.71428417 -136 226 C-136.18006592 227.084021 -136.18006592 227.084021 -136.36376953 228.18994141 C-140.78272329 255.8166344 -137.32091697 281.94993216 -127.875 308.0625 C-127.63362305 308.74739502 -127.39224609 309.43229004 -127.14355469 310.13793945 C-126.38323586 312.24429116 -126.38323586 312.24429116 -125 315 C-124.01 315.33 -123.02 315.66 -122 316 C-121.34 315.67 -120.68 315.34 -120 315 C-120 314.34 -120 313.68 -120 313 C-119.40670898 312.73123047 -118.81341797 312.46246094 -118.20214844 312.18554688 C-115.99459967 310.99709268 -114.53457118 309.79257611 -112.765625 308.03125 C-111.90517578 307.17466797 -111.90517578 307.17466797 -111.02734375 306.30078125 C-110.44082031 305.70652344 -109.85429687 305.11226563 -109.25 304.5 C-108.64800781 303.90574219 -108.04601562 303.31148438 -107.42578125 302.69921875 C-106.85730469 302.12816406 -106.28882813 301.55710937 -105.703125 300.96875 C-105.18395508 300.44732422 -104.66478516 299.92589844 -104.12988281 299.38867188 C-102.78962453 298.03981731 -102.78962453 298.03981731 -103 296 C-102.34 296 -101.68 296 -101 296 C-98.36049805 294.05105105 -96.52800898 291.90193839 -95 289 C-94.8243488 285.28306795 -95.74088671 281.90702494 -96.625 278.3125 C-100.83107181 257.72320317 -100.3339991 237.30882354 -95 217 C-94.78472656 216.08347656 -94.56945312 215.16695312 -94.34765625 214.22265625 C-86.10558994 182.7088733 -66.0874939 152.02017914 -45.0859375 127.609375 C-42.7918634 125.29641013 -42.7918634 125.29641013 -43 123 C-42.34 123 -41.68 123 -41 123 C-39.25724224 121.35412025 -39.25724224 121.35412025 -37.5 119.25 C-36.8915625 118.55390625 -36.283125 117.8578125 -35.65625 117.140625 C-34.12023037 115.15539208 -33.0276034 113.28127955 -32 111 C-31.34 111 -30.68 111 -30 111 C-28.52207743 109.55326313 -28.52207743 109.55326313 -26.98046875 107.62890625 C-22.63196647 102.52130256 -18.0141787 97.71954927 -13.3125 92.9375 C-12.05083008 91.61975586 -12.05083008 91.61975586 -10.76367188 90.27539062 C-9.95091797 89.45103516 -9.13816406 88.62667969 -8.30078125 87.77734375 C-7.57028564 87.02702881 -6.83979004 86.27671387 -6.0871582 85.50366211 C-4 84 -4 84 -1.94262695 84.06640625 C0.31324587 85.15054068 1.65837404 86.34700797 3.3828125 88.16015625 C3.99253906 88.78857422 4.60226562 89.41699219 5.23046875 90.06445312 C5.85566406 90.72380859 6.48085938 91.38316406 7.125 92.0625 C8.37303169 93.37026437 9.6254225 94.67388717 10.8828125 95.97265625 C11.43340332 96.55281494 11.98399414 97.13297363 12.55126953 97.73071289 C13.92969874 99.21966302 13.92969874 99.21966302 16 99 C16.3403125 99.8353125 16.3403125 99.8353125 16.6875 100.6875 C18.37550036 103.66159588 20.46676517 105.72008865 23 108 C23.66 108 24.32 108 25 108 C25.35384766 108.84884766 25.35384766 108.84884766 25.71484375 109.71484375 C27.29414316 112.52302052 29.22686006 114.34382481 31.5625 116.5625 C35.89826617 120.81142679 39.76410719 125.23421492 43.55078125 129.97265625 C46.488068 133.60327385 49.51665403 137.1479026 52.5625 140.6875 C53.36856689 141.62480957 53.36856689 141.62480957 54.19091797 142.58105469 C55.45959306 144.05491414 56.72964319 145.52758982 58 147 C63.04374309 145.46460187 67.64649341 143.35523674 72.375 141.0625 C77.83802085 138.41450698 83.28536297 136.05752733 89 134 C88.07717776 129.65447584 85.9135151 126.2760903 83.5625 122.5625 C83.11656494 121.85456299 82.67062988 121.14662598 82.21118164 120.41723633 C77.86342909 113.61819692 73.05646562 107.28178039 68 101 C67.29488281 100.10152344 66.58976563 99.20304687 65.86328125 98.27734375 C60.75604724 91.86734025 55.25465587 85.883087 49.60839844 79.94970703 C48.73489746 79.02907471 48.73489746 79.02907471 47.84375 78.08984375 C47.31974609 77.54191162 46.79574219 76.99397949 46.25585938 76.42944336 C45 75 45 75 44 73 C43.34 73 42.68 73 42 73 C41.67902344 72.18982422 41.67902344 72.18982422 41.3515625 71.36328125 C39.51363677 68.14956719 37.00330681 65.75082564 34.375 63.1875 C33.83230469 62.6519751 33.28960937 62.1164502 32.73046875 61.56469727 C29.29566496 58.19873233 25.78550458 54.95573571 22.12109375 51.83984375 C19.91188285 49.92356689 17.76788983 47.94407332 15.62646484 45.95263672 C-7.43007197 24.53733949 -19.4728873 43.26732319 -38.99739075 62.76408386 Z M-3 117 C-10.64868069 124.45197872 -18.20039893 131.84554458 -24.81640625 140.25 C-26.8965133 142.8696697 -29.04769042 145.40426824 -31.23217773 147.9362793 C-35.92083053 153.37687842 -40.23889319 158.85844584 -44 165 C-42.46928079 169.22136229 -39.7281314 170.82658614 -36.0625 173.25 C-34.87559421 174.04712409 -33.68940701 174.84531907 -32.50390625 175.64453125 C-31.91109863 176.0410791 -31.31829102 176.43762695 -30.70751953 176.84619141 C-25.17049328 180.58768212 -19.8046448 184.58468294 -14.53125 188.6875 C-13.94408203 189.14390869 -13.35691406 189.60031738 -12.75195312 190.07055664 C-11.60679492 190.96405452 -10.46472076 191.86152298 -9.32617188 192.76342773 C-6.87770506 194.67828352 -4.97675076 196.00774975 -2 197 C-2 197.66 -2 198.32 -2 199 C1.7073348 197.43084899 4.20891864 195.12104746 7.125 192.375 C11.64024108 188.18184206 16.28673494 184.32204254 21.19921875 180.59375 C21.79347656 180.0678125 22.38773437 179.541875 23 179 C23 178.34 23 177.68 23 177 C23.55171875 176.74992187 24.1034375 176.49984375 24.671875 176.2421875 C27.42669691 174.77233286 29.78192817 173.03739484 32.25 171.125 C33.58804688 170.10792969 33.58804688 170.10792969 34.953125 169.0703125 C37.46871341 167.01114271 37.46871341 167.01114271 37 163 C35.5882249 160.8513903 34.17635622 158.92247258 32.5625 156.9375 C31.881875 156.07922607 31.881875 156.07922607 31.1875 155.20361328 C29.80101923 153.46133991 28.40126836 151.73038832 27 150 C26.23558594 149.03964844 25.47117187 148.07929688 24.68359375 147.08984375 C20.1059765 141.39853071 15.30772816 135.95299222 10.359375 130.58203125 C7.69306851 127.66410312 5.11812433 124.67777558 2.5703125 121.65625 C0.85801661 119.85024637 -0.97380392 118.4385115 -3 117 Z M-265 133 C-265.4456418 174.89718492 -263.33552243 215.93353144 -250 256 C-249.69626465 256.95374512 -249.3925293 257.90749023 -249.07958984 258.89013672 C-235.99026017 299.47562245 -210.59094278 341.16182614 -176 367 C-174.68 366.34 -173.36 365.68 -172 365 C-172 364.34 -172 363.68 -172 363 C-171.46375 362.79375 -170.9275 362.5875 -170.375 362.375 C-167.08021991 360.46749574 -164.40636372 357.95180616 -162 355 C-162 354.34 -162 353.68 -162 353 C-161.41476563 352.74992188 -160.82953125 352.49984375 -160.2265625 352.2421875 C-157.70467294 350.83523859 -156.24913938 349.31287196 -154.375 347.125 C-153.78460938 346.44695312 -153.19421875 345.76890625 -152.5859375 345.0703125 C-151.08681913 343.11333531 -150.01430932 341.23951463 -149 339 C-150.66575159 337.47816445 -152.33265671 335.9575915 -154 334.4375 C-154.50402344 333.97714355 -155.00804687 333.51678711 -155.52734375 333.04248047 C-158.3065139 330.51170307 -161.12163264 328.04162927 -164 325.625 C-177.94243186 313.41472362 -188.78462526 297.96064903 -198 282 C-198.98419922 280.31390625 -198.98419922 280.31390625 -199.98828125 278.59375 C-216.46523683 249.55511542 -223.27944536 215.93994918 -224.5625 182.875 C-224.60568359 181.823125 -224.64886719 180.77125 -224.69335938 179.6875 C-224.79818509 177.12509373 -224.90035355 174.56261201 -225 172 C-179.98855735 176.47986585 -179.98855735 176.47986585 -158.609375 182.1484375 C-155.55083698 182.87004063 -153.1128731 183.19455457 -150 183 C-149.731875 182.35417969 -149.46375 181.70835937 -149.1875 181.04296875 C-148.795625 180.10066406 -148.40375 179.15835938 -148 178.1875 C-147.55140625 177.10726562 -147.1028125 176.02703125 -146.640625 174.9140625 C-145.41836061 171.98463034 -144.17348699 169.06544577 -142.921875 166.1484375 C-142.56351562 165.30901611 -142.20515625 164.46959473 -141.8359375 163.60473633 C-141.12101246 161.93105953 -140.40235644 160.25897075 -139.6796875 158.58862305 C-138.04357593 154.74764505 -136.57294116 151.17067463 -136 147 C-149.54728687 142.63460144 -162.96592747 139.35015236 -177 137 C-177.79809082 136.85965332 -178.59618164 136.71930664 -179.41845703 136.57470703 C-200.96349865 132.80087985 -222.66659972 131.81988502 -244.5 131.8125 C-245.29615723 131.81150299 -246.09231445 131.81050598 -246.91259766 131.80947876 C-249.18141155 131.8098019 -251.44997799 131.81878518 -253.71875 131.83203125 C-255.68231445 131.84327026 -255.68231445 131.84327026 -257.68554688 131.85473633 C-260.33784624 131.97097956 -262.48863807 132.20428561 -265 133 Z M226.76904297 132.03125 C172.22981121 132.79593033 117.74043851 142.49004907 71 172 C70.37319336 172.39268066 69.74638672 172.78536133 69.10058594 173.18994141 C58.86051068 179.65523327 49.31879826 186.97706776 39.85839844 194.52636719 C38.24855779 195.80290399 36.61459026 197.04890195 34.9765625 198.2890625 C34.32429688 198.85367188 33.67203125 199.41828125 33 200 C33 200.66 33 201.32 33 202 C32.20335937 202.30550781 32.20335937 202.30550781 31.390625 202.6171875 C27.97125896 204.59505609 25.48662079 207.30326899 22.75 210.125 C21.91855469 210.96998047 21.91855469 210.96998047 21.0703125 211.83203125 C19.70895515 213.21686028 18.35385141 214.60783204 17 216 C18.42265957 217.66043957 19.84655101 219.31975118 21.2734375 220.9765625 C22.41574785 222.31528821 23.54623537 223.6642017 24.6640625 225.0234375 C25.44910156 225.97089844 25.44910156 225.97089844 26.25 226.9375 C26.72953125 227.52402344 27.2090625 228.11054688 27.703125 228.71484375 C28.93247114 230.23463009 28.93247114 230.23463009 31 230 C31.66 231.32 32.32 232.64 33 234 C33.66 234 34.32 234 35 234 C35 234.66 35 235.32 35 236 C36.98260426 237.68732277 38.9832342 239.35366057 41 241 C41.495 241.99 41.495 241.99 42 243 C45.17652314 241.60409601 47.22993598 239.97713032 49.6171875 237.47265625 C50.64005859 236.41618896 50.64005859 236.41618896 51.68359375 235.33837891 C52.40675781 234.58733887 53.12992187 233.83629883 53.875 233.0625 C61.14595878 225.6723198 68.5375852 218.98727813 77 213 C77.94963623 212.32445068 77.94963623 212.32445068 78.91845703 211.63525391 C120.87715795 182.20553012 169.96975805 174.6382507 220 172 C217.90436308 209.92165755 211.7926583 245.20321624 194 279 C193.484375 279.99902344 192.96875 280.99804688 192.4375 282.02734375 C186.97206695 292.37899276 180.34994899 301.90679387 173 311 C172.33484375 311.83917969 171.6696875 312.67835938 170.984375 313.54296875 C162.63882511 323.94488614 153.55373329 333.69915965 144 343 C145.58431453 346.90851199 148.26635095 349.52367356 151.2265625 352.421875 C151.73424164 352.92672424 152.24192078 353.43157349 152.76498413 353.95172119 C154.38033842 355.55592096 156.00252209 357.15300856 157.625 358.75 C158.72441698 359.83938107 159.82338059 360.9292199 160.921875 362.01953125 C163.6093602 364.68501885 166.30299021 367.34415143 169 370 C174.81478056 365.16998067 180.16932653 359.98093733 185.5 354.625 C186.31597656 353.81289063 187.13195312 353.00078125 187.97265625 352.1640625 C231.16199602 308.90539795 251.39821599 250.75981272 258.25 191 C258.33317474 190.27750061 258.41634949 189.55500122 258.50204468 188.81060791 C260.19534917 173.87284049 261.18823633 158.97749949 261.0625 143.9375 C261.05573242 142.33551758 261.05573242 142.33551758 261.04882812 140.70117188 C261.03731636 138.13404805 261.0210707 135.5670599 261 133 C258.08352657 132.82916055 255.16689927 132.66327575 252.25 132.5 C251.44433594 132.45230469 250.63867188 132.40460938 249.80859375 132.35546875 C242.12282334 131.93184361 234.46382495 131.95682563 226.76904297 132.03125 Z M-57 187 C-58.60276525 188.93201547 -59.91979473 190.76319231 -61.25 192.875 C-61.6404248 193.48907715 -62.03084961 194.1031543 -62.43310547 194.73583984 C-65.53451364 199.82154335 -67.9405771 205.08955063 -70.125 210.625 C-70.43211914 211.39440918 -70.73923828 212.16381836 -71.05566406 212.95654297 C-72.95688156 217.95451019 -72.95688156 217.95451019 -72 223 C-70.02803356 224.60522878 -68.11574622 225.98641595 -66 227.375 C-51.92450503 237.0429983 -39.30110965 248.32693763 -26.98291016 260.11425781 C-25.05897713 261.94391291 -23.11769118 263.75257342 -21.16796875 265.5546875 C-8.35980099 277.42369557 3.9186375 289.82218438 16.22363281 302.20776367 C17.13983398 303.12920166 18.05603516 304.05063965 19 305 C19.90331055 305.94528564 20.80662109 306.89057129 21.73730469 307.86450195 C23.72386872 310.22879001 23.72386872 310.22879001 26 310 C26.37125 310.928125 26.37125 310.928125 26.75 311.875 C28.22770762 314.38710296 29.43955177 314.76107344 32 316 C32.33 316.99 32.66 317.98 33 319 C34.62882397 320.43948118 34.62882397 320.43948118 36.5625 321.6875 C37.20316406 322.12449219 37.84382813 322.56148437 38.50390625 323.01171875 C38.99761719 323.33785156 39.49132812 323.66398438 40 324 C44.6601328 318.35056526 49.1086247 312.57542971 53.375 306.625 C54.01767822 305.73337158 54.01767822 305.73337158 54.67333984 304.82373047 C56.69797687 301.97761856 58.56882833 299.19261373 60 296 C49.63820226 284.06268928 49.63820226 284.06268928 38.6640625 272.6953125 C36.94231585 270.94123258 35.34628746 269.11863982 33.75 267.25 C30.68665442 263.70517186 27.47756346 260.33293074 24.1875 257 C23.70700195 256.50661133 23.22650391 256.01322266 22.73144531 255.50488281 C21.5265112 254.29652802 20.26703861 253.14306634 19 252 C18.34 252 17.68 252 17 252 C16.64228516 251.13568359 16.64228516 251.13568359 16.27734375 250.25390625 C14.73254458 247.52806795 12.94200374 245.9743552 10.5625 243.9375 C6.68633469 240.54235953 2.99346046 237.04392714 -0.625 233.375 C-4.27459548 229.68962417 -7.97393655 226.16646249 -11.91796875 222.80078125 C-14.43153578 220.62675798 -16.86776229 218.37609512 -19.3125 216.125 C-23.73877406 212.08731516 -28.29040995 208.26763186 -32.953125 204.5078125 C-37.36716875 200.87471495 -41.66542468 197.11149947 -45.96191406 193.34057617 C-46.57260742 192.8066626 -47.18330078 192.27274902 -47.8125 191.72265625 C-48.35519531 191.24578369 -48.89789063 190.76891113 -49.45703125 190.27758789 C-52.11925748 188.07324773 -53.47639711 187 -57 187 Z M-200 197 C-195.22261156 232.60708009 -183.64928748 267.3719099 -160 295 C-159.01 295.495 -159.01 295.495 -158 296 C-158.1449709 293.62494478 -158.29097854 291.24995972 -158.4375 288.875 C-158.47681641 288.22917969 -158.51613281 287.58335937 -158.55664062 286.91796875 C-158.59853516 286.24121094 -158.64042969 285.56445312 -158.68359375 284.8671875 C-158.73008057 284.11614746 -158.77656738 283.36510742 -158.82446289 282.59130859 C-158.95310895 280.6922137 -159.09781211 278.79418824 -159.25170898 276.89697266 C-159.97298652 267.79708126 -160.19680397 258.74676512 -160.1875 249.625 C-160.1882251 248.89363831 -160.1889502 248.16227661 -160.18969727 247.40875244 C-160.18826042 234.20090504 -159.44943161 221.13354655 -158 208 C-164.16224967 205.57704972 -170.36218478 203.67196927 -176.75 201.9375 C-178.11898437 201.55368164 -178.11898437 201.55368164 -179.515625 201.16210938 C-186.28470113 199.31297271 -193.06249458 198.04001806 -200 197 Z M181.75390625 198.0234375 C180.58666016 198.24 179.41941406 198.4565625 178.21679688 198.6796875 C177.01087891 198.90914062 175.80496094 199.13859375 174.5625 199.375 C173.36044922 199.59671875 172.15839844 199.8184375 170.91992188 200.046875 C165.18797436 201.12181276 159.5646069 202.24620637 154 204 C154.06058594 205.0209375 154.12117187 206.041875 154.18359375 207.09375 C154.41943895 211.12911333 154.63332404 215.16549109 154.84570312 219.20214844 C155.00189143 222.03429708 155.18046647 224.86451793 155.359375 227.6953125 C156.78098979 252.04502219 155.55585013 278.5833676 147.48608398 301.81298828 C146.94450957 304.24966512 147.20645406 305.66032155 148 308 C173.19368547 274.78353373 190.02106437 238.98667899 194 197 C189.76979123 196.89631259 185.91087333 197.24835056 181.75390625 198.0234375 Z M120.8203125 213.95703125 C119.9065535 214.41247566 119.9065535 214.41247566 118.97433472 214.87712097 C117.68389028 215.52166204 116.39445601 216.16822892 115.10595703 216.81665039 C113.14257327 217.80366572 111.17510522 218.78214252 109.20703125 219.75976562 C107.95286837 220.38750837 106.69895394 221.01574781 105.4453125 221.64453125 C104.30594238 222.21534424 103.16657227 222.78615723 101.99267578 223.37426758 C100.51130127 224.17900513 100.51130127 224.17900513 99 225 C98.21294678 225.41709229 97.42589355 225.83418457 96.61499023 226.26391602 C94.05377926 229.01716941 94.60169152 231.45775572 94.71484375 235.1328125 C94.73597733 236.19001244 94.73597733 236.19001244 94.75753784 237.26856995 C94.78767322 238.77479091 94.82574305 240.28087024 94.8710022 241.78671265 C95.23190545 254.4772901 95.3923994 266.6615151 92 279 C91.6596875 280.24523437 91.319375 281.49046875 90.96875 282.7734375 C82.75269263 309.69767956 65.62481263 331.99914705 46.59375 352.22265625 C44.52202984 354.44101925 42.51806118 356.68026543 40.5625 359 C38.15885654 361.81402161 35.62479708 364.39983605 33 367 C31.45121703 368.54757096 29.90310831 370.09581683 28.35546875 371.64453125 C23.5703125 376.4296875 18.78515625 381.21484375 14 386 C21.68193467 394.99860696 29.53993037 403.71993185 38 412 C40.79192366 410.72532957 42.84081631 409.40846031 45.00512695 407.23779297 C45.84168571 406.40584915 45.84168571 406.40584915 46.69514465 405.55709839 C47.28687973 404.9581778 47.87861481 404.3592572 48.48828125 403.7421875 C49.10970505 403.12030548 49.73112885 402.49842346 50.37138367 401.85769653 C51.68575416 400.54030786 52.99769625 399.22049249 54.30737305 397.8984375 C56.28976904 395.89793854 58.27989518 393.90540487 60.27148438 391.9140625 C66.39024625 385.77801327 72.41081059 379.6288685 78 373 C79.41266958 371.43388527 80.82875344 369.8708353 82.25 368.3125 C117.51319099 329.05162069 134.89946607 288.31063447 133 235 C132.51536582 226.7968136 131.85922255 218.76074693 129 211 C125.8684736 211 123.6052799 212.56731002 120.8203125 213.95703125 Z M72 245 C72 245.66 72 246.32 72 247 C71.443125 247.226875 70.88625 247.45375 70.3125 247.6875 C67.33840412 249.37550036 65.27991135 251.46676517 63 254 C63 254.66 63 255.32 63 256 C62.34 256 61.68 256 61 256 C60.67 256.99 60.34 257.98 60 259 C61.64281162 260.66964521 63.28932761 262.3356464 64.9375 264 C65.85402344 264.928125 66.77054687 265.85625 67.71484375 266.8125 C69.59316238 269.11525049 69.59316238 269.11525049 71 269 C72.43794854 260.92437827 73.29599372 253.2056037 73 245 C72.67 245 72.34 245 72 245 Z M-77 248 C-78.16698437 251.50095311 -78.13268287 254.3122232 -78.125 258 C-78.12757813 259.2375 -78.13015625 260.475 -78.1328125 261.75 C-78.14991302 265.01230773 -78.14991302 265.01230773 -77 268 C-73.78475695 266.59155282 -71.67816132 264.89655214 -69.25 262.375 C-68.32960938 261.42753906 -68.32960938 261.42753906 -67.390625 260.4609375 C-66.93171875 259.97882813 -66.4728125 259.49671875 -66 259 C-67.3282086 254.71616238 -68.82522516 253.0216474 -72.625 250.6875 C-73.44226563 250.17574219 -74.25953125 249.66398438 -75.1015625 249.13671875 C-75.72804688 248.76160156 -76.35453125 248.38648438 -77 248 Z M-47 273 C-48.02697231 274.12172274 -49.02037689 275.27419755 -50 276.4375 C-53.35386337 280.33430437 -56.90479488 283.95241294 -60.59375 287.53125 C-62.49531689 289.48220823 -64.2572427 291.45093519 -66.0234375 293.51953125 C-71.09317194 299.36157612 -76.63708579 304.74348247 -82.125 310.1875 C-83.20726709 311.26473707 -84.28929986 312.34220961 -85.37109375 313.41992188 C-87.35940254 315.40014254 -89.34929366 317.37872012 -91.34033203 319.35620117 C-93.13629076 321.14144416 -94.92752738 322.93144839 -96.71435547 324.72583008 C-99.34658514 327.34484519 -102.11681592 329.74502006 -104.9375 332.15625 C-107.38958426 334.34826472 -109.68060515 336.66736775 -112 339 C-112.49819244 339.50074036 -112.99638489 340.00148071 -113.50967407 340.51739502 C-114.60091115 341.61421339 -115.69193989 342.71123906 -116.78279114 343.80844116 C-119.29594216 346.33510504 -121.81186425 348.8590025 -124.32788086 351.3828125 C-125.64649492 352.7064551 -126.96421003 354.03099387 -128.28100586 355.35644531 C-141.16784911 368.32551413 -141.16784911 368.32551413 -147.33813477 373.55859375 C-150.14536225 375.99342129 -152.72056977 378.65262926 -155.3125 381.3125 C-158.08145 384.15128481 -160.67960605 386.78640403 -164 389 C-164 389.66 -164 390.32 -164 391 C-164.55558594 391.226875 -165.11117187 391.45375 -165.68359375 391.6875 C-168.66531043 393.37697184 -170.6870917 395.53502125 -173.0625 398 C-175.65493955 400.68210288 -177.89183762 402.92789175 -181 405 C-181 405.66 -181 406.32 -181 407 C-181.57234375 407.24363281 -182.1446875 407.48726562 -182.734375 407.73828125 C-185.40433538 409.22517298 -187.13829007 410.98083908 -189.25 413.1875 C-192.80472046 416.8362296 -196.46475716 420.22506962 -200.37109375 423.4921875 C-202.2357874 425.10040045 -202.2357874 425.10040045 -204 428 C-185.2253154 433.92841318 -185.2253154 433.92841318 -166 438 C-164.58074219 438.24943359 -164.58074219 438.24943359 -163.1328125 438.50390625 C-155.01865096 437.19876057 -147.810015 426.92632874 -142.2421875 421.3046875 C-140.85671212 419.9134259 -139.47123386 418.52216716 -138.08558846 417.13107491 C-135.67989149 414.71453626 -133.27754655 412.29467018 -130.875 409.875 C-127.99636761 406.97590568 -125.11711806 404.07744372 -122.23391724 401.18289185 C-120.44629002 399.3877831 -118.66091973 397.59042313 -116.87814331 395.79049683 C-112.73398308 391.62953186 -108.57704073 387.67852331 -104 384 C-101.26565012 381.39903304 -98.75232079 378.73624974 -96.375 375.8125 C-94 373 -94 373 -91 371 C-91 370.34 -91 369.68 -91 369 C-90.01 368.67 -89.02 368.34 -88 368 C-86.82360631 366.8908288 -85.65463529 365.77188733 -84.5390625 364.6015625 C-83.34990636 363.36411576 -82.13015647 362.15602542 -80.8984375 360.9609375 C-80.16882813 360.25195312 -79.43921875 359.54296875 -78.6875 358.8125 C-77.99011719 358.13832031 -77.29273438 357.46414063 -76.57421875 356.76953125 C-74.77844303 355.14569097 -74.77844303 355.14569097 -75 353 C-74.38125 352.7525 -73.7625 352.505 -73.125 352.25 C-70.86253506 351.17856271 -70.86253506 351.17856271 -70 349 C-68.71317455 346.42634911 -67.55302057 346.27651028 -65 345 C-62.85285122 343.13703268 -60.7975793 341.20503061 -59 339 C-59 338.34 -59 337.68 -59 337 C-58.443125 336.79375 -57.88625 336.5875 -57.3125 336.375 C-54.14159851 334.48959912 -52.31270521 331.84640641 -50 329 C-49.01 328.34 -48.02 327.68 -47 327 C-47 326.34 -47 325.68 -47 325 C-46.01 324.67 -45.02 324.34 -44 324 C-42.28547658 322.30846256 -42.28547658 322.30846256 -40.625 320.25 C-37.10162249 316.03481777 -33.30136911 312.21698638 -29.2890625 308.46484375 C-28.40992188 307.63082031 -27.53078125 306.79679687 -26.625 305.9375 C-25.73039063 305.10089844 -24.83578125 304.26429688 -23.9140625 303.40234375 C-21.7492645 301.25822496 -21.7492645 301.25822496 -22.19042969 299.08227539 C-23.13354284 296.65651784 -24.2902916 295.20685165 -26.0390625 293.28125 C-26.98507324 292.23904297 -26.98507324 292.23904297 -27.95019531 291.17578125 C-31.36295612 287.55327954 -34.846203 284.00930088 -38.375 280.5 C-39.09816406 279.77296875 -39.82132813 279.0459375 -40.56640625 278.296875 C-41.59701172 277.26820313 -41.59701172 277.26820313 -42.6484375 276.21875 C-43.26895996 275.59935547 -43.88948242 274.97996094 -44.52880859 274.34179688 C-45.79127756 272.88768866 -45.79127756 272.88768866 -47 273 Z M-266 288 C-284.67064712 300.20874939 -302.54422216 313.38363955 -319.38305664 328.02905273 C-321.66983762 330.01713285 -323.93394236 331.95266227 -326.3984375 333.71875 C-326.92695313 334.1415625 -327.45546875 334.564375 -328 335 C-328 335.66 -328 336.32 -328 337 C-328.57621094 337.2475 -329.15242188 337.495 -329.74609375 337.75 C-332.3370806 339.18694245 -334.02044807 340.85958333 -336.0625 343 C-338.33653856 345.37442798 -340.24521929 347.16347952 -343 349 C-343 349.66 -343 350.32 -343 351 C-343.59167969 351.26554687 -344.18335938 351.53109375 -344.79296875 351.8046875 C-350.56668606 354.93169192 -354.85205601 360.88726425 -359.08984375 365.80078125 C-362.66738014 369.91970352 -366.34222332 373.95239224 -370 378 C-368.38970099 382.09894293 -365.42178599 384.76201502 -362.3125 387.75 C-358.95978708 391.03156782 -355.64957297 394.28283364 -352.625 397.875 C-345.44007536 406.29566107 -337.33966594 414.24513024 -328.88671875 421.38671875 C-326.71976532 423.23962096 -324.65064426 425.18376036 -322.5625 427.125 C-308.31322515 439.98892869 -292.17178637 450.94893504 -276.31713867 461.72119141 C-274.4055083 463.02176549 -272.49868644 464.32920669 -270.59179688 465.63671875 C-269.37268247 466.46656709 -268.15329209 467.29601017 -266.93359375 468.125 C-266.3659581 468.51550537 -265.79832245 468.90601074 -265.21348572 469.30834961 C-262.36237052 471.37947103 -262.36237052 471.37947103 -259 472 C-257.37590202 469.66698915 -257.37590202 469.66698915 -255.75 466.6875 C-255.12867188 465.59050781 -254.50734375 464.49351562 -253.8671875 463.36328125 C-253.25101562 462.25339844 -252.63484375 461.14351562 -252 460 C-251.46632813 459.04480469 -250.93265625 458.08960938 -250.3828125 457.10546875 C-247.09349418 451.14890527 -243.99504976 445.10937142 -241 439 C-244.9842175 436.31223423 -248.97452148 433.64289615 -253.046875 431.08984375 C-267.36500923 422.09899655 -281.07378472 412.32859114 -293.28515625 400.6015625 C-295.5135618 398.46614078 -297.77378149 396.43390687 -300.125 394.4375 C-303.51584381 391.47689229 -306.81459258 388.42854136 -310.0625 385.3125 C-310.81587646 384.6162854 -310.81587646 384.6162854 -311.58447266 383.90600586 C-312.97265625 382.55078125 -312.97265625 382.55078125 -315 380 C-315.03112821 377.20883745 -314.20528287 376.24850031 -312.44140625 374.11328125 C-311.82136719 373.51902344 -311.20132813 372.92476563 -310.5625 372.3125 C-309.94503906 371.71050781 -309.32757813 371.10851562 -308.69140625 370.48828125 C-307 369 -307 369 -305 368 C-305 367.34 -305 366.68 -305 366 C-304.01 365.67 -303.02 365.34 -302 365 C-302 364.34 -302 363.68 -302 363 C-301.47277344 362.79375 -300.94554687 362.5875 -300.40234375 362.375 C-296.97227272 360.41177235 -294.39286426 357.7358365 -291.5625 355 C-285.04001697 348.82116549 -278.21490522 343.33974421 -271 338 C-268.95828273 336.45840035 -266.91661502 334.91673506 -264.875 333.375 C-259.28870527 329.19645154 -253.65478596 325.08524891 -248 321 C-249.9238199 314.72940289 -252.90675251 309.24192265 -256.02246094 303.49389648 C-257.00456929 301.67905639 -257.97530607 299.85844082 -258.9453125 298.03710938 C-259.56148438 296.89435547 -260.17765625 295.75160156 -260.8125 294.57421875 C-261.65748047 293.00546997 -261.65748047 293.00546997 -262.51953125 291.4050293 C-263.77435985 288.89313367 -263.77435985 288.89313367 -266 288 Z M260 290 C258.24800874 292.39007499 258.24800874 292.39007499 256.4375 295.5 C256.09396484 296.07153809 255.75042969 296.64307617 255.39648438 297.23193359 C254.25284999 299.14808583 253.12478603 301.07272687 252 303 C251.58637207 303.70543945 251.17274414 304.41087891 250.74658203 305.13769531 C249.48770643 307.29452703 248.24134451 309.45803726 247 311.625 C246.60224365 312.31142578 246.2044873 312.99785156 245.79467773 313.70507812 C243.56121147 317.60402988 243.56121147 317.60402988 243 322 C245.24519836 323.81418965 245.24519836 323.81418965 248.1875 325.5625 C263.3358756 335.30582139 276.95724177 347.14005839 290.14453125 359.36328125 C292.86407114 361.87448429 295.6132112 364.34794407 298.375 366.8125 C299.91721934 368.20772267 301.45893866 369.60349839 303 371 C303.65613281 371.5775 304.31226563 372.155 304.98828125 372.75 C306.6875 374.3125 306.6875 374.3125 309 377 C308.71172097 380.35113932 307.34134754 382.03450883 305.0078125 384.35546875 C304.39075439 384.97333252 303.77369629 385.59119629 303.13793945 386.2277832 C302.14153442 387.19784302 302.14153442 387.19784302 301.125 388.1875 C300.4446167 388.8580542 299.7642334 389.5286084 299.06323242 390.21948242 C294.44957963 394.71696605 289.72218077 398.91385609 284.66015625 402.90234375 C281.7965373 405.16043975 279.02737629 407.5118263 276.25 409.875 C263.35693295 420.62199525 249.46738806 430.48334892 235 439 C236.54283046 444.40421619 239.04841752 448.96416092 241.8125 453.8125 C242.67317708 455.33984375 243.53385417 456.8671875 244.39453125 458.39453125 C244.81943848 459.14428223 245.2443457 459.8940332 245.68212891 460.66650391 C247.80910522 464.43264685 249.90462844 468.2162069 252 472 C253.60710469 471.15137412 255.2104629 470.29565414 256.8125 469.4375 C257.70582031 468.96183594 258.59914063 468.48617187 259.51953125 467.99609375 C280.24067656 456.41419166 299.63859274 441.92684928 316.98046875 425.7734375 C319.16603655 423.74191207 321.40614229 421.78917717 323.671875 419.84765625 C328.52857447 415.6145259 333.07511815 411.07532526 337.6184082 406.51196289 C339.06025221 405.06475615 340.50737116 403.62297974 341.95507812 402.18164062 C346.66663999 397.4728514 351.26170375 392.71583518 355.56030273 387.62353516 C356.95349766 386.05244032 358.42891891 384.7018406 360 383.3125 C362.27336005 381.21690234 362.27336005 381.21690234 361.90625 378.68359375 C360.72928936 375.1983698 359.04081192 373.42532549 356.5 370.75 C355.99952148 370.22132324 355.49904297 369.69264648 354.98339844 369.14794922 C348.83358619 362.71669304 342.52932527 356.42948648 336.25 350.125 C335.70738525 349.57952515 335.16477051 349.03405029 334.60571289 348.4720459 C329.1062557 342.95227562 323.59648364 337.49195305 317.66796875 332.42724609 C315.34048673 330.43566824 313.11511458 328.33885282 310.875 326.25 C299.37542964 315.7929731 286.78456628 306.80673 274 298 C273.37657715 297.56929199 272.7531543 297.13858398 272.11083984 296.69482422 C266.49617072 292.13469335 266.49617072 292.13469335 260 290 Z M-10.00390625 322.8359375 C-10.90072365 323.7277623 -10.90072365 323.7277623 -11.81565857 324.63760376 C-13.08212759 325.89899843 -14.34722971 327.16176674 -15.61108398 328.42578125 C-17.55237757 330.36488897 -19.50151051 332.29587295 -21.45117188 334.2265625 C-22.67757321 335.45002998 -23.90350072 336.67397264 -25.12890625 337.8984375 C-25.71636124 338.47870697 -26.30381622 339.05897644 -26.90907288 339.65682983 C-29.98328942 342.32605724 -29.98328942 342.32605724 -31 346 C-29.49465659 347.53978966 -29.49465659 347.53978966 -27.51953125 349.1328125 C-24.5444093 351.66156784 -21.64910318 354.23378407 -18.82421875 356.9296875 C-18.14166016 357.579375 -17.45910156 358.2290625 -16.75585938 358.8984375 C-15.35503557 360.23709065 -13.95666737 361.57831735 -12.56054688 362.921875 C-11.54637695 363.88480469 -11.54637695 363.88480469 -10.51171875 364.8671875 C-9.90803467 365.44581543 -9.30435059 366.02444336 -8.68237305 366.62060547 C-6.93642206 368.21950471 -6.93642206 368.21950471 -4 369 C-3.0821875 368.14277344 -2.164375 367.28554688 -1.21875 366.40234375 C0.02058472 365.24712906 1.26018559 364.09219986 2.5 362.9375 C3.1405835 362.3405835 3.78116699 361.74366699 4.44116211 361.12866211 C8.30131203 357.54294663 12.19691121 354.02380802 16.25390625 350.66015625 C17.84971646 349.14288704 19.20939233 347.59184916 20.60913086 345.89624023 C21.39811768 344.94048096 22.18710449 343.98472168 23 343 C19.3186774 339.29403669 15.63414174 335.59131014 11.9465332 331.89160156 C10.69140234 330.63142871 9.43716865 329.37036163 8.18383789 328.10839844 C6.3866066 326.29909566 4.58621813 324.49298864 2.78515625 322.6875 C2.22159927 322.11878174 1.6580423 321.55006348 1.07740784 320.96411133 C-0.26288111 319.62362787 -1.6288462 318.30889557 -3 317 C-5.41253712 317 -8.27798982 321.1133018 -10.00390625 322.8359375 Z M227 342 C226.21496094 342.9178125 225.42992187 343.835625 224.62109375 344.78125 C217.27973087 353.35963194 209.93208438 361.91651087 202.3125 370.25 C201.84835693 370.75805176 201.38421387 371.26610352 200.90600586 371.78955078 C198.87665687 373.99986316 196.83518394 376.15791421 194.66796875 378.234375 C192.77109401 379.83749145 192.77109401 379.83749145 193 382 C191.68 382.66 190.36 383.32 189 384 C188.55533183 388.05380034 188.55533183 388.05380034 191.203125 390.4609375 C192.12609375 391.29882812 193.0490625 392.13671875 194 393 C200.84922296 399.64510705 207.085282 406.50879101 213 414 C214.33277086 415.66711649 215.66593724 417.33391714 217 419 C233.57001212 416.65029294 251.14508855 399.93287361 263.9375 389.9375 C264.48599609 389.50912842 265.03449219 389.08075684 265.59960938 388.6394043 C268.972598 385.95215062 272.00682079 383.09240062 275 380 C270.67930713 369.27276254 255.96983309 361.02781925 246.91894531 354.41796875 C245.10000074 353.07389368 243.30778863 351.70204669 241.5234375 350.3125 C239.96496094 349.1059375 239.96496094 349.1059375 238.375 347.875 C237.47523438 347.17117188 236.57546875 346.46734375 235.6484375 345.7421875 C232.83536093 343.8916976 230.22717414 342.91799382 227 342 Z M-272 370 C-274.05935323 371.6913769 -276.12357251 373.37669663 -278.1875 375.0625 C-279.10917969 375.81660156 -280.03085937 376.57070313 -280.98046875 377.34765625 C-281.64691406 377.89292969 -282.31335938 378.43820312 -283 379 C-281.70410259 382.88769223 -279.367337 384.15358027 -276.125 386.375 C-275.19929199 387.02094116 -275.19929199 387.02094116 -274.25488281 387.67993164 C-272.89874222 388.62351542 -271.53987815 389.56319367 -270.17871094 390.49951172 C-267.9375286 392.04302434 -265.70680572 393.60088813 -263.4765625 395.16015625 C-255.44985182 400.74257386 -247.33778956 406.14179106 -239 411.25 C-238.24041992 411.71591553 -237.48083984 412.18183105 -236.69824219 412.66186523 C-233.78215097 414.42492039 -231.24827201 415.91724266 -228 417 C-221.69768536 411.54607387 -215.78400952 405.80893396 -209.9375 399.875 C-204.60116438 394.46871242 -199.27874569 389.32535814 -193 385 C-196.47736026 381.21965377 -196.47736026 381.21965377 -201 379 C-201 378.34 -201 377.68 -201 377 C-202.48677661 375.53587878 -202.48677661 375.53587878 -204.4375 374 C-209.44631104 369.74074695 -213.6670553 364.92982994 -218 360 C-219.56169289 358.29092881 -221.12418156 356.5825844 -222.6875 354.875 C-226.00497112 351.20312303 -229.03812235 347.42975026 -231.90625 343.3984375 C-232.44765625 342.70621094 -232.44765625 342.70621094 -233 342 C-243.89461677 342 -264.13409515 363.44899268 -272 370 Z M122 358 C120.74896484 359.45019531 120.74896484 359.45019531 119.47265625 360.9296875 C118.33610975 362.24494053 117.1993783 363.56003376 116.0625 364.875 C115.47436523 365.55594727 114.88623047 366.23689453 114.28027344 366.93847656 C110.13862634 371.72111972 105.92305675 376.41832596 101.609375 381.046875 C99.79822198 383.0065995 99.79822198 383.0065995 99 386 C99.76183594 386.68964844 100.52367187 387.37929688 101.30859375 388.08984375 C106.90423192 393.17579464 112.4086583 398.29999678 117.671875 403.734375 C119.58185157 405.59307703 121.52071741 407.3193857 123.54296875 409.05078125 C128.60194262 413.44462638 133.3204136 418.17015963 138.0456543 422.9152832 C139.5599258 424.43491668 141.0794743 425.94912517 142.59960938 427.46289062 C147.4309779 432.29139982 152.13618599 437.17756711 156.57983398 442.37036133 C158.35947917 444.41250189 160.27804635 446.26950031 162.25 448.125 C200.40688635 485.9579739 214.25435771 536.39544912 220 588 C213.70871977 587.78424806 207.41820838 587.55351294 201.12792969 587.31030273 C198.99884081 587.22992659 196.86960697 587.15328218 194.74023438 587.08081055 C175.29077963 586.41441855 156.13049007 584.90144867 137.3125 579.6875 C136.1889209 579.3884375 135.0653418 579.089375 133.90771484 578.78125 C126.12937394 576.68013384 118.42387017 574.36288843 110.8215332 571.69018555 C105.39454848 569.82769672 105.39454848 569.82769672 100 571 C97.46834461 572.83366487 95.18011183 574.89211541 92.875 577 C91.54678885 578.18625868 90.21735162 579.37114592 88.88671875 580.5546875 C88.2323584 581.13959961 87.57799805 581.72451172 86.90380859 582.32714844 C83.39579671 585.40959233 79.73416234 588.29580562 76.07421875 591.1953125 C73.80083228 593.01316594 73.80083228 593.01316594 72 596 C92.93810583 604.22190772 114.07641235 611.8489937 136 617 C136.72380859 617.1748291 137.44761719 617.3496582 138.19335938 617.52978516 C155.49477088 621.63214206 173.32765196 623.29483558 191 625 C192.35720909 625.13335754 192.35720909 625.13335754 193.74183655 625.26940918 C200.96639301 625.93154815 208.11862606 626.1466646 215.37109375 626.1328125 C216.49645035 626.13376923 217.62180695 626.13472595 218.78126526 626.13571167 C221.13664812 626.13638677 223.49203291 626.13457973 225.84741211 626.13037109 C229.45235327 626.12497778 233.05717185 626.13035695 236.66210938 626.13671875 C238.96093777 626.13605854 241.2597661 626.13477856 243.55859375 626.1328125 C244.63257919 626.13483673 245.70656464 626.13686096 246.81309509 626.13894653 C248.31604881 626.13421829 248.31604881 626.13421829 249.84936523 626.12939453 C250.72584213 626.12859894 251.60231903 626.12780334 252.50535583 626.12698364 C255.08855955 625.9954921 257.479968 625.56914029 260 625 C260.29565705 606.9057885 259.70654343 589.01893162 258 571 C257.90879883 570.03642578 257.81759766 569.07285156 257.72363281 568.08007812 C252.67905048 518.20066404 231.49098344 467.17996528 196.59765625 430.73828125 C194.63560228 428.67001082 192.77483257 426.58575531 190.92333984 424.42285156 C186.69251901 419.57679369 182.18175898 415.03791725 177.62890625 410.49609375 C176.74774643 409.6139772 175.86658661 408.73186066 174.95872498 407.82301331 C172.6342325 405.49767191 170.30734093 403.17476382 167.97961426 400.85266113 C166.56355322 399.43855176 165.14945679 398.02250879 163.73608398 396.60571289 C160.99471744 393.8581328 158.24986966 391.11407894 155.50390625 388.37109375 C154.67033096 387.53549423 153.83675568 386.69989471 152.97792053 385.838974 C148.690699 381.56869469 144.34043516 377.44423469 139.73478699 373.51803589 C136.37305737 370.57633397 133.31712722 367.32092876 130.2265625 364.09960938 C127.62866029 361.44390044 125.36524476 359.54382625 122 358 Z M-49 363 C-53.98988386 367.16802064 -58.73206387 371.57733232 -63.375 376.125 C-63.89868164 376.62741211 -64.42236328 377.12982422 -64.96191406 377.64746094 C-67.94884388 380.6071484 -69.57859606 383.07897101 -71 387 C-59.80417553 399.2621519 -48.14016823 411.04764355 -36.40039062 422.78491211 C-33.73900622 425.44619298 -31.08468357 428.11440785 -28.43185806 430.78421688 C-26.37299385 432.85414535 -24.309656 434.91956803 -22.24498749 436.98370552 C-21.2625432 437.96732908 -20.28171825 438.95257284 -19.3025589 439.93946648 C-17.94894295 441.3028112 -16.58841684 442.65928476 -15.22753906 444.01538086 C-14.07176361 445.17329384 -14.07176361 445.17329384 -12.89263916 446.354599 C-11.16641918 448.21869807 -11.16641918 448.21869807 -9 448 C-8.67 448.99 -8.34 449.98 -8 451 C-6.44294806 452.57840572 -6.44294806 452.57840572 -4.5 454.125 C1.09206354 458.86978118 6.15112353 464.10250789 11.2890625 469.328125 C18.08383494 476.19294664 25.19653142 482.5013625 32.8125 488.4375 C33.40562988 488.90196533 33.99875977 489.36643066 34.60986328 489.8449707 C39.97957793 494.02788496 45.45566695 498.05107707 51 502 C54.99442889 500.43209333 57.46093687 497.63372386 60.25 494.5 C60.73090088 493.96681152 61.21180176 493.43362305 61.70727539 492.88427734 C67.61025858 486.28353505 73.2652151 479.49674276 78 472 C76.63875 471.2265625 76.63875 471.2265625 75.25 470.4375 C74.60289062 470.06367188 73.95578125 469.68984375 73.2890625 469.3046875 C71.69103175 468.39386451 70.08045412 467.50485991 68.4609375 466.6328125 C54.43275523 458.86514133 42.29465678 448.85450733 31.24609375 437.2890625 C29.01405889 434.97138717 26.69766271 432.83715468 24.25170898 430.74731445 C20.2284226 427.24845421 16.46003682 423.55752568 12.7265625 419.75390625 C11.39465814 418.4093795 10.06262328 417.06498201 8.73046875 415.72070312 C6.66136069 413.62660345 4.59390932 411.53091323 2.52880859 409.43286133 C0.51569682 407.38973486 -1.50343772 405.35271953 -3.5234375 403.31640625 C-4.14423187 402.68215225 -4.76502625 402.04789825 -5.40463257 401.39442444 C-6.8989061 399.89136506 -8.44489709 398.44003327 -10 397 C-10.66 397 -11.32 397 -12 397 C-12.25797363 396.41226807 -12.51594727 395.82453613 -12.78173828 395.21899414 C-14.10068167 392.81661409 -15.48642459 391.35430569 -17.4921875 389.49609375 C-18.19174561 388.84278076 -18.89130371 388.18946777 -19.61206055 387.51635742 C-20.35883057 386.83033447 -21.10560059 386.14431152 -21.875 385.4375 C-22.6378833 384.73020752 -23.4007666 384.02291504 -24.18676758 383.29418945 C-25.7296427 381.86504933 -27.27462978 380.43818567 -28.82177734 379.01367188 C-30.7555469 377.22598623 -32.67266202 375.42302965 -34.58203125 373.609375 C-35.61700231 372.63521988 -36.65214488 371.66124693 -37.6875 370.6875 C-38.57824219 369.84574219 -39.46898437 369.00398438 -40.38671875 368.13671875 C-43.11455161 365.90633822 -45.79811386 364.44858392 -49 363 Z M80.51953125 404.25 C76.86404871 407.99749697 73.37986255 411.83871954 69.97265625 415.8125 C66.82361778 419.30450305 63.42628808 422.54147205 60.0390625 425.80078125 C57.79972467 427.91229248 57.79972467 427.91229248 57 431 C63.92086878 436.11954677 70.85024068 440.66517493 78.5625 444.5 C79.24054688 444.83773437 79.91859375 445.17546875 80.6171875 445.5234375 C83.69106828 447.01417728 86.62499288 448.38167809 90 449 C95.85693046 441.9592219 101.0327747 434.68863066 106 427 C104.46347997 423.36120325 102.27579241 421.01785354 99.5 418.234375 C98.613125 417.34492188 97.72625 416.45546875 96.8125 415.5390625 C95.884375 414.61867188 94.95625 413.69828125 94 412.75 C93.071875 411.81414062 92.14375 410.87828125 91.1875 409.9140625 C90.300625 409.02976562 89.41375 408.14546875 88.5 407.234375 C87.6853125 406.42194336 86.870625 405.60951172 86.03125 404.77246094 C83.69404302 402.73302311 82.94971077 402.19813339 80.51953125 404.25 Z M-91 405 C-91.61875 405.63615234 -91.61875 405.63615234 -92.25 406.28515625 C-95.33971699 409.42315007 -98.46528072 412.44929817 -101.8125 415.3125 C-105.98356918 418.90042941 -109.80910955 422.78889617 -113.66796875 426.70703125 C-115.53229688 428.5401311 -117.38707453 430.19963431 -119.4375 431.8125 C-122.02205708 434.01882921 -123.45507464 435.99597846 -125 439 C-119.3051524 439.15978809 -114.23473684 438.70373065 -108.6875 437.4375 C-107.92131348 437.26476562 -107.15512695 437.09203125 -106.36572266 436.9140625 C-94.39994834 434.06148788 -82.9145726 429.64290828 -72 424 C-72 420.43497521 -72.47123352 420.14506396 -74.88671875 417.71484375 C-75.49580078 417.10189453 -76.10488281 416.48894531 -76.73242188 415.85742188 C-77.37759766 415.22384766 -78.02277344 414.59027344 -78.6875 413.9375 C-79.31333984 413.30005859 -79.93917969 412.66261719 -80.58398438 412.00585938 C-83.83049694 408.77974375 -86.47126023 406.25557795 -91 405 Z M125 442 C123.43398992 444.30457844 121.98685879 446.6094063 120.5625 449 C103.59182486 476.77808719 83.36932267 501.6471549 60.4375 524.6875 C59.7463208 525.38335205 59.0551416 526.0792041 58.34301758 526.79614258 C57.69228271 527.44478271 57.04154785 528.09342285 56.37109375 528.76171875 C55.79286865 529.33881592 55.21464355 529.91591309 54.61889648 530.51049805 C53 532 53 532 50 534 C50 534.66 50 535.32 50 536 C49.16662109 536.35384766 49.16662109 536.35384766 48.31640625 536.71484375 C45.43624409 538.3127752 43.33630924 540.305005 40.9375 542.5625 C36.27105321 546.88005357 31.47462132 550.95306772 26.52734375 554.94921875 C23.29598385 557.57126504 20.1445053 560.27476207 17 563 C22.91407892 569.09329344 29.0656093 574.18267442 36.1875 578.8125 C36.79392334 579.20985352 37.40034668 579.60720703 38.02514648 580.01660156 C42.21609998 582.93748216 42.21609998 582.93748216 47 584 C49.3130924 582.69697829 51.27393984 581.40310673 53.375 579.8125 C53.98786865 579.36052246 54.6007373 578.90854492 55.23217773 578.44287109 C62.10716772 573.29781923 68.60440041 567.72420798 75 562 C75.55042969 561.50741699 76.10085938 561.01483398 76.66796875 560.50732422 C86.9182513 551.28267861 97.16138835 541.77987369 106.08984375 531.25 C107.64563475 529.41741183 109.22239272 527.61156994 110.81640625 525.8125 C122.1565687 512.96543193 133.20650456 499.74899235 142 485 C143.10377387 483.2031113 144.21333555 481.40986313 145.32275391 479.61645508 C146.88892391 477.08197629 148.44462762 474.54111488 150 472 C147.18234611 466.81204485 144.03618423 462.1879266 140.375 457.5625 C139.88515625 456.92634766 139.3953125 456.29019531 138.890625 455.63476562 C137.64389436 454.04910138 136.32722138 452.51893113 135 451 C134.34 451 133.68 451 133 451 C132.7525 450.443125 132.505 449.88625 132.25 449.3125 C130.77075182 446.57589087 129.06532561 444.32349131 127 442 C126.34 442 125.68 442 125 442 Z M-58.6328125 445.59765625 C-59.99813837 446.15531386 -61.36379376 446.7121652 -62.72973633 447.26831055 C-63.80549423 447.70836929 -63.80549423 447.70836929 -64.90298462 448.15731812 C-76.06330459 452.70369504 -87.18411031 456.97826677 -98.8125 460.1875 C-99.77494629 460.45377197 -100.73739258 460.72004395 -101.72900391 460.99438477 C-113.79550892 464.17728176 -125.4784991 465.41194491 -137.9375 465.375 C-138.66299042 465.37412384 -139.38848083 465.37324768 -140.13595581 465.37234497 C-152.46846757 465.32342054 -164.06802208 464.21834588 -176 461 C-177.44294434 460.61400635 -177.44294434 460.61400635 -178.91503906 460.22021484 C-190.27948888 457.12625697 -201.51369426 453.62522036 -212.64526367 449.77783203 C-216.2385845 448.46025323 -216.2385845 448.46025323 -220 448 C-250.83362272 500.3001683 -262.28972176 554.32097138 -266.44921875 614.44921875 C-266.50529297 615.25238022 -266.56136719 616.05554169 -266.61914062 616.88304138 C-266.84795195 620.26742819 -267 623.60596264 -267 627 C-222.89010308 626.85958403 -222.89010308 626.85958403 -179 623 C-177.30157959 622.77739502 -177.30157959 622.77739502 -175.56884766 622.55029297 C-140.75227052 617.91103449 -107.33689445 608.05692112 -76 592 C-78.1188017 587.6299715 -81.03779012 585.03041934 -84.68359375 581.96875 C-88.06201835 579.09737395 -91.27392217 576.04805987 -94.5078125 573.015625 C-97.3006604 570.75683266 -99.64337397 569.30560623 -103 568 C-106.2702143 568.41126511 -106.2702143 568.41126511 -109.59375 569.71875 C-110.21372864 569.93160141 -110.83370728 570.14445282 -111.47247314 570.36375427 C-112.79943609 570.82075387 -114.12315167 571.28727455 -115.44372559 571.76242065 C-118.9189875 573.00898648 -122.42077711 574.17603917 -125.921875 575.34765625 C-126.61710266 575.58182755 -127.31233032 575.81599884 -128.02862549 576.05726624 C-149.24427096 583.13212365 -172.3777847 586.86276064 -194.7265625 587.31640625 C-195.60025482 587.33718735 -196.47394714 587.35796844 -197.37411499 587.37937927 C-200.12434165 587.44398626 -202.87465135 587.50333973 -205.625 587.5625 C-207.50651849 587.60577006 -209.38802904 587.64938682 -211.26953125 587.69335938 C-215.84627232 587.79957436 -220.42309562 587.90108289 -225 588 C-223.87023127 560.40245063 -218.58223867 533.55764086 -208 508 C-207.46044651 506.665563 -206.92134674 505.33094241 -206.3828125 503.99609375 C-205.28374664 501.31673263 -204.16364415 498.651766 -203 496 C-196.91289134 495.69231828 -191.64573795 496.8819502 -185.75 498.3125 C-137.57597635 509.35605312 -85.4126156 503.56802562 -42 479 C-41.35160156 478.6395459 -40.70320312 478.2790918 -40.03515625 477.90771484 C-34.93896383 475.07277154 -29.85462229 472.23641486 -25 469 C-27.32123947 463.39503598 -32.16113214 459.50506371 -36.38549805 455.29882812 C-37.93759515 453.74990505 -39.47586142 452.1880929 -41.01367188 450.625 C-41.99658489 449.63981526 -42.98028237 448.65541242 -43.96484375 447.671875 C-44.8580835 446.7756543 -45.75132324 445.87943359 -46.67163086 444.95605469 C-50.86836178 441.43039587 -54.00832193 443.68276546 -58.6328125 445.59765625 Z M-14 489.875 C-21.82930652 495.03643457 -29.98521231 499.5387195 -38.22924805 503.99780273 C-39.86444177 504.92327774 -41.43663916 505.95775944 -43 507 C-42.33613281 507.66386719 -41.67226563 508.32773437 -40.98828125 509.01171875 C-33 517 -33 517 -30.45703125 519.57421875 C-28.15861841 521.843399 -25.7996524 523.99227899 -23.375 526.125 C-18.53417211 530.44406201 -13.97704142 534.97976228 -9.4453125 539.6171875 C-5.73247757 543.6465034 -5.73247757 543.6465034 -0.75 545.0546875 C3.38751708 543.46785566 6.54561942 540.86165775 10 538.125 C10.74314453 537.54508301 11.48628906 536.96516602 12.25195312 536.36767578 C17.05149426 532.59939852 21.80718154 528.77543767 26.5 524.875 C27.31791016 524.20235107 27.31791016 524.20235107 28.15234375 523.51611328 C30.68764321 521.36851709 31.92680724 520.21957829 33 517 C31.97261719 516.31035156 30.94523437 515.62070312 29.88671875 514.91015625 C18.47346942 507.19446808 7.85757563 498.97172157 -2.11816406 489.453125 C-7.17948325 484.68872744 -8.71364792 486.32312902 -14 489.875 Z M166 489 C165.17048036 490.19510641 164.38987729 491.42418136 163.62890625 492.6640625 C163.14220459 493.44950439 162.65550293 494.23494629 162.15405273 495.04418945 C161.62884033 495.89585693 161.10362793 496.74752441 160.5625 497.625 C151.39432638 512.30035457 141.32006433 526.27083754 130.08203125 539.44140625 C129.61667969 539.98845215 129.15132812 540.53549805 128.671875 541.09912109 C127.38941803 542.59762416 126.09545104 544.08625456 124.80078125 545.57421875 C122.70196895 547.89794746 122.70196895 547.89794746 123 551 C138.86612639 555.76084147 154.59719194 559.63010832 171 562 C171.71333496 562.10530029 172.42666992 562.21060059 173.16162109 562.3190918 C177.63327264 562.93514522 181.98965973 563.10586866 186.5 563.0625 C187.7271875 563.05347656 188.954375 563.04445313 190.21875 563.03515625 C191.1365625 563.02355469 192.054375 563.01195312 193 563 C191.31915361 536.93239082 180.40777293 511.12441018 167 489 C166.67 489 166.34 489 166 489 Z M-72.34765625 515.64453125 C-73.42853516 515.99193359 -74.50941406 516.33933594 -75.62304688 516.69726562 C-77.32557617 517.24930664 -77.32557617 517.24930664 -79.0625 517.8125 C-80.17044922 518.16892578 -81.27839844 518.52535156 -82.41992188 518.89257812 C-88.62549218 520.8925993 -94.81862423 522.92645913 -101 525 C-99.11472971 528.98805101 -96.56043012 532.26237015 -93.8125 535.6875 C-92.80702878 536.95161386 -91.80181977 538.21593633 -90.796875 539.48046875 C-90.06887695 540.3938501 -90.06887695 540.3938501 -89.32617188 541.32568359 C-87.71178379 543.36387827 -86.13682985 545.43076944 -84.5625 547.5 C-81.42947281 551.53795495 -78.13268098 555.42838276 -74.8125 559.3125 C-74.30082275 559.91191406 -73.78914551 560.51132812 -73.26196289 561.12890625 C-69.31873763 565.74453523 -69.31873763 565.74453523 -65 570 C-64.34 570 -63.68 570 -63 570 C-62.77957031 570.556875 -62.55914062 571.11375 -62.33203125 571.6875 C-60.56929007 574.74774275 -58.325223 576.65225185 -55.6875 579 C-54.59850943 579.9760619 -53.50998385 580.95264277 -52.421875 581.9296875 C-51.85791016 582.43338867 -51.29394531 582.93708984 -50.71289062 583.45605469 C-48.4721981 585.4757439 -46.27236597 587.53725029 -44.07055664 589.59912109 C-38.89557825 594.43446493 -33.61954703 599.06752919 -28.09765625 603.5078125 C-24.10105665 606.72323563 -20.14494329 609.98659227 -16.1875 613.25 C-15.46981445 613.84087402 -14.75212891 614.43174805 -14.01269531 615.04052734 C-9.99742946 618.34727192 -5.99240241 621.6656859 -2 625 C2.55096681 623.56636211 5.50405692 620.99607331 8.875 617.75 C9.92889926 616.75827625 10.98358332 615.76738583 12.0390625 614.77734375 C12.54469727 614.30022949 13.05033203 613.82311523 13.57128906 613.33154297 C16.29856262 610.78975384 19.14734974 608.39881954 22 606 C20.57907481 602.7663802 18.86344681 600.61946269 16.36401367 598.13696289 C15.61951462 597.3926149 14.87501556 596.64826691 14.10795593 595.88136292 C13.30276016 595.08648972 12.49756439 594.29161652 11.66796875 593.47265625 C10.42482658 592.23375893 10.42482658 592.23375893 9.15657043 590.96983337 C6.50487096 588.32932467 3.84631612 585.69584071 1.1875 583.0625 C-0.59225539 581.2927787 -2.37155763 579.52260156 -4.15039062 577.75195312 C-7.42273326 574.49594041 -10.69763847 571.24255531 -13.97583008 567.99243164 C-15.31733564 566.66173761 -16.65873975 565.33094129 -18 564 C-18.50892288 563.4950853 -19.01784576 562.99017059 -19.54219055 562.46995544 C-21.78431714 560.23797813 -23.98650447 557.98020399 -26.12890625 555.65234375 C-26.68312256 555.05301025 -27.23733887 554.45367676 -27.80834961 553.83618164 C-28.67665405 552.89633423 -28.67665405 552.89633423 -29.5625 551.9375 C-34.09633382 547.04868276 -38.69295713 542.2471102 -43.4375 537.5625 C-47.84202422 533.20862709 -51.98114542 528.70987935 -56 524 C-57.59626741 522.15978475 -59.20074002 520.32666132 -60.8125 518.5 C-61.93591797 517.21609375 -61.93591797 517.21609375 -63.08203125 515.90625 C-66.21594111 512.79148827 -68.42734381 514.37967512 -72.34765625 515.64453125 Z M-190 522 C-193.95638168 535.57215875 -197.81176722 549.01615053 -200 563 C-172.11882665 564.32533747 -144.03312003 557.3826602 -118 548 C-118.75479084 543.48620134 -120.03988398 541.52013797 -123 538 C-123.38873291 537.27184082 -123.77746582 536.54368164 -124.17797852 535.79345703 C-126.74583612 530.9777277 -126.74583612 530.9777277 -131.22338867 528.22265625 C-133.93253383 527.98793657 -136.53298498 528.01245681 -139.25 528.125 C-141.30341116 528.12333718 -143.35683054 528.11255714 -145.41015625 528.09375 C-146.48281738 528.08988281 -147.55547852 528.08601562 -148.66064453 528.08203125 C-154.37358991 527.94169278 -160.01594013 527.29470752 -165.6875 526.625 C-166.73647461 526.51043457 -167.78544922 526.39586914 -168.86621094 526.27783203 C-176.08470058 525.4261097 -182.99124426 523.91552362 -190 522 Z M-66.203125 613.484375 C-67.67458984 614.26941406 -67.67458984 614.26941406 -69.17578125 615.0703125 C-70.19027344 615.62460937 -71.20476562 616.17890625 -72.25 616.75 C-79.07067284 620.4287629 -85.85399988 623.98997735 -93 627 C-91.5035461 631.37487889 -89.15008967 634.86869533 -86.4375 638.5625 C-85.99059814 639.17818848 -85.54369629 639.79387695 -85.08325195 640.42822266 C-83.72810134 642.28990666 -82.3648025 644.14538504 -81 646 C-79.90945313 647.49466797 -79.90945313 647.49466797 -78.796875 649.01953125 C-70.47189715 660.2890846 -61.69304139 671.28852189 -52.1953125 681.59375 C-50.95880787 682.94906468 -49.73117095 684.31302873 -48.53588867 685.70483398 C-43.6297467 691.41732771 -38.39761725 696.75139678 -33.0625 702.0625 C-32.20720703 702.92166016 -31.35191406 703.78082031 -30.47070312 704.66601562 C-26.0175153 709.11240987 -21.50150854 713.41529411 -16.72631836 717.5144043 C-13.76908422 720.05927345 -10.93243944 722.73920211 -8.078125 725.3984375 C-5.33094557 727.52856597 -5.33094557 727.52856597 -2 728 C0.42453447 726.37250421 0.42453447 726.37250421 2.75 724 C3.63429688 723.16210938 4.51859375 722.32421875 5.4296875 721.4609375 C6.27789062 720.64882813 7.12609375 719.83671875 8 719 C9.28381427 717.86604732 10.57485314 716.74018873 11.875 715.625 C24.60563888 704.4952199 37.3641887 692.94617922 48.28125 679.99609375 C50.07888806 677.90838228 51.95108512 675.89991846 53.83496094 673.89013672 C75.4605145 652.36658824 75.4605145 652.36658824 88 627 C87.09459473 626.63817627 87.09459473 626.63817627 86.17089844 626.26904297 C83.36179133 625.14293693 80.55545266 624.01018035 77.75 622.875 C76.74396729 622.46846191 75.73793457 622.06192383 74.70141602 621.64306641 C68.36090216 619.05119655 62.29863969 616.28554256 56.33984375 612.8984375 C53.39579104 611.7679999 51.96854873 612.00256763 49 613 C46.9012459 614.19808542 46.9012459 614.19808542 45 615.75 C44.0409375 616.48476563 44.0409375 616.48476563 43.0625 617.234375 C40.57212602 619.36628606 38.30782368 621.67169267 36 624 C29.7199453 630.02985332 23.36809708 635.98294219 16.390625 641.203125 C14.47580313 642.64237019 12.60201618 644.11054471 10.734375 645.609375 C10.15880859 646.06618652 9.58324219 646.52299805 8.99023438 646.99365234 C7.85620543 647.89381169 6.72701884 648.80011606 5.60351562 649.71337891 C2.49642601 652.15452711 0.03260332 654.05825591 -4 654 C-6.54296875 652.41015625 -6.54296875 652.41015625 -9.1875 650.0625 C-10.15042969 649.22847656 -11.11335938 648.39445313 -12.10546875 647.53515625 C-13.06066406 646.69855469 -14.01585937 645.86195313 -15 645 C-16.65845856 643.65647078 -18.32476605 642.32255312 -20 641 C-24.79495107 637.17304375 -29.54985757 633.29942937 -34.28955078 629.40429688 C-36.31500549 627.74137717 -38.34319685 626.08181552 -40.37109375 624.421875 C-41.91415667 623.15636481 -43.45712539 621.89073976 -45 620.625 C-45.74258057 620.01769043 -46.48516113 619.41038086 -47.25024414 618.78466797 C-47.95141357 618.20861816 -48.65258301 617.63256836 -49.375 617.0390625 C-50.00148438 616.52553223 -50.62796875 616.01200195 -51.2734375 615.48291016 C-53 614 -53 614 -54.4140625 612.31005859 C-55.96743755 610.7958612 -55.96743755 610.7958612 -58.36230469 610.65722656 C-61.44880038 611.05832245 -63.46908224 612.00172493 -66.203125 613.484375 Z " fill="#FFFFFF" transform="translate(403,20)"/>
</svg>
