<svg version="1.1" id="Layer_1" xmlns="http://www.w3.org/2000/svg" xmlns:xlink="http://www.w3.org/1999/xlink" x="0px" y="0px"
	 width="100%" viewBox="0 0 800 798" enable-background="new 0 0 800 798" xml:space="preserve">
<path fill="#000000" opacity="1.000000" stroke="none" 
	d="
M801.000000,298.000000 
	C801.000000,465.333344 801.000000,632.166687 801.000000,799.000000 
	C534.333313,799.000000 267.666656,799.000000 1.000000,799.000000 
	C1.000000,533.000000 1.000000,267.000000 1.000000,1.000000 
	C267.666656,1.000000 534.333313,1.000000 801.000000,1.000000 
	C801.000000,99.833336 801.000000,198.666672 801.000000,298.000000 
M768.200623,361.290649 
	C761.300781,353.610565 754.790588,345.532318 747.426819,338.326324 
	C726.769470,318.111572 704.121887,300.306366 679.879944,284.570557 
	C675.973450,282.034821 674.492004,279.115234 675.500122,274.548096 
	C681.038086,249.459549 685.471558,224.152313 686.356323,198.454544 
	C687.071350,177.685104 686.954773,156.856506 686.305969,136.082291 
	C685.929504,124.028900 685.158386,123.778099 673.293335,122.500496 
	C643.731995,119.317368 614.024658,118.154289 584.538696,122.088989 
	C566.968262,124.433632 549.745544,129.447586 532.414001,133.466293 
	C528.898254,134.281494 526.206055,134.908493 523.921326,131.048737 
	C502.075897,94.143471 474.253662,62.192093 442.109894,34.009674 
	C430.739349,24.040455 418.392151,15.184647 406.481567,5.832320 
	C403.607697,3.575729 400.865417,3.622028 397.892029,5.939138 
	C386.201202,15.049550 373.859131,23.408712 362.775421,33.197803 
	C330.317535,61.864426 300.891937,93.321480 277.542419,130.053024 
	C275.611176,133.091080 273.362183,133.766068 269.938782,132.679001 
	C263.277863,130.563904 256.573303,128.479858 249.754288,126.989075 
	C229.194443,122.494247 208.358047,120.478035 187.313309,119.652382 
	C165.923553,118.813194 144.722412,119.936470 123.530724,122.598267 
	C118.813843,123.190720 116.928009,125.283745 116.863380,130.019699 
	C116.736168,139.342575 116.248833,148.662567 115.805450,157.978745 
	C114.067421,194.498230 116.934708,230.504501 127.040352,265.816772 
	C130.498123,277.899292 132.960922,276.157440 119.998871,284.980927 
	C75.998093,314.932922 39.689587,352.788696 7.120681,394.522400 
	C4.210029,398.252106 3.944432,401.300598 7.082671,405.119995 
	C18.078403,418.502411 28.311766,432.545563 39.792122,445.488495 
	C65.957169,474.986877 95.828392,500.105988 130.576736,519.106689 
	C137.256912,522.759460 137.412659,522.739929 135.379654,529.816833 
	C122.082184,576.105469 118.303284,623.412109 119.996582,671.331604 
	C120.146217,675.566223 121.678902,677.787964 126.063248,678.161621 
	C151.605026,680.338257 177.109222,683.059509 202.682739,684.729919 
	C227.064240,686.322449 251.258194,683.110107 275.350555,679.646484 
	C279.574768,679.039185 282.351074,680.220215 284.809021,683.468018 
	C288.829285,688.780212 293.014709,693.968811 297.183990,699.166565 
	C325.370758,734.306396 357.209015,765.667053 393.696899,792.189026 
	C401.748169,798.041199 401.960785,798.137634 409.797760,792.331970 
	C435.297119,773.441833 459.199615,752.671753 480.250031,728.912842 
	C492.932007,714.599121 504.469849,699.265564 516.365723,684.266541 
	C518.840698,681.145935 521.655640,680.029053 525.443054,680.511536 
	C532.383362,681.395752 539.324158,682.303284 546.285767,682.987976 
	C575.727356,685.883606 605.190674,685.450989 634.610229,682.868530 
	C649.204346,681.587402 663.724243,679.465027 678.280640,677.747925 
	C682.211670,677.284241 684.858215,675.757324 684.827209,671.212158 
	C684.712158,654.385010 685.337830,637.525513 684.506409,620.736511 
	C682.975769,589.829712 677.024902,559.605591 668.488647,529.878784 
	C666.764038,523.872864 668.058167,521.007263 673.416138,517.895813 
	C722.510986,489.386169 762.444214,451.026245 795.166138,404.864014 
	C797.684265,401.311615 797.895325,398.531036 795.096985,395.082397 
	C786.175537,384.087799 777.449707,372.934448 768.200623,361.290649 
z"/>
<path fill="#1D1D1D" opacity="1.000000" stroke="none" 
	d="
M768.424438,361.566528 
	C777.449707,372.934448 786.175537,384.087799 795.096985,395.082397 
	C797.895325,398.531036 797.684265,401.311615 795.166138,404.864014 
	C762.444214,451.026245 722.510986,489.386169 673.416138,517.895813 
	C668.058167,521.007263 666.764038,523.872864 668.488647,529.878784 
	C677.024902,559.605591 682.975769,589.829712 684.506409,620.736511 
	C685.337830,637.525513 684.712158,654.385010 684.827209,671.212158 
	C684.858215,675.757324 682.211670,677.284241 678.280640,677.747925 
	C663.724243,679.465027 649.204346,681.587402 634.610229,682.868530 
	C605.190674,685.450989 575.727356,685.883606 546.285767,682.987976 
	C539.324158,682.303284 532.383362,681.395752 525.443054,680.511536 
	C521.655640,680.029053 518.840698,681.145935 516.365723,684.266541 
	C504.469849,699.265564 492.932007,714.599121 480.250031,728.912842 
	C459.199615,752.671753 435.297119,773.441833 409.797760,792.331970 
	C401.960785,798.137634 401.748169,798.041199 393.696899,792.189026 
	C357.209015,765.667053 325.370758,734.306396 297.183990,699.166565 
	C293.014709,693.968811 288.829285,688.780212 284.809021,683.468018 
	C282.351074,680.220215 279.574768,679.039185 275.350555,679.646484 
	C251.258194,683.110107 227.064240,686.322449 202.682739,684.729919 
	C177.109222,683.059509 151.605026,680.338257 126.063248,678.161621 
	C121.678902,677.787964 120.146217,675.566223 119.996582,671.331604 
	C118.303284,623.412109 122.082184,576.105469 135.379654,529.816833 
	C137.412659,522.739929 137.256912,522.759460 130.576736,519.106689 
	C95.828392,500.105988 65.957169,474.986877 39.792122,445.488495 
	C28.311766,432.545563 18.078403,418.502411 7.082671,405.119995 
	C3.944432,401.300598 4.210029,398.252106 7.120681,394.522400 
	C39.689587,352.788696 75.998093,314.932922 119.998871,284.980927 
	C132.960922,276.157440 130.498123,277.899292 127.040352,265.816772 
	C116.934708,230.504501 114.067421,194.498230 115.805450,157.978745 
	C116.248833,148.662567 116.736168,139.342575 116.863380,130.019699 
	C116.928009,125.283745 118.813843,123.190720 123.530724,122.598267 
	C144.722412,119.936470 165.923553,118.813194 187.313309,119.652382 
	C208.358047,120.478035 229.194443,122.494247 249.754288,126.989075 
	C256.573303,128.479858 263.277863,130.563904 269.938782,132.679001 
	C273.362183,133.766068 275.611176,133.091080 277.542419,130.053024 
	C300.891937,93.321480 330.317535,61.864426 362.775421,33.197803 
	C373.859131,23.408712 386.201202,15.049550 397.892029,5.939138 
	C400.865417,3.622028 403.607697,3.575729 406.481567,5.832320 
	C418.392151,15.184647 430.739349,24.040455 442.109894,34.009674 
	C474.253662,62.192093 502.075897,94.143471 523.921326,131.048737 
	C526.206055,134.908493 528.898254,134.281494 532.414001,133.466293 
	C549.745544,129.447586 566.968262,124.433632 584.538696,122.088989 
	C614.024658,118.154289 643.731995,119.317368 673.293335,122.500496 
	C685.158386,123.778099 685.929504,124.028900 686.305969,136.082291 
	C686.954773,156.856506 687.071350,177.685104 686.356323,198.454544 
	C685.471558,224.152313 681.038086,249.459549 675.500122,274.548096 
	C674.492004,279.115234 675.973450,282.034821 679.879944,284.570557 
	C704.121887,300.306366 726.769470,318.111572 747.426819,338.326324 
	C754.790588,345.532318 761.300781,353.610565 768.424438,361.566528 
M170.937042,506.480408 
	C169.104324,511.130096 167.372238,515.822388 165.423218,520.422791 
	C147.771484,562.087097 142.852829,605.830811 144.011978,650.590027 
	C144.115692,654.594849 145.638046,656.768311 149.824799,657.100952 
	C165.259567,658.327271 180.666733,660.466919 196.116882,660.814758 
	C227.157120,661.513611 258.056732,659.267944 288.560364,653.088745 
	C292.796387,652.230713 295.208069,653.548401 297.719482,656.968872 
	C308.169250,671.200745 318.652985,685.426636 329.669006,699.219604 
	C349.091827,723.538696 371.131592,745.225769 396.240570,763.744934 
	C400.277496,766.722351 403.431671,767.008850 407.240936,763.629517 
	C419.071472,753.133911 431.441772,743.214539 442.868866,732.303162 
	C465.744843,710.459839 484.755219,685.328735 502.625427,659.344421 
	C505.625305,654.982422 508.830750,653.686340 513.952637,654.572693 
	C522.643982,656.076782 531.424011,657.524475 540.214111,657.906311 
	C557.991150,658.678650 575.804993,659.156494 593.594177,658.947815 
	C613.213196,658.717773 632.828247,657.718201 652.431458,656.772461 
	C660.219543,656.396790 661.408447,655.071472 660.905884,647.167725 
	C659.775574,629.388245 658.747620,611.578857 656.783142,593.880920 
	C653.142883,561.085632 645.683167,529.100220 631.973328,498.993896 
	C615.760254,463.390686 591.357727,433.846069 561.867554,408.370026 
	C559.112305,405.989838 556.847351,406.475983 554.675354,409.228180 
	C548.382507,417.201874 542.027466,425.126526 535.694885,433.068878 
	C527.789124,442.984406 527.768982,443.002747 536.758423,452.115814 
	C554.318726,469.917633 565.500000,491.251770 571.116089,515.447510 
	C579.778687,552.768677 577.434082,590.223938 571.752319,627.672180 
	C571.050659,632.296692 568.097778,633.594604 564.034729,633.784729 
	C537.274597,635.037170 511.161743,632.753296 486.370850,621.277161 
	C475.004791,616.015442 477.358551,615.512634 469.906342,625.214355 
	C451.058105,649.752136 429.811646,672.001953 406.762054,692.582642 
	C401.577484,697.211853 401.124420,697.340149 396.050598,692.693787 
	C390.154572,687.294617 384.117859,681.991821 378.720856,676.115662 
	C361.829254,657.724609 345.070343,639.205688 328.617004,620.423645 
	C325.730530,617.128662 323.735626,616.629578 319.820221,618.044556 
	C307.307190,622.566711 294.803986,627.281616 281.977631,630.736633 
	C255.814896,637.783813 229.169815,636.571045 202.526276,633.884766 
	C198.248260,633.453430 196.085190,631.397827 196.189499,627.183350 
	C196.387192,619.196716 196.312897,611.173157 197.090454,603.237305 
	C198.886322,584.908081 202.619995,567.024536 210.755585,550.282288 
	C212.342880,547.015808 214.329956,545.662109 218.119293,545.824585 
	C226.436951,546.181213 234.791092,546.306213 243.107391,545.965393 
	C275.378632,544.643127 305.385986,535.510437 333.177246,519.115417 
	C338.862579,515.761536 339.220093,512.635132 334.534973,508.028107 
	C328.122101,501.722168 321.231476,495.876892 315.111511,489.307037 
	C310.857117,484.739929 306.986877,484.417542 301.012024,485.946503 
	C287.682007,489.357758 274.088257,492.789673 260.438324,493.666656 
	C236.644592,495.195343 214.190186,488.960052 193.505249,476.954895 
	C189.910782,474.868744 187.585342,475.596497 185.730942,479.007050 
	C180.882980,487.923248 176.054214,496.849884 170.937042,506.480408 
M429.433990,124.066330 
	C440.027252,136.455338 450.712524,148.767395 461.165192,161.273880 
	C464.966003,165.821503 465.789398,165.992035 470.952026,162.653183 
	C478.623901,157.691513 486.291382,152.641541 494.373657,148.419601 
	C502.004669,144.433350 503.013245,142.647278 497.949921,135.705002 
	C471.440063,99.357262 442.114899,65.660248 406.155731,38.175011 
	C402.576172,35.438984 399.865143,35.140610 396.528137,38.066208 
	C383.387177,49.587112 369.732605,60.565193 357.110687,72.625969 
	C332.798676,95.857109 312.041443,122.043900 294.503204,150.793350 
	C268.336487,193.687073 254.836395,240.032013 256.002350,290.410553 
	C256.425049,308.673889 260.171844,326.127380 270.166473,341.777161 
	C273.916168,347.648468 275.760651,347.883179 280.536926,343.113586 
	C289.376678,334.286163 298.054718,325.296844 306.888062,316.462891 
	C309.375549,313.975250 309.846283,311.656982 308.000244,308.497437 
	C296.095367,288.121948 294.459656,266.538025 301.808350,244.437469 
	C306.475708,230.400818 311.812866,216.532700 317.745239,202.981049 
	C335.300232,162.879242 363.054535,130.714767 396.642517,103.201393 
	C400.096069,100.372414 402.859619,100.244141 406.191559,103.300697 
	C413.673004,110.163818 421.340240,116.824432 429.433990,124.066330 
M235.920197,148.623779 
	C225.033020,147.219131 214.166809,144.863098 203.253998,144.622772 
	C184.808411,144.216568 166.332794,145.123138 147.871124,145.537094 
	C143.341324,145.638657 140.805664,147.776138 140.835541,152.652466 
	C140.939438,169.610413 140.193176,186.609863 141.128769,203.518341 
	C142.731506,232.483917 149.167923,260.480347 160.296646,287.389282 
	C175.333374,323.747681 195.791336,356.319031 225.315018,382.779755 
	C230.635376,387.548187 233.174942,387.849030 238.553741,383.000458 
	C243.871124,378.207184 248.937149,373.135712 254.233246,368.317963 
	C257.894745,364.987183 258.052917,361.893860 254.877518,357.990540 
	C247.006729,348.315521 241.481766,337.332825 237.883606,325.402344 
	C228.721909,295.024689 230.867416,264.450714 236.622421,233.887299 
	C241.335327,208.858215 249.843277,185.054916 260.605286,162.015366 
	C263.193909,156.473618 262.588989,155.110077 256.676178,153.518875 
	C250.086792,151.745636 243.396912,150.345886 235.920197,148.623779 
M645.048950,288.494324 
	C649.207703,271.867737 653.996704,255.368301 657.382263,238.585754 
	C662.908325,211.192139 664.136108,183.391754 662.841675,155.494644 
	C662.415833,146.316559 661.289734,145.239044 652.060730,145.130920 
	C636.416504,144.947678 620.766602,144.688568 605.125549,144.911453 
	C571.794800,145.386383 540.238098,152.909729 510.352783,168.077347 
	C478.312866,184.338501 450.168915,205.505554 425.790558,231.798477 
	C421.622192,236.294159 421.681152,237.253738 425.991943,241.680557 
	C432.267761,248.125320 438.513336,254.599503 444.793671,261.039856 
	C448.373352,264.710724 450.543701,264.560150 454.006378,261.086884 
	C460.937592,254.134476 467.682037,246.935745 475.125641,240.565536 
	C497.922302,221.056198 523.691895,207.408920 553.426392,201.605453 
	C571.783386,198.022629 590.266846,199.084778 608.740234,199.005646 
	C612.586365,198.989166 613.949280,201.125320 614.212891,204.640396 
	C615.687317,224.299637 616.162354,243.996017 612.683289,263.449432 
	C605.856201,301.624207 595.655151,338.837891 579.104797,374.095703 
	C577.903198,376.655640 576.675659,379.268768 576.010681,381.991577 
	C575.587952,383.722473 576.183044,385.701996 576.321777,387.569977 
	C578.046143,386.962341 580.129150,386.771240 581.419678,385.659851 
	C584.054443,383.390839 586.205627,380.570465 588.655640,378.074982 
	C613.763794,352.499969 632.996216,323.216370 645.048950,288.494324 
M548.804382,560.431946 
	C546.812622,560.298157 544.822754,560.109924 542.828735,560.038635 
	C509.045380,558.831055 478.529266,548.215149 452.916779,526.125305 
	C432.002441,508.087433 412.202240,488.738983 392.217072,469.648102 
	C374.993988,453.195679 358.131073,436.362701 341.285370,419.521454 
	C337.525208,415.762299 334.565247,416.164490 331.146698,419.583038 
	C325.374237,425.355377 319.508942,431.034760 313.709229,436.779968 
	C304.595306,445.808105 304.866364,445.546814 314.256531,454.628510 
	C331.855957,471.649933 349.425293,488.723053 366.441711,506.321381 
	C385.559265,526.092712 404.499115,545.970520 426.521118,562.642029 
	C450.750824,580.984863 478.209290,592.818420 506.548248,602.929321 
	C518.416748,607.163818 530.617859,609.479126 543.305420,608.969055 
	C547.560547,608.798035 549.804321,607.059937 550.031006,602.725769 
	C550.656738,590.762085 551.476318,578.806335 551.891296,566.836121 
	C551.960999,564.826660 550.393921,562.760437 548.804382,560.431946 
M120.733757,315.224854 
	C117.517616,317.598999 114.274239,319.937256 111.089592,322.352936 
	C82.741745,343.855743 60.256958,371.221222 36.315434,397.131897 
	C34.036518,399.598236 34.239967,401.764221 36.523544,404.068481 
	C39.922939,407.498718 43.221439,411.028717 46.582794,414.496948 
	C62.564850,430.986938 78.094360,447.950989 94.683907,463.805664 
	C108.184677,476.708374 123.733780,487.169189 140.178589,496.176666 
	C144.128784,498.340332 146.930008,497.905792 149.317276,493.853027 
	C153.796112,486.249420 158.454803,478.749023 163.161621,471.283203 
	C167.180023,464.909332 167.103470,463.868042 160.941895,459.634064 
	C139.048782,444.590118 120.499817,426.070831 104.014572,405.344574 
	C101.304901,401.937775 101.463631,399.272705 104.162636,396.108856 
	C109.782150,389.521576 114.870911,382.444000 120.839020,376.199951 
	C131.116180,365.447540 141.303299,354.453766 152.749130,345.046844 
	C157.623123,341.041138 157.047226,338.695068 155.007126,334.545593 
	C150.748322,325.883331 146.440292,317.242188 142.378845,308.487366 
	C140.570099,304.588440 138.327072,303.434570 134.614594,305.935608 
	C130.194809,308.913116 125.751518,311.855713 120.733757,315.224854 
M674.937744,367.562347 
	C682.555420,376.598236 690.163940,385.641785 697.795044,394.666321 
	C700.985840,398.439728 701.122131,401.702087 697.322021,405.483765 
	C686.227295,416.524658 675.576416,428.012543 664.445190,439.015228 
	C658.057556,445.329071 651.085632,451.052948 644.355103,457.017914 
	C641.917297,459.178406 640.473877,461.261566 642.461426,464.756378 
	C647.477295,473.575806 652.320557,482.501862 656.930054,491.539703 
	C658.695862,495.002075 660.721191,495.937378 664.035034,494.039154 
	C668.802307,491.308380 673.678040,488.741913 678.287476,485.764801 
	C711.530212,464.294250 738.971741,436.565430 764.016846,406.232910 
	C767.297913,402.259064 766.389099,399.184448 763.550476,395.635834 
	C748.137268,376.367004 732.608521,357.142303 713.546265,341.321747 
	C700.110474,330.170776 685.888550,319.965607 671.989441,309.375122 
	C668.872070,306.999817 666.058960,306.482330 663.916626,310.789917 
	C659.317810,320.036530 654.618408,329.234070 649.865784,338.402710 
	C647.848999,342.293549 648.593079,345.080841 652.063232,347.898804 
	C659.684631,354.087860 667.003235,360.649658 674.937744,367.562347 
M358.567230,308.945374 
	C354.435638,304.535278 353.914154,304.606384 349.497070,308.907837 
	C316.815613,340.733704 284.045410,372.468750 251.466705,404.399323 
	C246.796417,408.976746 243.041473,414.482025 238.775101,419.482941 
	C237.952515,420.447174 236.772949,421.149750 235.664566,421.817993 
	C233.575470,423.077393 230.952011,423.789215 229.366898,425.489563 
	C220.520844,434.978546 211.889786,444.669189 203.250153,454.348785 
	C200.260773,457.697998 201.410416,460.403595 205.349594,461.435577 
	C219.165222,465.054993 233.016129,468.567383 246.958847,471.643494 
	C248.998062,472.093384 252.278702,470.583740 253.846115,468.912659 
	C264.423401,457.635712 274.344879,445.730377 285.138245,434.672241 
	C305.724396,413.581085 326.753937,392.922821 347.593750,372.079163 
	C357.484070,362.186981 367.388611,352.308746 377.232178,342.370209 
	C381.775238,337.783356 381.774231,335.708618 377.672455,330.993103 
	C371.444366,323.833160 365.243195,316.649750 358.567230,308.945374 
M385.926880,237.570923 
	C374.134613,226.052429 362.295959,214.580795 350.582245,202.982941 
	C347.604767,200.034897 345.560120,200.373779 343.632904,203.926392 
	C333.653168,222.323074 325.215149,241.282898 322.466400,262.289917 
	C321.373169,270.644928 321.613678,278.943024 324.753632,286.900177 
	C327.238922,293.198364 329.975342,293.905457 335.066559,289.600220 
	C340.151123,285.300568 345.196014,280.944794 350.083496,276.424591 
	C353.216980,273.526520 355.490326,273.860107 358.461273,276.904388 
	C381.247833,300.253113 404.160492,323.479004 427.093109,346.684662 
	C430.128418,349.756073 433.442688,352.561737 436.728821,355.372345 
	C439.398254,357.655487 441.962646,357.618347 444.672943,355.046173 
	C452.643097,347.482330 460.800232,340.115814 468.795441,332.577942 
	C474.778259,326.937286 474.695374,325.804535 468.870758,320.246948 
	C460.436920,312.199829 451.894897,304.258392 443.667206,296.004517 
	C424.502197,276.778503 405.497284,257.392853 385.926880,237.570923 
M469.007812,443.507751 
	C459.677490,452.539551 450.300598,461.524231 441.062347,470.649261 
	C439.511688,472.180908 437.877228,474.181091 437.466095,476.205383 
	C436.397430,481.467499 441.114929,483.368500 444.429016,485.293213 
	C446.026154,486.220856 449.246033,484.930634 451.472595,484.015564 
	C453.242401,483.288177 454.663300,481.654816 456.164062,480.338135 
	C478.349091,460.874725 499.272705,440.143677 518.498047,417.742432 
	C533.818787,399.890717 548.129517,381.239380 559.231506,360.434509 
	C577.537048,326.130310 586.124329,288.915466 590.800720,250.654144 
	C591.565491,244.397095 591.752930,238.025406 591.638611,231.717010 
	C591.516846,224.999588 590.110413,223.842346 583.543945,223.914017 
	C578.720947,223.966660 573.874146,224.075714 569.086731,224.602692 
	C562.492554,225.328583 562.214050,226.444977 562.575195,232.992889 
	C563.416504,248.248810 564.819336,263.576233 564.129517,278.790070 
	C563.098938,301.518311 553.808167,322.078461 543.836792,342.106934 
	C524.953369,380.036194 499.505035,413.219696 469.007812,443.507751 
M300.643646,601.212158 
	C309.954041,597.599243 319.408478,594.314331 328.544067,590.303284 
	C346.055298,582.614990 361.801300,572.084473 376.066284,559.351929 
	C378.234863,557.416260 380.585419,555.408264 377.405731,552.391235 
	C371.126282,546.432922 364.799042,540.523743 358.592041,534.490906 
	C355.724731,531.704102 353.383148,531.861145 349.854828,533.943481 
	C338.552887,540.613342 327.288483,547.556763 315.328705,552.858826 
	C289.641663,564.246582 262.406097,569.628296 234.366745,570.749451 
	C229.570953,570.941223 226.788620,572.955444 225.784897,577.394470 
	C223.914581,585.666016 222.001724,593.940613 220.555984,602.291748 
	C219.145218,610.440918 220.514114,611.571777 228.623016,611.907104 
	C253.054306,612.917542 276.722443,608.947571 300.643646,601.212158 
M430.759888,634.247681 
	C436.905304,626.806519 443.136963,619.434265 449.164612,611.898865 
	C452.940765,607.178223 452.281952,605.639038 447.327667,602.576660 
	C432.918213,593.669922 418.510986,584.741394 404.431671,575.329590 
	C400.172363,572.482300 397.397308,572.651184 393.404419,575.530518 
	C380.201294,585.051636 366.745972,594.224670 353.329376,603.446899 
	C349.474182,606.096863 348.729553,608.502991 351.836761,611.958679 
	C366.740814,628.534485 381.818298,644.954346 396.742371,661.512329 
	C399.909973,665.026794 402.417694,664.488037 405.380188,661.282837 
	C413.609619,652.379211 421.986359,643.611755 430.759888,634.247681 
M471.887238,410.386719 
	C484.244965,396.415924 496.536011,382.385193 509.006134,368.515442 
	C512.225647,364.934570 512.286194,361.907959 508.926636,358.588623 
	C505.134491,354.841919 501.485901,350.947296 497.634277,347.264038 
	C492.565582,342.416840 491.171661,342.381805 486.095520,347.496368 
	C478.704620,354.943115 471.603424,362.677460 464.211639,370.123291 
	C443.079742,391.409607 421.854919,412.603607 400.687622,433.854797 
	C396.249542,438.310516 396.292938,439.586121 400.616943,444.185913 
	C404.496155,448.312592 408.302338,452.509003 412.228851,456.589905 
	C418.289612,462.889008 419.220856,462.992371 425.434723,456.832672 
	C440.818634,441.582886 456.083984,426.213440 471.887238,410.386719 
M496.609283,312.894104 
	C503.066925,320.054138 509.508148,327.229004 515.988770,334.368164 
	C519.444580,338.175110 521.070801,338.045197 523.392273,333.537201 
	C538.903748,303.415833 544.858093,271.772919 538.392029,238.185974 
	C537.521606,233.664673 535.983704,232.725647 531.890503,234.519409 
	C528.231873,236.122742 524.654663,237.918243 521.080322,239.706635 
	C501.018005,249.744904 485.203247,265.546417 467.738983,279.106781 
	C464.384277,281.711609 465.742432,284.101532 468.344696,286.502899 
	C477.645355,295.085327 486.854919,303.766418 496.609283,312.894104 
M378.474701,154.975418 
	C372.884796,161.566849 367.293152,168.156799 361.705719,174.750366 
	C359.232819,177.668594 359.696503,179.784866 362.893616,182.115646 
	C368.126007,185.930191 373.237366,189.988510 377.947174,194.424545 
	C385.700470,201.727295 393.125336,209.381104 400.620453,216.954407 
	C403.684906,220.050812 406.344086,220.155792 409.523102,216.926270 
	C420.033936,206.248535 430.656830,195.679184 441.359283,185.193329 
	C444.293793,182.318207 445.538574,179.428055 442.548065,176.127579 
	C430.380402,162.698837 418.134613,149.340515 405.860931,136.008438 
	C402.832916,132.719299 399.987183,133.315155 396.977631,136.455994 
	C391.104736,142.585052 384.988281,148.480682 378.474701,154.975418 
M499.114929,472.605316 
	C489.173981,481.479950 479.158600,490.273224 469.326294,499.266663 
	C464.992432,503.230713 465.258087,505.959991 470.043152,509.323212 
	C474.399414,512.385071 478.804352,515.430481 483.441467,518.030823 
	C501.489777,528.151672 521.354187,532.333435 541.534729,535.411682 
	C548.844482,536.526611 551.302734,534.467896 549.140503,527.278687 
	C545.843384,516.315674 542.526672,505.146332 537.349976,495.019684 
	C532.017456,484.588226 524.726318,475.095825 517.748108,465.592010 
	C513.781555,460.189789 512.177979,460.535065 507.413971,465.087433 
	C504.886566,467.502594 502.238800,469.791779 499.114929,472.605316 
M156.635925,424.872986 
	C163.055283,430.175842 169.435364,435.527313 175.909790,440.762085 
	C179.390656,443.576477 182.307037,443.024902 185.322937,439.503418 
	C193.662537,429.765778 202.173920,420.167572 210.866974,410.744507 
	C213.960907,407.390808 213.898148,404.942657 210.599762,401.961212 
	C206.283524,398.059723 202.014374,394.075104 198.046997,389.825562 
	C190.885834,382.155151 183.948715,374.274994 176.949326,366.454407 
	C174.407104,363.613892 171.745819,362.209137 168.439941,365.303040 
	C157.251419,375.774170 146.068619,386.251373 134.873840,396.715820 
	C131.735138,399.649750 132.005295,402.132385 135.244888,405.016968 
	C142.333160,411.328552 149.168915,417.923767 156.635925,424.872986 
M660.043213,411.545410 
	C662.977722,408.593567 665.920593,405.650024 668.843811,402.687073 
	C670.869812,400.633484 670.830383,398.608795 668.678284,396.657715 
	C658.443298,387.378662 648.210754,378.096893 637.970642,368.823456 
	C634.475220,365.657898 631.343262,365.892517 628.074097,369.428772 
	C618.472046,379.815338 608.780579,390.121460 598.987488,400.327942 
	C595.763977,403.687469 595.960876,406.374786 599.064636,409.732239 
	C606.632690,417.918793 613.967712,426.322021 621.341919,434.686096 
	C625.246826,439.115082 626.735596,439.615173 631.334412,435.875885 
	C640.883179,428.111877 650.154785,420.006958 660.043213,411.545410 
M395.923950,406.431519 
	C403.773987,398.271576 411.628052,390.115509 419.472290,381.950073 
	C423.602386,377.650848 423.834198,376.379059 419.612000,371.931732 
	C414.690216,366.747528 409.349670,361.959351 404.161743,357.029968 
	C401.962250,354.940094 399.689789,355.048004 397.528107,357.107544 
	C384.026154,369.971527 370.531158,382.842896 357.045990,395.724518 
	C353.848358,398.778961 354.092957,401.708984 357.299042,404.681183 
	C363.281921,410.227539 369.200104,415.844330 375.102448,421.476624 
	C377.851746,424.100189 380.212341,423.930511 382.718567,421.040466 
	C386.863647,416.260468 391.184906,411.633301 395.923950,406.431519 
M283.166901,472.351013 
	C285.965118,472.037109 288.808105,471.935303 291.550507,471.356812 
	C295.169708,470.593353 295.759064,468.645996 293.336060,465.699341 
	C289.581299,461.133209 286.857483,461.067810 280.187439,466.129395 
	C278.660645,467.288025 277.781464,469.300079 276.604218,470.919373 
	C278.519196,471.433960 280.434204,471.948547 283.166901,472.351013 
z"/>
<path fill="#000000" opacity="1.000000" stroke="none" 
	d="
M171.077408,506.126373 
	C176.054214,496.849884 180.882980,487.923248 185.730942,479.007050 
	C187.585342,475.596497 189.910782,474.868744 193.505249,476.954895 
	C214.190186,488.960052 236.644592,495.195343 260.438324,493.666656 
	C274.088257,492.789673 287.682007,489.357758 301.012024,485.946503 
	C306.986877,484.417542 310.857117,484.739929 315.111511,489.307037 
	C321.231476,495.876892 328.122101,501.722168 334.534973,508.028107 
	C339.220093,512.635132 338.862579,515.761536 333.177246,519.115417 
	C305.385986,535.510437 275.378632,544.643127 243.107391,545.965393 
	C234.791092,546.306213 226.436951,546.181213 218.119293,545.824585 
	C214.329956,545.662109 212.342880,547.015808 210.755585,550.282288 
	C202.619995,567.024536 198.886322,584.908081 197.090454,603.237305 
	C196.312897,611.173157 196.387192,619.196716 196.189499,627.183350 
	C196.085190,631.397827 198.248260,633.453430 202.526276,633.884766 
	C229.169815,636.571045 255.814896,637.783813 281.977631,630.736633 
	C294.803986,627.281616 307.307190,622.566711 319.820221,618.044556 
	C323.735626,616.629578 325.730530,617.128662 328.617004,620.423645 
	C345.070343,639.205688 361.829254,657.724609 378.720856,676.115662 
	C384.117859,681.991821 390.154572,687.294617 396.050598,692.693787 
	C401.124420,697.340149 401.577484,697.211853 406.762054,692.582642 
	C429.811646,672.001953 451.058105,649.752136 469.906342,625.214355 
	C477.358551,615.512634 475.004791,616.015442 486.370850,621.277161 
	C511.161743,632.753296 537.274597,635.037170 564.034729,633.784729 
	C568.097778,633.594604 571.050659,632.296692 571.752319,627.672180 
	C577.434082,590.223938 579.778687,552.768677 571.116089,515.447510 
	C565.500000,491.251770 554.318726,469.917633 536.758423,452.115814 
	C527.768982,443.002747 527.789124,442.984406 535.694885,433.068878 
	C542.027466,425.126526 548.382507,417.201874 554.675354,409.228180 
	C556.847351,406.475983 559.112305,405.989838 561.867554,408.370026 
	C591.357727,433.846069 615.760254,463.390686 631.973328,498.993896 
	C645.683167,529.100220 653.142883,561.085632 656.783142,593.880920 
	C658.747620,611.578857 659.775574,629.388245 660.905884,647.167725 
	C661.408447,655.071472 660.219543,656.396790 652.431458,656.772461 
	C632.828247,657.718201 613.213196,658.717773 593.594177,658.947815 
	C575.804993,659.156494 557.991150,658.678650 540.214111,657.906311 
	C531.424011,657.524475 522.643982,656.076782 513.952637,654.572693 
	C508.830750,653.686340 505.625305,654.982422 502.625427,659.344421 
	C484.755219,685.328735 465.744843,710.459839 442.868866,732.303162 
	C431.441772,743.214539 419.071472,753.133911 407.240936,763.629517 
	C403.431671,767.008850 400.277496,766.722351 396.240570,763.744934 
	C371.131592,745.225769 349.091827,723.538696 329.669006,699.219604 
	C318.652985,685.426636 308.169250,671.200745 297.719482,656.968872 
	C295.208069,653.548401 292.796387,652.230713 288.560364,653.088745 
	C258.056732,659.267944 227.157120,661.513611 196.116882,660.814758 
	C180.666733,660.466919 165.259567,658.327271 149.824799,657.100952 
	C145.638046,656.768311 144.115692,654.594849 144.011978,650.590027 
	C142.852829,605.830811 147.771484,562.087097 165.423218,520.422791 
	C167.372238,515.822388 169.104324,511.130096 171.077408,506.126373 
z"/>
<path fill="#000000" opacity="1.000000" stroke="none" 
	d="
M429.182922,123.816910 
	C421.340240,116.824432 413.673004,110.163818 406.191559,103.300697 
	C402.859619,100.244141 400.096069,100.372414 396.642517,103.201393 
	C363.054535,130.714767 335.300232,162.879242 317.745239,202.981049 
	C311.812866,216.532700 306.475708,230.400818 301.808350,244.437469 
	C294.459656,266.538025 296.095367,288.121948 308.000244,308.497437 
	C309.846283,311.656982 309.375549,313.975250 306.888062,316.462891 
	C298.054718,325.296844 289.376678,334.286163 280.536926,343.113586 
	C275.760651,347.883179 273.916168,347.648468 270.166473,341.777161 
	C260.171844,326.127380 256.425049,308.673889 256.002350,290.410553 
	C254.836395,240.032013 268.336487,193.687073 294.503204,150.793350 
	C312.041443,122.043900 332.798676,95.857109 357.110687,72.625969 
	C369.732605,60.565193 383.387177,49.587112 396.528137,38.066208 
	C399.865143,35.140610 402.576172,35.438984 406.155731,38.175011 
	C442.114899,65.660248 471.440063,99.357262 497.949921,135.705002 
	C503.013245,142.647278 502.004669,144.433350 494.373657,148.419601 
	C486.291382,152.641541 478.623901,157.691513 470.952026,162.653183 
	C465.789398,165.992035 464.966003,165.821503 461.165192,161.273880 
	C450.712524,148.767395 440.027252,136.455338 429.182922,123.816910 
z"/>
<path fill="#000000" opacity="1.000000" stroke="none" 
	d="
M236.335480,148.703674 
	C243.396912,150.345886 250.086792,151.745636 256.676178,153.518875 
	C262.588989,155.110077 263.193909,156.473618 260.605286,162.015366 
	C249.843277,185.054916 241.335327,208.858215 236.622421,233.887299 
	C230.867416,264.450714 228.721909,295.024689 237.883606,325.402344 
	C241.481766,337.332825 247.006729,348.315521 254.877518,357.990540 
	C258.052917,361.893860 257.894745,364.987183 254.233246,368.317963 
	C248.937149,373.135712 243.871124,378.207184 238.553741,383.000458 
	C233.174942,387.849030 230.635376,387.548187 225.315018,382.779755 
	C195.791336,356.319031 175.333374,323.747681 160.296646,287.389282 
	C149.167923,260.480347 142.731506,232.483917 141.128769,203.518341 
	C140.193176,186.609863 140.939438,169.610413 140.835541,152.652466 
	C140.805664,147.776138 143.341324,145.638657 147.871124,145.537094 
	C166.332794,145.123138 184.808411,144.216568 203.253998,144.622772 
	C214.166809,144.863098 225.033020,147.219131 236.335480,148.703674 
z"/>
<path fill="#000000" opacity="1.000000" stroke="none" 
	d="
M644.932129,288.868591 
	C632.996216,323.216370 613.763794,352.499969 588.655640,378.074982 
	C586.205627,380.570465 584.054443,383.390839 581.419678,385.659851 
	C580.129150,386.771240 578.046143,386.962341 576.321777,387.570007 
	C576.183044,385.701996 575.587952,383.722473 576.010681,381.991577 
	C576.675659,379.268768 577.903198,376.655640 579.104797,374.095703 
	C595.655151,338.837891 605.856201,301.624207 612.683289,263.449432 
	C616.162354,243.996017 615.687317,224.299637 614.212891,204.640396 
	C613.949280,201.125320 612.586365,198.989166 608.740234,199.005646 
	C590.266846,199.084778 571.783386,198.022629 553.426392,201.605453 
	C523.691895,207.408920 497.922302,221.056198 475.125641,240.565536 
	C467.682037,246.935745 460.937592,254.134476 454.006378,261.086884 
	C450.543701,264.560150 448.373352,264.710724 444.793671,261.039856 
	C438.513336,254.599503 432.267761,248.125320 425.991943,241.680557 
	C421.681152,237.253738 421.622192,236.294159 425.790558,231.798477 
	C450.168915,205.505554 478.312866,184.338501 510.352783,168.077347 
	C540.238098,152.909729 571.794800,145.386383 605.125549,144.911453 
	C620.766602,144.688568 636.416504,144.947678 652.060730,145.130920 
	C661.289734,145.239044 662.415833,146.316559 662.841675,155.494644 
	C664.136108,183.391754 662.908325,211.192139 657.382263,238.585754 
	C653.996704,255.368301 649.207703,271.867737 644.932129,288.868591 
z"/>
<path fill="#000000" opacity="1.000000" stroke="none" 
	d="
M549.193787,560.576172 
	C550.393921,562.760437 551.960999,564.826660 551.891296,566.836121 
	C551.476318,578.806335 550.656738,590.762085 550.031006,602.725769 
	C549.804321,607.059937 547.560547,608.798035 543.305420,608.969055 
	C530.617859,609.479126 518.416748,607.163818 506.548248,602.929321 
	C478.209290,592.818420 450.750824,580.984863 426.521118,562.642029 
	C404.499115,545.970520 385.559265,526.092712 366.441711,506.321381 
	C349.425293,488.723053 331.855957,471.649933 314.256531,454.628510 
	C304.866364,445.546814 304.595306,445.808105 313.709229,436.779968 
	C319.508942,431.034760 325.374237,425.355377 331.146698,419.583038 
	C334.565247,416.164490 337.525208,415.762299 341.285370,419.521454 
	C358.131073,436.362701 374.993988,453.195679 392.217072,469.648102 
	C412.202240,488.738983 432.002441,508.087433 452.916779,526.125305 
	C478.529266,548.215149 509.045380,558.831055 542.828735,560.038635 
	C544.822754,560.109924 546.812622,560.298157 549.193787,560.576172 
z"/>
<path fill="#000000" opacity="1.000000" stroke="none" 
	d="
M121.026085,315.019165 
	C125.751518,311.855713 130.194809,308.913116 134.614594,305.935608 
	C138.327072,303.434570 140.570099,304.588440 142.378845,308.487366 
	C146.440292,317.242188 150.748322,325.883331 155.007126,334.545593 
	C157.047226,338.695068 157.623123,341.041138 152.749130,345.046844 
	C141.303299,354.453766 131.116180,365.447540 120.839020,376.199951 
	C114.870911,382.444000 109.782150,389.521576 104.162636,396.108856 
	C101.463631,399.272705 101.304901,401.937775 104.014572,405.344574 
	C120.499817,426.070831 139.048782,444.590118 160.941895,459.634064 
	C167.103470,463.868042 167.180023,464.909332 163.161621,471.283203 
	C158.454803,478.749023 153.796112,486.249420 149.317276,493.853027 
	C146.930008,497.905792 144.128784,498.340332 140.178589,496.176666 
	C123.733780,487.169189 108.184677,476.708374 94.683907,463.805664 
	C78.094360,447.950989 62.564850,430.986938 46.582794,414.496948 
	C43.221439,411.028717 39.922939,407.498718 36.523544,404.068481 
	C34.239967,401.764221 34.036518,399.598236 36.315434,397.131897 
	C60.256958,371.221222 82.741745,343.855743 111.089592,322.352936 
	C114.274239,319.937256 117.517616,317.598999 121.026085,315.019165 
z"/>
<path fill="#000000" opacity="1.000000" stroke="none" 
	d="
M674.691650,367.310822 
	C667.003235,360.649658 659.684631,354.087860 652.063232,347.898804 
	C648.593079,345.080841 647.848999,342.293549 649.865784,338.402710 
	C654.618408,329.234070 659.317810,320.036530 663.916626,310.789917 
	C666.058960,306.482330 668.872070,306.999817 671.989441,309.375122 
	C685.888550,319.965607 700.110474,330.170776 713.546265,341.321747 
	C732.608521,357.142303 748.137268,376.367004 763.550476,395.635834 
	C766.389099,399.184448 767.297913,402.259064 764.016846,406.232910 
	C738.971741,436.565430 711.530212,464.294250 678.287476,485.764801 
	C673.678040,488.741913 668.802307,491.308380 664.035034,494.039154 
	C660.721191,495.937378 658.695862,495.002075 656.930054,491.539703 
	C652.320557,482.501862 647.477295,473.575806 642.461426,464.756378 
	C640.473877,461.261566 641.917297,459.178406 644.355103,457.017914 
	C651.085632,451.052948 658.057556,445.329071 664.445190,439.015228 
	C675.576416,428.012543 686.227295,416.524658 697.322021,405.483765 
	C701.122131,401.702087 700.985840,398.439728 697.795044,394.666321 
	C690.163940,385.641785 682.555420,376.598236 674.691650,367.310822 
z"/>
<path fill="#000000" opacity="1.000000" stroke="none" 
	d="
M358.798889,309.210846 
	C365.243195,316.649750 371.444366,323.833160 377.672455,330.993103 
	C381.774231,335.708618 381.775238,337.783356 377.232178,342.370209 
	C367.388611,352.308746 357.484070,362.186981 347.593750,372.079163 
	C326.753937,392.922821 305.724396,413.581085 285.138245,434.672241 
	C274.344879,445.730377 264.423401,457.635712 253.846115,468.912659 
	C252.278702,470.583740 248.998062,472.093384 246.958847,471.643494 
	C233.016129,468.567383 219.165222,465.054993 205.349594,461.435577 
	C201.410416,460.403595 200.260773,457.697998 203.250153,454.348785 
	C211.889786,444.669189 220.520844,434.978546 229.366898,425.489563 
	C230.952011,423.789215 233.575470,423.077393 235.664566,421.817993 
	C236.772949,421.149750 237.952515,420.447174 238.775101,419.482941 
	C243.041473,414.482025 246.796417,408.976746 251.466705,404.399323 
	C284.045410,372.468750 316.815613,340.733704 349.497070,308.907837 
	C353.914154,304.606384 354.435638,304.535278 358.798889,309.210846 
z"/>
<path fill="#000000" opacity="1.000000" stroke="none" 
	d="
M386.177185,237.821411 
	C405.497284,257.392853 424.502197,276.778503 443.667206,296.004517 
	C451.894897,304.258392 460.436920,312.199829 468.870758,320.246948 
	C474.695374,325.804535 474.778259,326.937286 468.795441,332.577942 
	C460.800232,340.115814 452.643097,347.482330 444.672943,355.046173 
	C441.962646,357.618347 439.398254,357.655487 436.728821,355.372345 
	C433.442688,352.561737 430.128418,349.756073 427.093109,346.684662 
	C404.160492,323.479004 381.247833,300.253113 358.461273,276.904388 
	C355.490326,273.860107 353.216980,273.526520 350.083496,276.424591 
	C345.196014,280.944794 340.151123,285.300568 335.066559,289.600220 
	C329.975342,293.905457 327.238922,293.198364 324.753632,286.900177 
	C321.613678,278.943024 321.373169,270.644928 322.466400,262.289917 
	C325.215149,241.282898 333.653168,222.323074 343.632904,203.926392 
	C345.560120,200.373779 347.604767,200.034897 350.582245,202.982941 
	C362.295959,214.580795 374.134613,226.052429 386.177185,237.821411 
z"/>
<path fill="#000000" opacity="1.000000" stroke="none" 
	d="
M469.258575,443.258545 
	C499.505035,413.219696 524.953369,380.036194 543.836792,342.106934 
	C553.808167,322.078461 563.098938,301.518311 564.129517,278.790070 
	C564.819336,263.576233 563.416504,248.248810 562.575195,232.992889 
	C562.214050,226.444977 562.492554,225.328583 569.086731,224.602692 
	C573.874146,224.075714 578.720947,223.966660 583.543945,223.914017 
	C590.110413,223.842346 591.516846,224.999588 591.638611,231.717010 
	C591.752930,238.025406 591.565491,244.397095 590.800720,250.654144 
	C586.124329,288.915466 577.537048,326.130310 559.231506,360.434509 
	C548.129517,381.239380 533.818787,399.890717 518.498047,417.742432 
	C499.272705,440.143677 478.349091,460.874725 456.164062,480.338135 
	C454.663300,481.654816 453.242401,483.288177 451.472595,484.015564 
	C449.246033,484.930634 446.026154,486.220856 444.429016,485.293213 
	C441.114929,483.368500 436.397430,481.467499 437.466095,476.205383 
	C437.877228,474.181091 439.511688,472.180908 441.062347,470.649261 
	C450.300598,461.524231 459.677490,452.539551 469.258575,443.258545 
z"/>
<path fill="#000000" opacity="1.000000" stroke="none" 
	d="
M300.266693,601.333252 
	C276.722443,608.947571 253.054306,612.917542 228.623016,611.907104 
	C220.514114,611.571777 219.145218,610.440918 220.555984,602.291748 
	C222.001724,593.940613 223.914581,585.666016 225.784897,577.394470 
	C226.788620,572.955444 229.570953,570.941223 234.366745,570.749451 
	C262.406097,569.628296 289.641663,564.246582 315.328705,552.858826 
	C327.288483,547.556763 338.552887,540.613342 349.854828,533.943481 
	C353.383148,531.861145 355.724731,531.704102 358.592041,534.490906 
	C364.799042,540.523743 371.126282,546.432922 377.405731,552.391235 
	C380.585419,555.408264 378.234863,557.416260 376.066284,559.351929 
	C361.801300,572.084473 346.055298,582.614990 328.544067,590.303284 
	C319.408478,594.314331 309.954041,597.599243 300.266693,601.333252 
z"/>
<path fill="#000000" opacity="1.000000" stroke="none" 
	d="
M430.532410,634.519104 
	C421.986359,643.611755 413.609619,652.379211 405.380188,661.282837 
	C402.417694,664.488037 399.909973,665.026794 396.742371,661.512329 
	C381.818298,644.954346 366.740814,628.534485 351.836761,611.958679 
	C348.729553,608.502991 349.474182,606.096863 353.329376,603.446899 
	C366.745972,594.224670 380.201294,585.051636 393.404419,575.530518 
	C397.397308,572.651184 400.172363,572.482300 404.431671,575.329590 
	C418.510986,584.741394 432.918213,593.669922 447.327667,602.576660 
	C452.281952,605.639038 452.940765,607.178223 449.164612,611.898865 
	C443.136963,619.434265 436.905304,626.806519 430.532410,634.519104 
z"/>
<path fill="#000000" opacity="1.000000" stroke="none" 
	d="
M471.642090,410.639404 
	C456.083984,426.213440 440.818634,441.582886 425.434723,456.832672 
	C419.220856,462.992371 418.289612,462.889008 412.228851,456.589905 
	C408.302338,452.509003 404.496155,448.312592 400.616943,444.185913 
	C396.292938,439.586121 396.249542,438.310516 400.687622,433.854797 
	C421.854919,412.603607 443.079742,391.409607 464.211639,370.123291 
	C471.603424,362.677460 478.704620,354.943115 486.095520,347.496368 
	C491.171661,342.381805 492.565582,342.416840 497.634277,347.264038 
	C501.485901,350.947296 505.134491,354.841919 508.926636,358.588623 
	C512.286194,361.907959 512.225647,364.934570 509.006134,368.515442 
	C496.536011,382.385193 484.244965,396.415924 471.642090,410.639404 
z"/>
<path fill="#000000" opacity="1.000000" stroke="none" 
	d="
M496.354126,312.652161 
	C486.854919,303.766418 477.645355,295.085327 468.344696,286.502899 
	C465.742432,284.101532 464.384277,281.711609 467.738983,279.106781 
	C485.203247,265.546417 501.018005,249.744904 521.080322,239.706635 
	C524.654663,237.918243 528.231873,236.122742 531.890503,234.519409 
	C535.983704,232.725647 537.521606,233.664673 538.392029,238.185974 
	C544.858093,271.772919 538.903748,303.415833 523.392273,333.537201 
	C521.070801,338.045197 519.444580,338.175110 515.988770,334.368164 
	C509.508148,327.229004 503.066925,320.054138 496.354126,312.652161 
z"/>
<path fill="#000000" opacity="1.000000" stroke="none" 
	d="
M378.723694,154.724182 
	C384.988281,148.480682 391.104736,142.585052 396.977631,136.455994 
	C399.987183,133.315155 402.832916,132.719299 405.860931,136.008438 
	C418.134613,149.340515 430.380402,162.698837 442.548065,176.127579 
	C445.538574,179.428055 444.293793,182.318207 441.359283,185.193329 
	C430.656830,195.679184 420.033936,206.248535 409.523102,216.926270 
	C406.344086,220.155792 403.684906,220.050812 400.620453,216.954407 
	C393.125336,209.381104 385.700470,201.727295 377.947174,194.424545 
	C373.237366,189.988510 368.126007,185.930191 362.893616,182.115646 
	C359.696503,179.784866 359.232819,177.668594 361.705719,174.750366 
	C367.293152,168.156799 372.884796,161.566849 378.723694,154.724182 
z"/>
<path fill="#000000" opacity="1.000000" stroke="none" 
	d="
M499.380127,472.371552 
	C502.238800,469.791779 504.886566,467.502594 507.413971,465.087433 
	C512.177979,460.535065 513.781555,460.189789 517.748108,465.592010 
	C524.726318,475.095825 532.017456,484.588226 537.349976,495.019684 
	C542.526672,505.146332 545.843384,516.315674 549.140503,527.278687 
	C551.302734,534.467896 548.844482,536.526611 541.534729,535.411682 
	C521.354187,532.333435 501.489777,528.151672 483.441467,518.030823 
	C478.804352,515.430481 474.399414,512.385071 470.043152,509.323212 
	C465.258087,505.959991 464.992432,503.230713 469.326294,499.266663 
	C479.158600,490.273224 489.173981,481.479950 499.380127,472.371552 
z"/>
<path fill="#000000" opacity="1.000000" stroke="none" 
	d="
M156.371857,424.638062 
	C149.168915,417.923767 142.333160,411.328552 135.244888,405.016968 
	C132.005295,402.132385 131.735138,399.649750 134.873840,396.715820 
	C146.068619,386.251373 157.251419,375.774170 168.439941,365.303040 
	C171.745819,362.209137 174.407104,363.613892 176.949326,366.454407 
	C183.948715,374.274994 190.885834,382.155151 198.046997,389.825562 
	C202.014374,394.075104 206.283524,398.059723 210.599762,401.961212 
	C213.898148,404.942657 213.960907,407.390808 210.866974,410.744507 
	C202.173920,420.167572 193.662537,429.765778 185.322937,439.503418 
	C182.307037,443.024902 179.390656,443.576477 175.909790,440.762085 
	C169.435364,435.527313 163.055283,430.175842 156.371857,424.638062 
z"/>
<path fill="#000000" opacity="1.000000" stroke="none" 
	d="
M659.791748,411.793762 
	C650.154785,420.006958 640.883179,428.111877 631.334412,435.875885 
	C626.735596,439.615173 625.246826,439.115082 621.341919,434.686096 
	C613.967712,426.322021 606.632690,417.918793 599.064636,409.732239 
	C595.960876,406.374786 595.763977,403.687469 598.987488,400.327942 
	C608.780579,390.121460 618.472046,379.815338 628.074097,369.428772 
	C631.343262,365.892517 634.475220,365.657898 637.970642,368.823456 
	C648.210754,378.096893 658.443298,387.378662 668.678284,396.657715 
	C670.830383,398.608795 670.869812,400.633484 668.843811,402.687073 
	C665.920593,405.650024 662.977722,408.593567 659.791748,411.793762 
z"/>
<path fill="#000000" opacity="1.000000" stroke="none" 
	d="
M395.677917,406.686615 
	C391.184906,411.633301 386.863647,416.260468 382.718567,421.040466 
	C380.212341,423.930511 377.851746,424.100189 375.102448,421.476624 
	C369.200104,415.844330 363.281921,410.227539 357.299042,404.681183 
	C354.092957,401.708984 353.848358,398.778961 357.045990,395.724518 
	C370.531158,382.842896 384.026154,369.971527 397.528107,357.107544 
	C399.689789,355.048004 401.962250,354.940094 404.161743,357.029968 
	C409.349670,361.959351 414.690216,366.747528 419.612000,371.931732 
	C423.834198,376.379059 423.602386,377.650848 419.472290,381.950073 
	C411.628052,390.115509 403.773987,398.271576 395.677917,406.686615 
z"/>
<path fill="#000000" opacity="1.000000" stroke="none" 
	d="
M282.758057,472.407074 
	C280.434204,471.948547 278.519196,471.433960 276.604248,470.919373 
	C277.781464,469.300079 278.660645,467.288025 280.187439,466.129395 
	C286.857483,461.067810 289.581299,461.133209 293.336060,465.699341 
	C295.759064,468.645996 295.169708,470.593353 291.550507,471.356812 
	C288.808105,471.935303 285.965118,472.037109 282.758057,472.407074 
z"/>
</svg>