<?xml version="1.0" standalone="no"?>
<!DOCTYPE svg PUBLIC "-//W3C//DTD SVG 20010904//EN"
 "http://www.w3.org/TR/2001/REC-SVG-20010904/DTD/svg10.dtd">
<svg version="1.0" xmlns="http://www.w3.org/2000/svg"
 width="9800.000000pt" height="1600.000000pt" viewBox="0 0 9000.000000 1430.000000"
 preserveAspectRatio="xMidYMid meet">

<g transform="translate(0.000000,1430.000000) scale(0.100000,-0.100000)"
fill="#FFFFFF" stroke="none">
<path d="M58166 13979 c-429 -63 -799 -410 -887 -833 -21 -100 -26 -310 -10
-406 25 -152 87 -306 172 -431 61 -90 197 -228 284 -288 264 -183 600 -237
924 -150 318 85 607 359 720 683 101 288 74 630 -70 881 -165 289 -440 484
-758 539 -100 17 -276 19 -375 5z"/>
<path d="M71966 13979 c-429 -63 -799 -410 -887 -833 -21 -100 -26 -310 -10
-406 25 -152 87 -306 172 -431 61 -90 197 -228 284 -288 264 -183 600 -237
924 -150 318 85 607 359 720 683 101 288 74 630 -70 881 -165 289 -440 484
-758 539 -100 17 -276 19 -375 5z"/>
<path d="M43948 11464 l-3 -1816 -45 69 c-368 559 -1002 915 -1835 1029 -182
25 -635 25 -820 0 -594 -80 -1097 -291 -1546 -647 -647 -515 -1098 -1326
-1253 -2254 -123 -736 -97 -1562 70 -2228 299 -1190 1058 -2068 2099 -2427
556 -191 1202 -222 1825 -86 238 52 415 113 625 216 411 201 688 450 929 834
l56 89 0 -526 0 -527 840 0 840 0 0 5045 0 5045 -890 0 -890 0 -2 -1816z
m-1510 -2220 c267 -40 523 -139 746 -288 360 -242 638 -669 766 -1175 71 -282
95 -506 94 -886 0 -384 -23 -603 -94 -886 -107 -425 -324 -801 -602 -1047
-645 -568 -1704 -588 -2378 -45 -342 276 -597 726 -700 1236 -91 453 -91 1031
0 1484 118 582 426 1072 845 1341 241 155 540 255 841 282 123 11 355 3 482
-16z"/>
<path d="M88307 10775 c-331 -63 -591 -304 -683 -635 -15 -52 -19 -102 -19
-245 0 -143 4 -193 19 -245 77 -277 267 -489 530 -591 222 -86 520 -75 735 26
278 132 456 387 492 707 50 452 -219 857 -646 969 -106 28 -318 35 -428 14z
m358 -221 c224 -53 405 -236 465 -470 43 -167 21 -379 -55 -522 -86 -165 -232
-281 -410 -327 -144 -37 -367 -12 -494 55 -219 117 -341 334 -341 605 0 262
109 465 316 590 139 84 342 111 519 69z"/>
<path d="M88140 9910 l0 -460 115 0 115 0 2 192 3 192 133 -192 134 -192 134
0 134 0 -144 192 -144 192 53 17 c110 34 166 91 186 190 24 119 -27 229 -131
281 -74 37 -158 48 -392 48 l-198 0 0 -460z m476 247 c29 -33 32 -91 8 -126
-26 -36 -74 -51 -169 -51 l-85 0 0 106 0 106 111 -4 c107 -3 112 -4 135 -31z"/>
<path d="M3442 10760 c-354 -28 -701 -100 -989 -205 -141 -52 -421 -192 -543
-272 -342 -225 -610 -532 -758 -868 -232 -528 -225 -1231 19 -1730 225 -463
689 -839 1289 -1046 63 -22 453 -134 865 -249 805 -224 876 -246 1031 -320
286 -135 442 -311 516 -582 20 -73 23 -105 22 -273 0 -163 -4 -201 -22 -269
-95 -344 -351 -543 -797 -617 -120 -21 -514 -18 -630 4 -551 103 -896 420
-1087 998 -20 58 -44 140 -54 182 -10 42 -22 77 -28 77 -13 0 -1660 -351
-1664 -355 -6 -6 59 -260 99 -381 191 -590 529 -1033 1019 -1339 554 -345
1255 -511 2075 -492 272 7 446 23 685 63 1047 175 1798 729 2059 1519 79 236
111 458 111 757 0 390 -60 694 -191 967 -183 384 -480 671 -934 903 -339 172
-520 234 -1426 482 -703 193 -807 225 -924 283 -296 149 -438 337 -463 616
-23 250 36 426 198 587 185 185 418 263 790 263 186 1 280 -10 425 -48 382
-100 667 -374 835 -802 18 -46 38 -83 44 -83 17 0 1625 406 1631 412 3 2 -9
53 -25 113 -102 361 -257 639 -494 884 -437 449 -1057 719 -1856 806 -171 19
-663 28 -828 15z"/>
<path d="M17410 10760 c-515 -48 -938 -173 -1280 -380 -306 -184 -538 -408
-741 -715 l-79 -119 0 527 0 527 -830 0 -830 0 0 -5135 0 -5135 885 0 885 0 2
1900 3 1900 79 -106 c258 -346 634 -634 1043 -798 461 -185 1108 -252 1653
-171 935 139 1720 674 2217 1510 386 649 573 1407 573 2325 0 1279 -378 2301
-1116 3020 -481 468 -1061 744 -1755 836 -136 17 -575 26 -709 14z m138 -1516
c822 -123 1406 -763 1561 -1710 37 -224 45 -344 45 -644 0 -329 -15 -494 -64
-740 -181 -905 -744 -1491 -1540 -1604 -415 -58 -813 -2 -1155 164 -286 139
-492 320 -677 594 -271 405 -408 936 -408 1591 0 785 196 1386 590 1810 307
331 722 524 1200 559 94 7 346 -4 448 -20z"/>
<path d="M24410 10759 c-875 -66 -1639 -409 -2236 -1004 -292 -291 -512 -601
-695 -980 -114 -236 -182 -419 -249 -670 -185 -691 -187 -1611 -5 -2360 183
-758 566 -1418 1083 -1868 550 -479 1179 -742 1994 -834 216 -24 761 -24 976
0 824 93 1467 367 2007 854 186 168 390 412 528 632 71 112 197 341 197 357 0
10 -1356 674 -1376 674 -5 0 -31 -42 -58 -93 -199 -376 -467 -651 -793 -815
-153 -77 -389 -147 -600 -179 -163 -24 -538 -23 -716 1 -388 53 -712 188 -952
395 -369 319 -614 881 -651 1494 l-7 107 2630 0 2631 0 11 78 c15 100 31 440
31 662 1 1130 -325 2006 -986 2651 -620 604 -1466 915 -2469 908 -104 -1 -237
-5 -295 -10z m630 -1377 c216 -37 359 -82 523 -163 478 -238 766 -695 852
-1352 8 -65 15 -136 15 -158 l0 -39 -1780 0 -1780 0 0 30 c0 17 7 76 15 133
97 648 379 1101 845 1355 170 93 441 178 640 201 52 6 109 13 125 15 77 11
435 -4 545 -22z"/>
<path d="M31580 10764 c-205 -19 -431 -68 -596 -130 -401 -149 -763 -455 -953
-804 l-41 -75 0 423 0 422 -830 0 -830 0 0 -3705 0 -3705 885 0 885 0 0 1978
c0 1133 4 2069 10 2192 18 401 74 663 195 915 201 420 519 671 990 781 117 28
128 29 400 29 305 0 361 -5 346 -33 -38 -71 -147 -441 -133 -453 4 -4 376 -84
827 -178 451 -95 830 -175 842 -178 14 -3 24 0 27 8 109 363 207 548 386 729
231 234 502 349 899 381 167 14 379 1 526 -31 369 -81 620 -270 766 -575 88
-184 127 -366 136 -631 l6 -172 -54 -11 c-30 -7 -520 -111 -1089 -231 -569
-120 -1110 -235 -1202 -255 -499 -107 -927 -276 -1273 -502 -589 -386 -894
-858 -977 -1513 -17 -138 -14 -461 5 -606 60 -438 235 -799 533 -1097 384
-385 886 -612 1534 -694 172 -21 679 -24 850 -5 566 66 1022 243 1395 545 139
112 376 372 434 474 5 10 12 16 14 13 3 -3 73 -198 157 -435 83 -236 155 -433
159 -438 4 -4 417 -6 918 -5 l911 3 -269 715 -269 715 0 1680 c0 1664 -4 1912
-35 2152 -82 644 -325 1174 -715 1563 -413 412 -959 641 -1740 727 -221 24
-802 24 -1020 0 -708 -79 -1243 -277 -1715 -632 -191 -144 -394 -345 -524
-519 l-66 -88 -5 603 -5 603 -30 8 c-94 26 -227 40 -415 43 -113 1 -225 1
-250 -1z m4740 -4459 c0 -256 -5 -498 -11 -553 -49 -453 -256 -833 -586 -1081
-184 -139 -398 -234 -628 -280 -222 -45 -502 -51 -710 -16 -358 59 -646 245
-770 498 -75 153 -89 221 -89 437 0 216 14 285 88 435 77 154 183 261 372 376
213 129 433 203 949 323 204 48 591 138 860 200 270 63 498 115 508 115 16 1
17 -27 17 -454z"/>
<path d="M49756 10759 c-802 -66 -1428 -415 -1775 -988 l-51 -84 0 456 0 457
-830 0 -830 0 0 -3705 0 -3705 885 0 884 0 4 2253 c3 2040 5 2264 20 2376 35
259 96 470 189 655 210 418 547 662 995 721 292 38 563 1 788 -109 394 -193
626 -567 684 -1108 8 -66 11 -861 11 -2443 l0 -2345 890 0 890 0 3 2298 c3
2501 -1 2328 57 2596 103 472 385 845 765 1009 305 132 730 153 1042 51 173
-56 315 -144 449 -278 207 -208 320 -451 381 -827 16 -95 17 -301 20 -2476 l4
-2373 885 0 884 0 -3 2653 -3 2652 -22 152 c-49 338 -121 593 -241 848 -300
636 -874 1061 -1637 1209 -246 48 -396 60 -709 60 -311 0 -435 -11 -665 -60
-377 -80 -720 -239 -1020 -473 -171 -133 -378 -365 -482 -542 l-37 -62 -18 33
c-358 652 -990 1030 -1842 1099 -150 12 -416 12 -565 0z"/>
<path d="M62182 10760 c-354 -28 -701 -100 -989 -205 -141 -52 -421 -192 -543
-272 -342 -225 -610 -532 -758 -868 -232 -528 -225 -1231 19 -1730 225 -463
689 -839 1289 -1046 63 -22 453 -134 865 -249 805 -224 876 -246 1031 -320
286 -135 442 -311 516 -582 20 -73 23 -105 22 -273 0 -163 -4 -201 -22 -269
-95 -344 -351 -543 -797 -617 -120 -21 -514 -18 -630 4 -551 103 -896 420
-1087 998 -20 58 -44 140 -54 182 -10 42 -22 77 -28 77 -13 0 -1660 -351
-1664 -355 -6 -6 59 -260 99 -381 191 -590 529 -1033 1019 -1339 554 -345
1255 -511 2075 -492 272 7 446 23 685 63 995 167 1734 682 2020 1411 l37 93
66 -134 c196 -392 483 -708 857 -941 554 -345 1255 -511 2075 -492 272 7 446
23 685 63 1047 175 1798 729 2059 1519 79 236 111 458 111 757 0 390 -60 694
-191 967 -183 384 -480 671 -934 903 -339 172 -520 234 -1426 482 -703 193
-807 225 -924 283 -296 149 -438 337 -463 616 -23 250 36 426 198 587 185 185
418 263 790 263 186 1 280 -10 425 -48 382 -100 667 -374 835 -802 18 -46 38
-83 44 -83 17 0 1625 406 1631 412 3 2 -9 53 -25 113 -102 361 -257 639 -494
884 -437 449 -1061 720 -1856 806 -80 9 -251 18 -380 22 -533 13 -1016 -58
-1437 -212 -141 -52 -421 -192 -543 -272 -342 -225 -610 -532 -758 -868 -232
-528 -225 -1231 19 -1730 225 -463 689 -839 1289 -1046 63 -22 453 -134 865
-249 805 -224 876 -246 1031 -320 286 -135 442 -311 516 -582 20 -73 23 -105
22 -273 0 -163 -4 -201 -22 -269 -95 -344 -351 -543 -797 -617 -120 -21 -514
-18 -630 4 -551 103 -896 420 -1087 998 -20 58 -44 140 -54 182 -10 42 -22 77
-28 77 -6 0 -306 -63 -666 -140 -360 -77 -663 -140 -672 -140 -16 0 -18 12
-18 123 0 223 -40 486 -106 684 -157 482 -489 844 -1019 1115 -339 172 -520
234 -1426 482 -703 193 -807 225 -924 283 -296 149 -438 337 -463 616 -23 250
36 426 198 587 185 185 418 263 790 263 186 1 280 -10 425 -48 382 -100 667
-374 835 -802 18 -46 38 -83 44 -83 17 0 1625 406 1631 412 3 2 -9 53 -25 113
-102 361 -257 639 -494 884 -437 449 -1057 719 -1856 806 -171 19 -663 28
-828 15z"/>
<path d="M76760 10764 c-732 -51 -1334 -246 -1888 -611 -700 -461 -1216 -1177
-1442 -1998 -215 -785 -215 -1735 0 -2520 226 -822 748 -1544 1445 -2000 506
-332 1025 -514 1680 -591 212 -25 748 -25 960 0 667 78 1190 261 1693 593 700
461 1216 1177 1442 1998 215 785 215 1735 0 2520 -226 821 -742 1537 -1442
1998 -501 330 -1032 517 -1683 592 -134 15 -637 28 -765 19z m435 -1504 c426
-35 796 -192 1093 -466 287 -264 511 -668 608 -1096 104 -459 109 -1069 14
-1545 -117 -580 -424 -1068 -841 -1339 -459 -298 -1102 -374 -1650 -194 -128
42 -299 123 -406 193 -420 272 -725 759 -843 1340 -95 476 -90 1086 14 1545
78 344 245 687 457 938 297 354 746 585 1211 623 150 12 201 12 343 1z"/>
<path d="M84586 10760 c-624 -56 -1115 -263 -1500 -631 -109 -104 -233 -253
-310 -372 l-51 -78 -3 460 -2 461 -830 0 -830 0 0 -3705 0 -3705 885 0 884 0
4 2228 c4 2359 2 2279 52 2528 45 226 134 446 252 622 71 107 222 265 333 348
268 202 632 307 1015 291 380 -16 670 -130 908 -356 216 -205 336 -456 404
-846 16 -93 18 -266 20 -2457 l3 -2358 890 0 891 0 -4 2498 c-3 2287 -4 2509
-20 2645 -56 479 -145 803 -308 1128 -370 733 -1006 1158 -1912 1280 -174 23
-605 34 -771 19z"/>
<path d="M6713 8173 c4 -2636 0 -2469 57 -2798 134 -773 533 -1414 1130 -1814
558 -374 1301 -559 2155 -538 598 15 1066 113 1535 321 704 313 1225 920 1445
1685 74 257 116 525 135 851 6 118 10 1001 10 2453 l0 2267 -890 0 -890 0 -3
-2342 -2 -2343 -22 -130 c-40 -237 -86 -385 -176 -559 -145 -284 -402 -506
-708 -614 -389 -137 -897 -113 -1242 59 -124 62 -213 125 -311 219 -275 263
-411 603 -446 1122 -6 86 -10 1021 -10 2366 l0 2222 -885 0 -886 0 4 -2427z"/>
<path d="M57460 6895 l0 -3705 885 0 885 0 0 3705 0 3705 -885 0 -885 0 0
-3705z"/>
<path d="M71260 6895 l0 -3705 885 0 885 0 0 3705 0 3705 -885 0 -885 0 0
-3705z"/>
</g>
</svg>
