<?xml version="1.0" standalone="no"?>
<!DOCTYPE svg PUBLIC "-//W3C//DTD SVG 20010904//EN"
 "http://www.w3.org/TR/2001/REC-SVG-20010904/DTD/svg10.dtd">
<svg version="1.0" xmlns="http://www.w3.org/2000/svg"
 width="488.000000pt" height="71.000000pt" viewBox="0 0 488.000000 71.000000"
 preserveAspectRatio="xMidYMid meet">

<g transform="translate(0.000000,71.000000) scale(0.100000,-0.100000)"
fill="#000000" stroke="none">
<path d="M2370 583 l0 -96 -23 21 c-29 27 -95 38 -140 23 -164 -55 -177 -294
-19 -363 59 -27 125 -19 164 19 l28 27 0 -27 c0 -25 3 -27 45 -27 l45 0 0 260
0 260 -50 0 -50 0 0 -97z m-28 -161 c27 -25 31 -36 31 -77 0 -41 -4 -52 -31
-77 -34 -30 -86 -37 -123 -18 -24 13 -49 61 -49 95 0 32 24 81 47 94 35 21 91
13 125 -17z"/>
<path d="M3127 662 c-22 -24 -21 -55 1 -75 37 -34 92 -11 92 38 0 50 -60 73
-93 37z"/>
<path d="M3817 662 c-22 -24 -21 -55 1 -75 37 -34 92 -11 92 38 0 50 -60 73
-93 37z"/>
<path d="M4743 540 c-44 -18 -58 -90 -25 -129 47 -59 146 -22 146 54 0 63 -59
100 -121 75z m75 -26 c43 -30 15 -114 -38 -114 -28 0 -60 35 -60 65 0 29 32
65 58 65 10 0 28 -7 40 -16z"/>
<path d="M4750 466 c0 -25 5 -46 10 -46 6 0 10 8 10 18 1 16 1 16 14 0 15 -20
42 -25 29 -5 -4 6 -8 26 -8 42 0 25 -4 30 -27 33 -27 3 -28 2 -28 -42z m40 14
c0 -5 -4 -10 -10 -10 -5 0 -10 5 -10 10 0 6 5 10 10 10 6 0 10 -4 10 -10z"/>
<path d="M115 526 c-49 -21 -70 -53 -70 -102 0 -57 26 -83 108 -109 42 -14 63
-26 65 -38 9 -46 -55 -63 -101 -26 -29 22 -47 18 -80 -19 -18 -19 -17 -20 10
-40 40 -29 109 -45 159 -37 73 11 126 77 110 139 -10 42 -40 67 -106 90 -56
19 -65 25 -65 46 0 21 6 26 32 28 21 2 38 -3 51 -16 20 -20 20 -20 56 6 l36
25 -22 24 c-38 40 -125 54 -183 29z"/>
<path d="M860 533 c-8 -3 -27 -17 -42 -31 l-28 -26 0 27 c0 25 -3 27 -45 27
l-45 0 0 -255 0 -255 45 0 45 0 0 97 0 97 29 -28 c82 -79 228 -21 265 106 l13
42 6 -42 c9 -56 67 -116 126 -132 54 -14 124 -5 167 21 57 34 59 44 20 74
l-35 27 -27 -21 c-18 -14 -41 -21 -69 -21 -36 0 -48 5 -71 33 l-27 32 142 3
141 3 0 43 c0 54 -36 124 -79 153 -63 43 -165 39 -225 -8 -31 -24 -66 -88 -67
-121 0 -14 -6 -4 -15 24 -30 97 -141 161 -224 131z m103 -109 c47 -47 47 -106
-1 -156 -49 -52 -140 -31 -162 38 -25 74 21 144 95 144 32 0 48 -6 68 -26z
m381 5 c49 -39 35 -49 -64 -49 -87 0 -90 1 -80 19 27 52 98 66 144 30z"/>
<path d="M1640 529 c-14 -5 -33 -20 -42 -32 l-18 -22 0 28 c0 25 -3 27 -45 27
l-45 0 0 -185 0 -185 45 0 45 0 0 100 c0 139 24 190 90 190 17 0 20 -4 15 -17
-45 -109 -5 -222 93 -265 59 -27 125 -19 164 19 l28 27 0 -27 c0 -25 3 -27 45
-27 l45 0 0 185 0 185 -50 0 c-45 0 -50 -2 -50 -22 l0 -21 -23 21 c-47 45
-145 38 -207 -15 l-30 -25 0 36 c0 39 -12 44 -60 25z m292 -107 c27 -25 31
-36 31 -77 0 -41 -4 -52 -31 -77 -34 -30 -86 -37 -123 -18 -24 13 -49 61 -49
95 0 32 24 81 47 94 35 21 91 13 125 -17z"/>
<path d="M2644 526 c-18 -8 -37 -22 -43 -33 -9 -16 -10 -15 -11 10 0 25 -3 27
-45 27 l-45 0 0 -185 0 -185 44 0 44 0 3 126 c4 118 5 127 28 145 35 28 85 25
110 -7 19 -24 21 -40 21 -145 l0 -119 50 0 50 0 0 128 c0 146 7 162 72 162 62
0 72 -23 77 -166 l3 -124 44 0 44 0 0 136 c0 141 -4 159 -48 206 -47 51 -163
46 -199 -8 l-15 -24 -24 25 c-42 45 -101 56 -160 31z"/>
<path d="M3315 526 c-49 -21 -70 -53 -70 -102 0 -57 26 -83 108 -109 42 -14
63 -26 65 -38 9 -46 -55 -63 -101 -26 -29 22 -47 18 -80 -19 -18 -19 -17 -20
10 -40 68 -48 173 -52 228 -8 29 23 30 24 55 6 37 -27 108 -43 156 -35 73 11
126 77 110 139 -10 42 -40 67 -106 90 -56 19 -65 25 -65 46 0 21 6 26 32 28
21 2 38 -3 51 -16 20 -20 20 -20 57 6 l37 26 -30 28 c-58 51 -171 47 -223 -8
-18 -19 -24 -37 -24 -70 0 -57 26 -83 108 -109 42 -14 63 -26 65 -38 9 -47
-55 -63 -102 -26 l-28 22 -27 -20 -27 -20 4 31 c5 48 -28 91 -85 111 -93 33
-95 34 -91 58 4 31 59 36 86 9 20 -20 20 -20 56 6 l36 25 -22 24 c-38 40 -125
54 -183 29z"/>
<path d="M4058 530 c-150 -45 -178 -260 -46 -347 35 -24 52 -28 107 -28 80 1
120 20 160 76 111 152 -38 354 -221 299z m133 -109 c64 -64 21 -181 -66 -181
-47 0 -71 13 -90 50 -19 37 -19 73 0 110 19 37 41 49 88 50 29 0 45 -7 68 -29z"/>
<path d="M4474 526 c-18 -8 -37 -22 -43 -33 -9 -16 -10 -15 -11 10 0 25 -3 27
-45 27 l-45 0 0 -185 0 -185 44 0 44 0 3 126 c4 118 5 127 28 145 35 28 85 25
110 -7 19 -24 21 -40 21 -145 l0 -119 51 0 51 0 -4 137 c-4 149 -15 187 -63
219 -35 23 -103 27 -141 10z"/>
<path d="M330 386 c0 -132 2 -146 23 -177 41 -61 149 -77 198 -28 19 19 19 19
19 -1 0 -17 7 -20 50 -20 l50 0 0 185 0 185 -50 0 -50 0 0 -119 c0 -105 -2
-121 -21 -145 -14 -18 -30 -26 -52 -26 -65 0 -77 28 -77 174 l0 116 -45 0 -45
0 0 -144z"/>
<path d="M3120 345 l0 -185 45 0 45 0 0 185 0 185 -45 0 -45 0 0 -185z"/>
<path d="M3810 345 l0 -185 45 0 45 0 0 185 0 185 -45 0 -45 0 0 -185z"/>
</g>
</svg>
