<svg id="UPI_ID_VerificationAPI" data-name="UPI ID VerificationAPI" xmlns="http://www.w3.org/2000/svg" xmlns:xlink="http://www.w3.org/1999/xlink" width="624" height="608" viewBox="0 0 624 608">
  <defs>
    <linearGradient id="linear-gradient" x1="0.5" x2="0.5" y2="1" gradientUnits="objectBoundingBox">
      <stop offset="0" stop-color="#086ef2"/>
      <stop offset="1" stop-color="#32cbd1"/>
    </linearGradient>
    <linearGradient id="linear-gradient-3" y2="1.399" xlink:href="#linear-gradient"/>
    <linearGradient id="linear-gradient-5" x1="0.87" y1="0.088" x2="1.236" y2="1.333" xlink:href="#linear-gradient"/>
    <clipPath id="clip-path">
      <rect id="Rectangle_12941" data-name="Rectangle 12941" width="8.186" height="12.721" fill="none"/>
    </clipPath>
    <clipPath id="clip-path-2">
      <rect id="Rectangle_12942" data-name="Rectangle 12942" width="9.74" height="27.167" fill="none"/>
    </clipPath>
    <clipPath id="clip-path-3">
      <rect id="Rectangle_12943" data-name="Rectangle 12943" width="65.75" height="240.312" fill="#0a192c"/>
    </clipPath>
    <clipPath id="clip-path-4">
      <rect id="Rectangle_12944" data-name="Rectangle 12944" width="13.677" height="58.128" fill="none"/>
    </clipPath>
    <clipPath id="clip-path-5">
      <rect id="Rectangle_12945" data-name="Rectangle 12945" width="48.72" height="245.118" fill="#0a192c"/>
    </clipPath>
    <clipPath id="clip-path-6">
      <rect id="Rectangle_12946" data-name="Rectangle 12946" width="65.409" height="98.346" fill="none"/>
    </clipPath>
    <clipPath id="clip-path-7">
      <rect id="Rectangle_12947" data-name="Rectangle 12947" width="9.002" height="11.192" fill="none"/>
    </clipPath>
    <clipPath id="clip-path-8">
      <rect id="Rectangle_12948" data-name="Rectangle 12948" width="16.637" height="11.895" fill="#e7f1ff"/>
    </clipPath>
    <clipPath id="clip-path-9">
      <rect id="Rectangle_12949" data-name="Rectangle 12949" width="16.398" height="15.096" fill="#e7f1ff"/>
    </clipPath>
    <clipPath id="clip-path-10">
      <rect id="Rectangle_12950" data-name="Rectangle 12950" width="34.805" height="24.893" fill="none"/>
    </clipPath>
    <clipPath id="clip-path-11">
      <rect id="Rectangle_12951" data-name="Rectangle 12951" width="8.353" height="12.357" fill="none"/>
    </clipPath>
    <linearGradient id="linear-gradient-9" x2="0.48" y2="1.21" xlink:href="#linear-gradient"/>
    <clipPath id="clip-path-12">
      <rect id="Rectangle_12924" data-name="Rectangle 12924" width="51.248" height="51.249" fill="url(#linear-gradient)"/>
    </clipPath>
  </defs>
  <rect id="Rectangle_9728" data-name="Rectangle 9728" width="624" height="608" fill="none"/>
  <g id="Group_42730" data-name="Group 42730" transform="translate(-3488 3237.086)">
    <path id="Path_90557" data-name="Path 90557" d="M663.558,451.914c0,13.835-139.686,25.051-312,25.051s-312-11.215-312-25.051,139.686-25.051,312-25.051,312,11.215,312,25.051" transform="translate(3448.442 -3116.964)" fill="#f2f8ff"/>
    <g id="Group_42727" data-name="Group 42727" transform="translate(-716.087 -77.942)">
      <path id="Path_90563" data-name="Path 90563" d="M27.411,363.594a36.967,36.967,0,0,0-15.818-5.445c-2.585-.265-5.409-.19-7.482,1.376a1.54,1.54,0,0,0-.77,1.367,1.671,1.671,0,0,0,.732.934c6.436,4.91,16.17,5.53,23.339,1.768" transform="translate(4254.836 -3063.304)" fill="#e0e0e0"/>
      <path id="Path_90564" data-name="Path 90564" d="M25.71,366.862a77.2,77.2,0,0,1-10.217-8.989,25.841,25.841,0,0,1-6.405-11.846,4.778,4.778,0,0,1,.505-3.963c8.144,6.359,14.542,14.585,16.116,24.8" transform="translate(4256.131 -3067.02)" fill="#e0e0e0"/>
      <path id="Path_90565" data-name="Path 90565" d="M22.894,367.117a36.961,36.961,0,0,1,.19-13.414,18.138,18.138,0,0,1,7.145-11.068c1.409,3.29.8,7.079-.189,10.516a51.094,51.094,0,0,1-7.086,14.917" transform="translate(4259.268 -3066.887)" fill="#e0e0e0"/>
      <path id="Path_90566" data-name="Path 90566" d="M33.037,374.1c-4.846.589-9.066,3.143-12.686,6.42A24.006,24.006,0,0,0,13.1,392.975c4.753-.293,8.787-3.645,11.711-7.4s4.952-7.882,8.164-11.4" transform="translate(4257.107 -3059.565)" fill="#e0e0e0"/>
      <path id="Path_90567" data-name="Path 90567" d="M31.092,381.541A31.281,31.281,0,0,1,34.7,351.947c2.76,9.821,1.747,20.914-3.613,29.595" transform="translate(4260.789 -3064.72)" fill="#e0e0e0"/>
      <path id="Path_90568" data-name="Path 90568" d="M43.382,386.152A22.624,22.624,0,0,0,21.75,398.6c-.267.535-.5,1.215-.145,1.7a1.61,1.61,0,0,0,1.435.422c4.263-.276,8.041-2.841,11.16-5.762s5.833-6.3,9.278-8.821" transform="translate(4259.045 -3056.77)" fill="#e0e0e0"/>
      <path id="Path_90569" data-name="Path 90569" d="M39.306,391.248a40.278,40.278,0,0,1-.4-22.505c.793-2.9,2.124-5.946,4.8-7.3a.943.943,0,0,1,.735-.129.975.975,0,0,1,.465.537,13.54,13.54,0,0,1,1.13,6.457,40.143,40.143,0,0,1-1.011,6.537c-.843,3.994-1.292,8.287-3.484,11.733a23.914,23.914,0,0,0-1.392,2.578c-.415.875-.418,1.183-.8,1.88" transform="translate(4262.785 -3062.549)" fill="#e0e0e0"/>
      <path id="Path_90570" data-name="Path 90570" d="M61.76,393.644c-2.068-7.868.127-17.408,5.087-23.859.364-.476.847-.985,1.443-.929.913.085,1.15,1.3,1.111,2.218a43.13,43.13,0,0,1-7.641,22.571" transform="translate(4268.25 -3060.786)" fill="#e0e0e0"/>
      <path id="Path_90571" data-name="Path 90571" d="M63.657,391.917c9.56,2.488,20.528.069,28.479-5.792a23.065,23.065,0,0,0-15.417-1.892c-5.15,1.179-9.855,3.486-13.062,7.685" transform="translate(4268.873 -3057.338)" fill="#e0e0e0"/>
      <path id="Path_90572" data-name="Path 90572" d="M65.379,388.931C70.734,380.2,81,374.5,91.226,373.986c-1.178,4.159-4.6,7.392-8.454,9.346s-8.163,2.8-12.407,3.629c-1.652.321-3.916.673-4.986,1.97" transform="translate(4269.273 -3059.591)" fill="#e0e0e0"/>
      <path id="Path_90573" data-name="Path 90573" d="M62.747,371.17c1.45-4.966,2.908-9.977,3.306-15.137s-.338-10.544-3.015-14.972c-5,9.678-5.508,20.985-.441,30.629" transform="translate(4267.797 -3067.253)" fill="#e0e0e0"/>
      <path id="Path_90574" data-name="Path 90574" d="M75.706,362.416c5.849-10.63,17.782-19.12,29.856-20.311-4.658,11.6-17.36,20.56-29.856,20.311" transform="translate(4271.676 -3067.01)" fill="#e0e0e0"/>
      <path id="Path_90575" data-name="Path 90575" d="M72.721,360.6c8.723,1.329,16.154,6.9,24.305,10.277a10.893,10.893,0,0,0,5.5,1.053,4.3,4.3,0,0,0,2.693-7.609,11.768,11.768,0,0,0-3.991-2.421c-8.878-3.7-18.4-3.789-27.752-1.547" transform="translate(4270.982 -3063.112)" fill="#e0e0e0"/>
      <path id="Path_90576" data-name="Path 90576" d="M68.626,365.314c1.975.566,2.649,1.588,4.213,2.919A45.442,45.442,0,0,0,91.271,377.7c.7.175,1.627.245,1.976-.391.3-.556-.08-1.229-.476-1.724a25.377,25.377,0,0,0-11.129-7.554c-4.254-1.584-7.94-3.493-13.016-3.084" transform="translate(4270.029 -3061.708)" fill="#e0e0e0"/>
      <path id="Path_90577" data-name="Path 90577" d="M64,335.438a34.883,34.883,0,0,0,26.742,9.1,1.835,1.835,0,0,0,1.218-.438c.673-.732-.134-1.861-.92-2.473-7.862-6.13-17.385-8.672-27.04-6.188" transform="translate(4268.953 -3068.781)" fill="#e0e0e0"/>
      <path id="Path_90578" data-name="Path 90578" d="M69.484,334.626a37.276,37.276,0,0,1,33.369-5.507c-4.2,4.142-10.033,6.371-15.9,6.982a50.358,50.358,0,0,1-17.469-1.476" transform="translate(4270.23 -3070.44)" fill="#e0e0e0"/>
      <path id="Path_90579" data-name="Path 90579" d="M68.157,323.936c-.772-7.847-.271-14.043-.816-21.927-.043-.63-.179-1.387-.768-1.615-.82-.315-1.5.693-1.774,1.53a25.137,25.137,0,0,0,3.347,21.84" transform="translate(4268.871 -3076.729)" fill="#e0e0e0"/>
      <path id="Path_90580" data-name="Path 90580" d="M66.848,324.841a46.142,46.142,0,0,0,13-12.634c2.566-3.513,4.732-7.723,4.148-12.035a12.443,12.443,0,0,0-9.377,4.657,26.179,26.179,0,0,0-4.78,9.618c-1.04,3.453-1.769,7-2.991,10.394" transform="translate(4269.615 -3076.768)" fill="#e0e0e0"/>
      <path id="Path_90581" data-name="Path 90581" d="M77.24,321.016a104.832,104.832,0,0,0,31.992-18.864c-3.823-1.54-8.2-.619-12.018.924-8.729,3.523-15.861,9.471-20.141,17.854" transform="translate(4271.996 -3076.491)" fill="#e0e0e0"/>
      <path id="Path_90582" data-name="Path 90582" d="M69.762,325.414c5.906.646,11.9,1.066,17.764.086,5.759-.963,11.2-3.244,16.583-5.51a1.943,1.943,0,0,0,1.127-.856,1.3,1.3,0,0,0-.4-1.419,3.423,3.423,0,0,0-1.414-.663c-5.85-1.636-12.164-.87-17.921,1.071a83.091,83.091,0,0,0-15.735,7.29" transform="translate(4270.293 -3073.047)" fill="#e0e0e0"/>
      <path id="Path_90583" data-name="Path 90583" d="M42.964,340.386c-4.03-8.133-3.767-17.624-.287-26.006,2.451,3.733,2.75,8.487,2.3,12.93s-1.8,9.016-1.888,13.481" transform="translate(4263.369 -3073.461)" fill="#e0e0e0"/>
      <path id="Path_90584" data-name="Path 90584" d="M34.436,328.893A36.269,36.269,0,0,0,7.483,340.376c5.021.788,10.191-.507,14.758-2.737a75.125,75.125,0,0,0,12.649-8.465" transform="translate(4255.801 -3070.085)" fill="#e0e0e0"/>
      <path id="Path_90585" data-name="Path 90585" d="M25.355,326.045c-4.921-.4-9.657-1.008-14.388.441S1.929,331.228,0,335.786a26,26,0,0,0,13.489-2.548,77.591,77.591,0,0,0,11.866-7.193" transform="translate(4254.061 -3070.857)" fill="#e0e0e0"/>
      <path id="Path_90586" data-name="Path 90586" d="M39.013,327.516c-4.427-2.9-8.973-5.855-14.128-7.056s-11.129-.314-14.723,3.571c4.173,2.448,9.235,2.738,14.074,2.734s10.77-.059,15.331,1.556" transform="translate(4256.426 -3072.163)" fill="#e0e0e0"/>
      <path id="Path_90587" data-name="Path 90587" d="M35.211,332.121c-7.569-7.432-10.438-20.783-7.392-30.944a47.162,47.162,0,0,1,7.392,30.944" transform="translate(4260.254 -3076.533)" fill="#e0e0e0"/>
      <path id="Path_90588" data-name="Path 90588" d="M50.472,313.807c1.427-3.318,2.431-6.8,3.712-10.18a29.224,29.224,0,0,1,5.293-9.383,13.94,13.94,0,0,1,9.373-4.859A37.753,37.753,0,0,1,50.657,313.86" transform="translate(4265.805 -3079.277)" fill="#e0e0e0"/>
      <path id="Path_90589" data-name="Path 90589" d="M51.113,315.274c-2.362-3.252-5.091-7.665-8.295-10.092s-7.374-3.9-11.284-2.963a26.282,26.282,0,0,0,19.579,13.055" transform="translate(4261.398 -3076.357)" fill="#e0e0e0"/>
      <path id="Path_90590" data-name="Path 90590" d="M48.784,314.02a56.148,56.148,0,0,1-3.734-12.091c-.626-4.181-.245-8.648,1.892-12.3,4.155,7.855,5.493,16.285,2.054,24.476" transform="translate(4264.48 -3079.22)" fill="#e0e0e0"/>
      <path id="Path_90591" data-name="Path 90591" d="M50.5,292.775c2.353-7.786,9.482-13.518,17.179-16.148a6.412,6.412,0,0,1,3.011-.451,2.611,2.611,0,0,1,2.22,1.853c.281,1.324-.812,2.511-1.842,3.391A58.484,58.484,0,0,1,50.5,292.775" transform="translate(4265.813 -3082.361)" fill="#e0e0e0"/>
      <path id="Path_90592" data-name="Path 90592" d="M50.6,289.407c.3-5.02.613-10.112,2.245-14.869s4.78-9.218,9.357-11.3c.779,5.07-1.458,10.113-4.155,14.477s-5.949,8.48-7.57,13.346" transform="translate(4265.805 -3085.361)" fill="#e0e0e0"/>
      <path id="Path_90593" data-name="Path 90593" d="M53.228,292.423c-1.945-5.674-2.146-12.88-5.543-17.825-2.375-3.454-6.178-5.808-8.225-9.468a14.4,14.4,0,0,0,.478,10.749,31.1,31.1,0,0,0,6.285,9c2.513,2.685,4.667,4.705,7,7.545" transform="translate(4263.049 -3084.921)" fill="#e0e0e0"/>
      <path id="Path_90594" data-name="Path 90594" d="M50.558,454.738c-.152,0-.282-37.851-.292-84.532-.011-46.7.1-84.539.254-84.539s.282,37.843.292,84.539c.011,46.681-.1,84.532-.254,84.532" transform="translate(4265.758 -3080.143)" fill="#e0e0e0"/>
      <path id="Path_90595" data-name="Path 90595" d="M83.589,330.845a8.21,8.21,0,0,1-1.423.535l-3.918,1.32c-3.3,1.125-7.839,2.755-12.762,4.772-4.875,2.092-9.473,3.791-12.091,6.059a8.89,8.89,0,0,0-2.43,3.214c-.375.889-.443,1.432-.492,1.422a1.075,1.075,0,0,1,.016-.4,5.974,5.974,0,0,1,.277-1.1,8.542,8.542,0,0,1,2.372-3.427,21.269,21.269,0,0,1,5.246-3.259c2.1-.979,4.424-2,6.894-3.015,4.938-2.024,9.51-3.6,12.85-4.634,1.669-.52,3.031-.9,3.975-1.157a8.2,8.2,0,0,1,1.484-.33" transform="translate(4265.803 -3069.631)" fill="#e0e0e0"/>
      <path id="Path_90596" data-name="Path 90596" d="M93.941,309.24a2.346,2.346,0,0,1-.4.425l-1.214,1.142c-1.128,1.024-2.664,2.418-4.534,4.118L72.7,328.363c-5.892,5.245-10.982,10.255-14.51,14.028-1.768,1.884-3.158,3.444-4.107,4.534-.445.505-.806.92-1.1,1.252a2.3,2.3,0,0,1-.41.415,2.292,2.292,0,0,1,.325-.484c.229-.3.562-.758,1.018-1.32.9-1.134,2.251-2.737,3.985-4.66a191.537,191.537,0,0,1,14.43-14.173c5.913-5.232,11.293-9.931,15.2-13.319l4.65-3.989c.518-.429.942-.781,1.281-1.064a2.381,2.381,0,0,1,.473-.343" transform="translate(4266.293 -3074.657)" fill="#e0e0e0"/>
      <path id="Path_90597" data-name="Path 90597" d="M63.744,331.553c-.154-.069,1.076-2.91,2.3-6.5s1.819-6.626,1.977-6.6a22.223,22.223,0,0,1-1.46,6.775,44.187,44.187,0,0,1-1.832,4.549,7.114,7.114,0,0,1-.989,1.78" transform="translate(4268.891 -3072.514)" fill="#e0e0e0"/>
      <path id="Path_90598" data-name="Path 90598" d="M54.672,352.881a6.751,6.751,0,0,1-.908-1.054c-.615-.79-1.4-1.79-2.325-2.982-1.954-2.526-4.655-6.011-7.681-9.825s-5.811-7.237-7.826-9.712l-2.377-2.942a6.6,6.6,0,0,1-.82-1.123,6.866,6.866,0,0,1,.981.985c.606.657,1.464,1.625,2.511,2.831,2.093,2.414,4.926,5.8,7.958,9.621s5.686,7.346,7.563,9.933c.938,1.293,1.685,2.348,2.187,3.088a6.706,6.706,0,0,1,.737,1.18" transform="translate(4261.678 -3070.934)" fill="#e0e0e0"/>
      <path id="Path_90599" data-name="Path 90599" d="M45.357,342.271a13.344,13.344,0,0,1-3.039-5.688,16.265,16.265,0,0,1-.689-5.736l.242.02c-.107.439-.187.669-.231.663s-.046-.252-.009-.7l.242.02a26.065,26.065,0,0,0,.97,5.578,42.484,42.484,0,0,0,2.513,5.844" transform="translate(4263.738 -3069.634)" fill="#e0e0e0"/>
      <path id="Path_90600" data-name="Path 90600" d="M40.145,330.995a9.829,9.829,0,0,0-2.121-1.233,14.194,14.194,0,0,0-5.89-.468,36.338,36.338,0,0,0-5.93.958,17.989,17.989,0,0,1-2.441.586,8.529,8.529,0,0,1,2.336-.958,27.1,27.1,0,0,1,5.995-1.13,12.861,12.861,0,0,1,6.076.655,3.759,3.759,0,0,1,1.976,1.591" transform="translate(4259.59 -3070.136)" fill="#e0e0e0"/>
      <path id="Path_90601" data-name="Path 90601" d="M39.6,328.9c-.042.085-1.235-.5-3.251-1.183a32.71,32.71,0,0,0-16.378-1.249c-2.1.375-3.363.767-3.391.677a3.1,3.1,0,0,1,.862-.367,20.083,20.083,0,0,1,2.454-.689,28.9,28.9,0,0,1,16.586,1.265A20.245,20.245,0,0,1,38.8,328.4a3.119,3.119,0,0,1,.8.494" transform="translate(4257.918 -3070.893)" fill="#e0e0e0"/>
      <path id="Path_90602" data-name="Path 90602" d="M51.27,321.582a67.135,67.135,0,0,1-2.37-8.233,67.168,67.168,0,0,1-1.839-8.368,67.539,67.539,0,0,1,2.369,8.233,67.314,67.314,0,0,1,1.84,8.368" transform="translate(4265.008 -3075.648)" fill="#e0e0e0"/>
      <path id="Path_90603" data-name="Path 90603" d="M51.82,320.133a39.783,39.783,0,0,0-2.627-4.93,21.712,21.712,0,0,0-3.867-3.99,3.611,3.611,0,0,1,1.493.77,12.015,12.015,0,0,1,2.822,2.907,10.933,10.933,0,0,1,2.179,5.243" transform="translate(4264.607 -3074.2)" fill="#e0e0e0"/>
      <path id="Path_90604" data-name="Path 90604" d="M57.049,416.883c-.059.009-.17-.91-.6-2.517a35.916,35.916,0,0,0-2.529-6.553c-2.616-5.345-7.374-12.12-13.42-18.907-3-3.423-5.9-6.653-8.37-9.744a68.367,68.367,0,0,1-5.986-8.633,41.6,41.6,0,0,1-3.021-6.406c-.277-.789-.481-1.405-.593-1.832a3.063,3.063,0,0,1-.155-.653c.048-.016.324.865.947,2.409a47.027,47.027,0,0,0,3.157,6.288,72.586,72.586,0,0,0,6.044,8.512c2.478,3.06,5.388,6.271,8.39,9.7,6.062,6.8,10.811,13.667,13.357,19.1a32.732,32.732,0,0,1,2.386,6.67,18.267,18.267,0,0,1,.335,1.9,3.13,3.13,0,0,1,.055.669" transform="translate(4259.266 -3062.465)" fill="#e0e0e0"/>
      <path id="Path_90605" data-name="Path 90605" d="M80.393,379.067a13.7,13.7,0,0,1-1.567.879,34.336,34.336,0,0,0-4.063,2.686,46.821,46.821,0,0,0-5.336,4.867c-1.872,1.98-3.8,4.276-5.771,6.739-3.936,4.939-7.618,9.31-9.823,12.8-1.119,1.731-1.933,3.19-2.467,4.213a13.629,13.629,0,0,1-.862,1.578,1.48,1.48,0,0,1,.144-.445c.117-.281.275-.7.526-1.227a39.886,39.886,0,0,1,2.331-4.326c2.141-3.574,5.794-8,9.723-12.936,1.974-2.467,3.926-4.769,5.834-6.744a43.318,43.318,0,0,1,5.468-4.828,28.484,28.484,0,0,1,4.2-2.565c.519-.26.943-.42,1.223-.541a1.512,1.512,0,0,1,.443-.149" transform="translate(4265.813 -3058.41)" fill="#e0e0e0"/>
      <path id="Path_90606" data-name="Path 90606" d="M79.125,387.959a22.783,22.783,0,0,1-3.311.481,43.615,43.615,0,0,0-7.852,1.547,23.6,23.6,0,0,0-7.031,3.689c-1.621,1.252-2.385,2.289-2.46,2.227a2.572,2.572,0,0,1,.491-.762,12.445,12.445,0,0,1,1.726-1.765,21.258,21.258,0,0,1,7.106-3.91,35.407,35.407,0,0,1,7.983-1.411,18.143,18.143,0,0,1,3.349-.1" transform="translate(4267.664 -3056.349)" fill="#e0e0e0"/>
      <path id="Path_90607" data-name="Path 90607" d="M59.256,395.539c-.173-.1,1.319-2.377,2.476-5.442,1.086-3.094,1.341-5.806,1.536-5.775a5.252,5.252,0,0,1-.055,1.776,19.034,19.034,0,0,1-.965,4.185,20.308,20.308,0,0,1-1.921,3.839,5.342,5.342,0,0,1-1.071,1.418" transform="translate(4267.846 -3057.187)" fill="#e0e0e0"/>
      <path id="Path_90608" data-name="Path 90608" d="M90.071,355.214a2.493,2.493,0,0,1-.53.282l-1.556.706c-.682.292-1.509.663-2.441,1.155s-2.028.979-3.164,1.662l-1.806,1.027c-.626.361-1.246.788-1.906,1.2-1.331.807-2.665,1.8-4.089,2.819a70.143,70.143,0,0,0-15.75,16.3c-.966,1.457-1.914,2.824-2.676,4.183-.391.673-.8,1.308-1.135,1.946l-.964,1.84c-.643,1.159-1.1,2.267-1.553,3.217s-.8,1.789-1.07,2.479l-.655,1.579a2.565,2.565,0,0,1-.263.54,2.39,2.39,0,0,1,.159-.577c.148-.427.333-.963.558-1.618.239-.705.555-1.559.989-2.525s.863-2.093,1.488-3.269q.451-.9.939-1.869c.332-.647.731-1.291,1.114-1.974.751-1.377,1.691-2.764,2.654-4.241A67.624,67.624,0,0,1,74.279,363.66c1.443-1.012,2.8-2,4.148-2.8.668-.407,1.3-.828,1.933-1.181l1.835-1c1.155-.664,2.264-1.14,3.217-1.6s1.792-.811,2.489-1.075c.648-.248,1.177-.451,1.6-.614a2.494,2.494,0,0,1,.571-.179" transform="translate(4265.813 -3063.96)" fill="#e0e0e0"/>
      <path id="Path_90609" data-name="Path 90609" d="M63.414,368.817a3.8,3.8,0,0,1,1.3-1.937,8.209,8.209,0,0,1,5.241-2.012,14.338,14.338,0,0,1,5.515,1.077,7.89,7.89,0,0,1,2.084,1.013,12.76,12.76,0,0,1-2.211-.647,16.663,16.663,0,0,0-5.371-.9,8.533,8.533,0,0,0-5.006,1.757,15.4,15.4,0,0,0-1.553,1.644" transform="translate(4268.816 -3061.714)" fill="#e0e0e0"/>
      <path id="Path_90610" data-name="Path 90610" d="M60.547,372.9A14,14,0,0,0,61.7,363a3.215,3.215,0,0,1,.614,1.41,10.007,10.007,0,0,1-.846,7.254c-.462.837-.87,1.27-.923,1.232" transform="translate(4268.146 -3062.147)" fill="#e0e0e0"/>
      <path id="Path_90611" data-name="Path 90611" d="M29.295,410.854c.817,14.466,5.175,29.177,11.879,44.049H70.331c6.393-14.726,10.451-29.413,11.172-44.049Z" transform="translate(4260.877 -3051.012)" fill="#e0e0e0"/>
      <path id="Path_90612" data-name="Path 90612" d="M75.909,429.894c0,.152-9.6.274-21.439.274s-21.44-.122-21.44-.274,9.6-.274,21.44-.274,21.439.123,21.439.274" transform="translate(4261.746 -3046.646)" fill="#fafafa"/>
      <path id="Path_90613" data-name="Path 90613" d="M74.875,434.145c0,.152-9,.274-20.1.274s-20.1-.122-20.1-.274,9-.274,20.1-.274,20.1.123,20.1.274" transform="translate(4262.129 -3045.656)" fill="#fafafa"/>
      <path id="Path_90614" data-name="Path 90614" d="M39.366,418.558a41.372,41.372,0,0,1,.274,6.716,41.372,41.372,0,0,1-.274,6.716,82.545,82.545,0,0,1,0-13.431" transform="translate(4263.156 -3049.22)" fill="#fafafa"/>
      <path id="Path_90615" data-name="Path 90615" d="M52.038,418.558a88.515,88.515,0,0,1,0,13.91,88.51,88.51,0,0,1,0-13.91" transform="translate(4266.105 -3049.22)" fill="#fafafa"/>
      <path id="Path_90616" data-name="Path 90616" d="M63.935,418.463a92.075,92.075,0,0,1,0,14.187,92.07,92.07,0,0,1,0-14.187" transform="translate(4268.875 -3049.242)" fill="#fafafa"/>
      <path id="Path_90617" data-name="Path 90617" d="M80.39,418.61c0,.152-11.259.274-25.144.274S30.1,418.761,30.1,418.61s11.256-.274,25.147-.274,25.144.123,25.144.274" transform="translate(4261.064 -3049.271)" fill="#fafafa"/>
    </g>
    <g id="Group_42728" data-name="Group 42728" transform="translate(-342.087 -77.942)">
      <path id="Path_90563-2" data-name="Path 90563" d="M27.411,363.594a36.967,36.967,0,0,0-15.818-5.445c-2.585-.265-5.409-.19-7.482,1.376a1.54,1.54,0,0,0-.77,1.367,1.671,1.671,0,0,0,.732.934c6.436,4.91,16.17,5.53,23.339,1.768" transform="translate(4254.836 -3063.304)" fill="#e0e0e0"/>
      <path id="Path_90564-2" data-name="Path 90564" d="M25.71,366.862a77.2,77.2,0,0,1-10.217-8.989,25.841,25.841,0,0,1-6.405-11.846,4.778,4.778,0,0,1,.505-3.963c8.144,6.359,14.542,14.585,16.116,24.8" transform="translate(4256.131 -3067.02)" fill="#e0e0e0"/>
      <path id="Path_90565-2" data-name="Path 90565" d="M22.894,367.117a36.961,36.961,0,0,1,.19-13.414,18.138,18.138,0,0,1,7.145-11.068c1.409,3.29.8,7.079-.189,10.516a51.094,51.094,0,0,1-7.086,14.917" transform="translate(4259.268 -3066.887)" fill="#e0e0e0"/>
      <path id="Path_90566-2" data-name="Path 90566" d="M33.037,374.1c-4.846.589-9.066,3.143-12.686,6.42A24.006,24.006,0,0,0,13.1,392.975c4.753-.293,8.787-3.645,11.711-7.4s4.952-7.882,8.164-11.4" transform="translate(4257.107 -3059.565)" fill="#e0e0e0"/>
      <path id="Path_90567-2" data-name="Path 90567" d="M31.092,381.541A31.281,31.281,0,0,1,34.7,351.947c2.76,9.821,1.747,20.914-3.613,29.595" transform="translate(4260.789 -3064.72)" fill="#e0e0e0"/>
      <path id="Path_90568-2" data-name="Path 90568" d="M43.382,386.152A22.624,22.624,0,0,0,21.75,398.6c-.267.535-.5,1.215-.145,1.7a1.61,1.61,0,0,0,1.435.422c4.263-.276,8.041-2.841,11.16-5.762s5.833-6.3,9.278-8.821" transform="translate(4259.045 -3056.77)" fill="#e0e0e0"/>
      <path id="Path_90569-2" data-name="Path 90569" d="M39.306,391.248a40.278,40.278,0,0,1-.4-22.505c.793-2.9,2.124-5.946,4.8-7.3a.943.943,0,0,1,.735-.129.975.975,0,0,1,.465.537,13.54,13.54,0,0,1,1.13,6.457,40.143,40.143,0,0,1-1.011,6.537c-.843,3.994-1.292,8.287-3.484,11.733a23.914,23.914,0,0,0-1.392,2.578c-.415.875-.418,1.183-.8,1.88" transform="translate(4262.785 -3062.549)" fill="#e0e0e0"/>
      <path id="Path_90570-2" data-name="Path 90570" d="M61.76,393.644c-2.068-7.868.127-17.408,5.087-23.859.364-.476.847-.985,1.443-.929.913.085,1.15,1.3,1.111,2.218a43.13,43.13,0,0,1-7.641,22.571" transform="translate(4268.25 -3060.786)" fill="#e0e0e0"/>
      <path id="Path_90571-2" data-name="Path 90571" d="M63.657,391.917c9.56,2.488,20.528.069,28.479-5.792a23.065,23.065,0,0,0-15.417-1.892c-5.15,1.179-9.855,3.486-13.062,7.685" transform="translate(4268.873 -3057.338)" fill="#e0e0e0"/>
      <path id="Path_90572-2" data-name="Path 90572" d="M65.379,388.931C70.734,380.2,81,374.5,91.226,373.986c-1.178,4.159-4.6,7.392-8.454,9.346s-8.163,2.8-12.407,3.629c-1.652.321-3.916.673-4.986,1.97" transform="translate(4269.273 -3059.591)" fill="#e0e0e0"/>
      <path id="Path_90573-2" data-name="Path 90573" d="M62.747,371.17c1.45-4.966,2.908-9.977,3.306-15.137s-.338-10.544-3.015-14.972c-5,9.678-5.508,20.985-.441,30.629" transform="translate(4267.797 -3067.253)" fill="#e0e0e0"/>
      <path id="Path_90574-2" data-name="Path 90574" d="M75.706,362.416c5.849-10.63,17.782-19.12,29.856-20.311-4.658,11.6-17.36,20.56-29.856,20.311" transform="translate(4271.676 -3067.01)" fill="#e0e0e0"/>
      <path id="Path_90575-2" data-name="Path 90575" d="M72.721,360.6c8.723,1.329,16.154,6.9,24.305,10.277a10.893,10.893,0,0,0,5.5,1.053,4.3,4.3,0,0,0,2.693-7.609,11.768,11.768,0,0,0-3.991-2.421c-8.878-3.7-18.4-3.789-27.752-1.547" transform="translate(4270.982 -3063.112)" fill="#e0e0e0"/>
      <path id="Path_90576-2" data-name="Path 90576" d="M68.626,365.314c1.975.566,2.649,1.588,4.213,2.919A45.442,45.442,0,0,0,91.271,377.7c.7.175,1.627.245,1.976-.391.3-.556-.08-1.229-.476-1.724a25.377,25.377,0,0,0-11.129-7.554c-4.254-1.584-7.94-3.493-13.016-3.084" transform="translate(4270.029 -3061.708)" fill="#e0e0e0"/>
      <path id="Path_90577-2" data-name="Path 90577" d="M64,335.438a34.883,34.883,0,0,0,26.742,9.1,1.835,1.835,0,0,0,1.218-.438c.673-.732-.134-1.861-.92-2.473-7.862-6.13-17.385-8.672-27.04-6.188" transform="translate(4268.953 -3068.781)" fill="#e0e0e0"/>
      <path id="Path_90578-2" data-name="Path 90578" d="M69.484,334.626a37.276,37.276,0,0,1,33.369-5.507c-4.2,4.142-10.033,6.371-15.9,6.982a50.358,50.358,0,0,1-17.469-1.476" transform="translate(4270.23 -3070.44)" fill="#e0e0e0"/>
      <path id="Path_90579-2" data-name="Path 90579" d="M68.157,323.936c-.772-7.847-.271-14.043-.816-21.927-.043-.63-.179-1.387-.768-1.615-.82-.315-1.5.693-1.774,1.53a25.137,25.137,0,0,0,3.347,21.84" transform="translate(4268.871 -3076.729)" fill="#e0e0e0"/>
      <path id="Path_90580-2" data-name="Path 90580" d="M66.848,324.841a46.142,46.142,0,0,0,13-12.634c2.566-3.513,4.732-7.723,4.148-12.035a12.443,12.443,0,0,0-9.377,4.657,26.179,26.179,0,0,0-4.78,9.618c-1.04,3.453-1.769,7-2.991,10.394" transform="translate(4269.615 -3076.768)" fill="#e0e0e0"/>
      <path id="Path_90581-2" data-name="Path 90581" d="M77.24,321.016a104.832,104.832,0,0,0,31.992-18.864c-3.823-1.54-8.2-.619-12.018.924-8.729,3.523-15.861,9.471-20.141,17.854" transform="translate(4271.996 -3076.491)" fill="#e0e0e0"/>
      <path id="Path_90582-2" data-name="Path 90582" d="M69.762,325.414c5.906.646,11.9,1.066,17.764.086,5.759-.963,11.2-3.244,16.583-5.51a1.943,1.943,0,0,0,1.127-.856,1.3,1.3,0,0,0-.4-1.419,3.423,3.423,0,0,0-1.414-.663c-5.85-1.636-12.164-.87-17.921,1.071a83.091,83.091,0,0,0-15.735,7.29" transform="translate(4270.293 -3073.047)" fill="#e0e0e0"/>
      <path id="Path_90583-2" data-name="Path 90583" d="M42.964,340.386c-4.03-8.133-3.767-17.624-.287-26.006,2.451,3.733,2.75,8.487,2.3,12.93s-1.8,9.016-1.888,13.481" transform="translate(4263.369 -3073.461)" fill="#e0e0e0"/>
      <path id="Path_90584-2" data-name="Path 90584" d="M34.436,328.893A36.269,36.269,0,0,0,7.483,340.376c5.021.788,10.191-.507,14.758-2.737a75.125,75.125,0,0,0,12.649-8.465" transform="translate(4255.801 -3070.085)" fill="#e0e0e0"/>
      <path id="Path_90585-2" data-name="Path 90585" d="M25.355,326.045c-4.921-.4-9.657-1.008-14.388.441S1.929,331.228,0,335.786a26,26,0,0,0,13.489-2.548,77.591,77.591,0,0,0,11.866-7.193" transform="translate(4254.061 -3070.857)" fill="#e0e0e0"/>
      <path id="Path_90586-2" data-name="Path 90586" d="M39.013,327.516c-4.427-2.9-8.973-5.855-14.128-7.056s-11.129-.314-14.723,3.571c4.173,2.448,9.235,2.738,14.074,2.734s10.77-.059,15.331,1.556" transform="translate(4256.426 -3072.163)" fill="#e0e0e0"/>
      <path id="Path_90587-2" data-name="Path 90587" d="M35.211,332.121c-7.569-7.432-10.438-20.783-7.392-30.944a47.162,47.162,0,0,1,7.392,30.944" transform="translate(4260.254 -3076.533)" fill="#e0e0e0"/>
      <path id="Path_90588-2" data-name="Path 90588" d="M50.472,313.807c1.427-3.318,2.431-6.8,3.712-10.18a29.224,29.224,0,0,1,5.293-9.383,13.94,13.94,0,0,1,9.373-4.859A37.753,37.753,0,0,1,50.657,313.86" transform="translate(4265.805 -3079.277)" fill="#e0e0e0"/>
      <path id="Path_90589-2" data-name="Path 90589" d="M51.113,315.274c-2.362-3.252-5.091-7.665-8.295-10.092s-7.374-3.9-11.284-2.963a26.282,26.282,0,0,0,19.579,13.055" transform="translate(4261.398 -3076.357)" fill="#e0e0e0"/>
      <path id="Path_90590-2" data-name="Path 90590" d="M48.784,314.02a56.148,56.148,0,0,1-3.734-12.091c-.626-4.181-.245-8.648,1.892-12.3,4.155,7.855,5.493,16.285,2.054,24.476" transform="translate(4264.48 -3079.22)" fill="#e0e0e0"/>
      <path id="Path_90591-2" data-name="Path 90591" d="M50.5,292.775c2.353-7.786,9.482-13.518,17.179-16.148a6.412,6.412,0,0,1,3.011-.451,2.611,2.611,0,0,1,2.22,1.853c.281,1.324-.812,2.511-1.842,3.391A58.484,58.484,0,0,1,50.5,292.775" transform="translate(4265.813 -3082.361)" fill="#e0e0e0"/>
      <path id="Path_90592-2" data-name="Path 90592" d="M50.6,289.407c.3-5.02.613-10.112,2.245-14.869s4.78-9.218,9.357-11.3c.779,5.07-1.458,10.113-4.155,14.477s-5.949,8.48-7.57,13.346" transform="translate(4265.805 -3085.361)" fill="#e0e0e0"/>
      <path id="Path_90593-2" data-name="Path 90593" d="M53.228,292.423c-1.945-5.674-2.146-12.88-5.543-17.825-2.375-3.454-6.178-5.808-8.225-9.468a14.4,14.4,0,0,0,.478,10.749,31.1,31.1,0,0,0,6.285,9c2.513,2.685,4.667,4.705,7,7.545" transform="translate(4263.049 -3084.921)" fill="#e0e0e0"/>
      <path id="Path_90594-2" data-name="Path 90594" d="M50.558,454.738c-.152,0-.282-37.851-.292-84.532-.011-46.7.1-84.539.254-84.539s.282,37.843.292,84.539c.011,46.681-.1,84.532-.254,84.532" transform="translate(4265.758 -3080.143)" fill="#e0e0e0"/>
      <path id="Path_90595-2" data-name="Path 90595" d="M83.589,330.845a8.21,8.21,0,0,1-1.423.535l-3.918,1.32c-3.3,1.125-7.839,2.755-12.762,4.772-4.875,2.092-9.473,3.791-12.091,6.059a8.89,8.89,0,0,0-2.43,3.214c-.375.889-.443,1.432-.492,1.422a1.075,1.075,0,0,1,.016-.4,5.974,5.974,0,0,1,.277-1.1,8.542,8.542,0,0,1,2.372-3.427,21.269,21.269,0,0,1,5.246-3.259c2.1-.979,4.424-2,6.894-3.015,4.938-2.024,9.51-3.6,12.85-4.634,1.669-.52,3.031-.9,3.975-1.157a8.2,8.2,0,0,1,1.484-.33" transform="translate(4265.803 -3069.631)" fill="#e0e0e0"/>
      <path id="Path_90596-2" data-name="Path 90596" d="M93.941,309.24a2.346,2.346,0,0,1-.4.425l-1.214,1.142c-1.128,1.024-2.664,2.418-4.534,4.118L72.7,328.363c-5.892,5.245-10.982,10.255-14.51,14.028-1.768,1.884-3.158,3.444-4.107,4.534-.445.505-.806.92-1.1,1.252a2.3,2.3,0,0,1-.41.415,2.292,2.292,0,0,1,.325-.484c.229-.3.562-.758,1.018-1.32.9-1.134,2.251-2.737,3.985-4.66a191.537,191.537,0,0,1,14.43-14.173c5.913-5.232,11.293-9.931,15.2-13.319l4.65-3.989c.518-.429.942-.781,1.281-1.064a2.381,2.381,0,0,1,.473-.343" transform="translate(4266.293 -3074.657)" fill="#e0e0e0"/>
      <path id="Path_90597-2" data-name="Path 90597" d="M63.744,331.553c-.154-.069,1.076-2.91,2.3-6.5s1.819-6.626,1.977-6.6a22.223,22.223,0,0,1-1.46,6.775,44.187,44.187,0,0,1-1.832,4.549,7.114,7.114,0,0,1-.989,1.78" transform="translate(4268.891 -3072.514)" fill="#e0e0e0"/>
      <path id="Path_90598-2" data-name="Path 90598" d="M54.672,352.881a6.751,6.751,0,0,1-.908-1.054c-.615-.79-1.4-1.79-2.325-2.982-1.954-2.526-4.655-6.011-7.681-9.825s-5.811-7.237-7.826-9.712l-2.377-2.942a6.6,6.6,0,0,1-.82-1.123,6.866,6.866,0,0,1,.981.985c.606.657,1.464,1.625,2.511,2.831,2.093,2.414,4.926,5.8,7.958,9.621s5.686,7.346,7.563,9.933c.938,1.293,1.685,2.348,2.187,3.088a6.706,6.706,0,0,1,.737,1.18" transform="translate(4261.678 -3070.934)" fill="#e0e0e0"/>
      <path id="Path_90599-2" data-name="Path 90599" d="M45.357,342.271a13.344,13.344,0,0,1-3.039-5.688,16.265,16.265,0,0,1-.689-5.736l.242.02c-.107.439-.187.669-.231.663s-.046-.252-.009-.7l.242.02a26.065,26.065,0,0,0,.97,5.578,42.484,42.484,0,0,0,2.513,5.844" transform="translate(4263.738 -3069.634)" fill="#e0e0e0"/>
      <path id="Path_90600-2" data-name="Path 90600" d="M40.145,330.995a9.829,9.829,0,0,0-2.121-1.233,14.194,14.194,0,0,0-5.89-.468,36.338,36.338,0,0,0-5.93.958,17.989,17.989,0,0,1-2.441.586,8.529,8.529,0,0,1,2.336-.958,27.1,27.1,0,0,1,5.995-1.13,12.861,12.861,0,0,1,6.076.655,3.759,3.759,0,0,1,1.976,1.591" transform="translate(4259.59 -3070.136)" fill="#e0e0e0"/>
      <path id="Path_90601-2" data-name="Path 90601" d="M39.6,328.9c-.042.085-1.235-.5-3.251-1.183a32.71,32.71,0,0,0-16.378-1.249c-2.1.375-3.363.767-3.391.677a3.1,3.1,0,0,1,.862-.367,20.083,20.083,0,0,1,2.454-.689,28.9,28.9,0,0,1,16.586,1.265A20.245,20.245,0,0,1,38.8,328.4a3.119,3.119,0,0,1,.8.494" transform="translate(4257.918 -3070.893)" fill="#e0e0e0"/>
      <path id="Path_90602-2" data-name="Path 90602" d="M51.27,321.582a67.135,67.135,0,0,1-2.37-8.233,67.168,67.168,0,0,1-1.839-8.368,67.539,67.539,0,0,1,2.369,8.233,67.314,67.314,0,0,1,1.84,8.368" transform="translate(4265.008 -3075.648)" fill="#e0e0e0"/>
      <path id="Path_90603-2" data-name="Path 90603" d="M51.82,320.133a39.783,39.783,0,0,0-2.627-4.93,21.712,21.712,0,0,0-3.867-3.99,3.611,3.611,0,0,1,1.493.77,12.015,12.015,0,0,1,2.822,2.907,10.933,10.933,0,0,1,2.179,5.243" transform="translate(4264.607 -3074.2)" fill="#e0e0e0"/>
      <path id="Path_90604-2" data-name="Path 90604" d="M57.049,416.883c-.059.009-.17-.91-.6-2.517a35.916,35.916,0,0,0-2.529-6.553c-2.616-5.345-7.374-12.12-13.42-18.907-3-3.423-5.9-6.653-8.37-9.744a68.367,68.367,0,0,1-5.986-8.633,41.6,41.6,0,0,1-3.021-6.406c-.277-.789-.481-1.405-.593-1.832a3.063,3.063,0,0,1-.155-.653c.048-.016.324.865.947,2.409a47.027,47.027,0,0,0,3.157,6.288,72.586,72.586,0,0,0,6.044,8.512c2.478,3.06,5.388,6.271,8.39,9.7,6.062,6.8,10.811,13.667,13.357,19.1a32.732,32.732,0,0,1,2.386,6.67,18.267,18.267,0,0,1,.335,1.9,3.13,3.13,0,0,1,.055.669" transform="translate(4259.266 -3062.465)" fill="#e0e0e0"/>
      <path id="Path_90605-2" data-name="Path 90605" d="M80.393,379.067a13.7,13.7,0,0,1-1.567.879,34.336,34.336,0,0,0-4.063,2.686,46.821,46.821,0,0,0-5.336,4.867c-1.872,1.98-3.8,4.276-5.771,6.739-3.936,4.939-7.618,9.31-9.823,12.8-1.119,1.731-1.933,3.19-2.467,4.213a13.629,13.629,0,0,1-.862,1.578,1.48,1.48,0,0,1,.144-.445c.117-.281.275-.7.526-1.227a39.886,39.886,0,0,1,2.331-4.326c2.141-3.574,5.794-8,9.723-12.936,1.974-2.467,3.926-4.769,5.834-6.744a43.318,43.318,0,0,1,5.468-4.828,28.484,28.484,0,0,1,4.2-2.565c.519-.26.943-.42,1.223-.541a1.512,1.512,0,0,1,.443-.149" transform="translate(4265.813 -3058.41)" fill="#e0e0e0"/>
      <path id="Path_90606-2" data-name="Path 90606" d="M79.125,387.959a22.783,22.783,0,0,1-3.311.481,43.615,43.615,0,0,0-7.852,1.547,23.6,23.6,0,0,0-7.031,3.689c-1.621,1.252-2.385,2.289-2.46,2.227a2.572,2.572,0,0,1,.491-.762,12.445,12.445,0,0,1,1.726-1.765,21.258,21.258,0,0,1,7.106-3.91,35.407,35.407,0,0,1,7.983-1.411,18.143,18.143,0,0,1,3.349-.1" transform="translate(4267.664 -3056.349)" fill="#e0e0e0"/>
      <path id="Path_90607-2" data-name="Path 90607" d="M59.256,395.539c-.173-.1,1.319-2.377,2.476-5.442,1.086-3.094,1.341-5.806,1.536-5.775a5.252,5.252,0,0,1-.055,1.776,19.034,19.034,0,0,1-.965,4.185,20.308,20.308,0,0,1-1.921,3.839,5.342,5.342,0,0,1-1.071,1.418" transform="translate(4267.846 -3057.187)" fill="#e0e0e0"/>
      <path id="Path_90608-2" data-name="Path 90608" d="M90.071,355.214a2.493,2.493,0,0,1-.53.282l-1.556.706c-.682.292-1.509.663-2.441,1.155s-2.028.979-3.164,1.662l-1.806,1.027c-.626.361-1.246.788-1.906,1.2-1.331.807-2.665,1.8-4.089,2.819a70.143,70.143,0,0,0-15.75,16.3c-.966,1.457-1.914,2.824-2.676,4.183-.391.673-.8,1.308-1.135,1.946l-.964,1.84c-.643,1.159-1.1,2.267-1.553,3.217s-.8,1.789-1.07,2.479l-.655,1.579a2.565,2.565,0,0,1-.263.54,2.39,2.39,0,0,1,.159-.577c.148-.427.333-.963.558-1.618.239-.705.555-1.559.989-2.525s.863-2.093,1.488-3.269q.451-.9.939-1.869c.332-.647.731-1.291,1.114-1.974.751-1.377,1.691-2.764,2.654-4.241A67.624,67.624,0,0,1,74.279,363.66c1.443-1.012,2.8-2,4.148-2.8.668-.407,1.3-.828,1.933-1.181l1.835-1c1.155-.664,2.264-1.14,3.217-1.6s1.792-.811,2.489-1.075c.648-.248,1.177-.451,1.6-.614a2.494,2.494,0,0,1,.571-.179" transform="translate(4265.813 -3063.96)" fill="#e0e0e0"/>
      <path id="Path_90609-2" data-name="Path 90609" d="M63.414,368.817a3.8,3.8,0,0,1,1.3-1.937,8.209,8.209,0,0,1,5.241-2.012,14.338,14.338,0,0,1,5.515,1.077,7.89,7.89,0,0,1,2.084,1.013,12.76,12.76,0,0,1-2.211-.647,16.663,16.663,0,0,0-5.371-.9,8.533,8.533,0,0,0-5.006,1.757,15.4,15.4,0,0,0-1.553,1.644" transform="translate(4268.816 -3061.714)" fill="#e0e0e0"/>
      <path id="Path_90610-2" data-name="Path 90610" d="M60.547,372.9A14,14,0,0,0,61.7,363a3.215,3.215,0,0,1,.614,1.41,10.007,10.007,0,0,1-.846,7.254c-.462.837-.87,1.27-.923,1.232" transform="translate(4268.146 -3062.147)" fill="#e0e0e0"/>
      <path id="Path_90611-2" data-name="Path 90611" d="M29.295,410.854c.817,14.466,5.175,29.177,11.879,44.049H70.331c6.393-14.726,10.451-29.413,11.172-44.049Z" transform="translate(4260.877 -3051.012)" fill="#e0e0e0"/>
      <path id="Path_90612-2" data-name="Path 90612" d="M75.909,429.894c0,.152-9.6.274-21.439.274s-21.44-.122-21.44-.274,9.6-.274,21.44-.274,21.439.123,21.439.274" transform="translate(4261.746 -3046.646)" fill="#fafafa"/>
      <path id="Path_90613-2" data-name="Path 90613" d="M74.875,434.145c0,.152-9,.274-20.1.274s-20.1-.122-20.1-.274,9-.274,20.1-.274,20.1.123,20.1.274" transform="translate(4262.129 -3045.656)" fill="#fafafa"/>
      <path id="Path_90614-2" data-name="Path 90614" d="M39.366,418.558a41.372,41.372,0,0,1,.274,6.716,41.372,41.372,0,0,1-.274,6.716,82.545,82.545,0,0,1,0-13.431" transform="translate(4263.156 -3049.22)" fill="#fafafa"/>
      <path id="Path_90615-2" data-name="Path 90615" d="M52.038,418.558a88.515,88.515,0,0,1,0,13.91,88.51,88.51,0,0,1,0-13.91" transform="translate(4266.105 -3049.22)" fill="#fafafa"/>
      <path id="Path_90616-2" data-name="Path 90616" d="M63.935,418.463a92.075,92.075,0,0,1,0,14.187,92.07,92.07,0,0,1,0-14.187" transform="translate(4268.875 -3049.242)" fill="#fafafa"/>
      <path id="Path_90617-2" data-name="Path 90617" d="M80.39,418.61c0,.152-11.259.274-25.144.274S30.1,418.761,30.1,418.61s11.256-.274,25.147-.274,25.144.123,25.144.274" transform="translate(4261.064 -3049.271)" fill="#fafafa"/>
    </g>
    <g id="Group_42651" data-name="Group 42651" transform="translate(136.226 -160.502)">
      <path id="Path_90618" data-name="Path 90618" d="M152.682,88.1a45.348,45.348,0,0,0-6.525,15.8l-8.757.859v17l8.757.859a46.731,46.731,0,0,0,6.525,15.8l-5.666,6.868,12.02,12.02,6.868-5.666a45.348,45.348,0,0,0,15.8,6.525l.859,8.757h17l.859-8.757a46.731,46.731,0,0,0,15.8-6.525l6.868,5.666,12.02-12.02-5.666-6.868a45.348,45.348,0,0,0,6.525-15.8l8.757-.859v-17l-8.757-.859a46.73,46.73,0,0,0-6.525-15.8l5.666-6.868-12.02-12.02-6.868,5.666a45.348,45.348,0,0,0-15.8-6.525L199.56,59.6h-17l-.859,8.757a46.731,46.731,0,0,0-15.8,6.525l-6.868-5.666-12.02,12.02Zm54.6,8.929a23.069,23.069,0,1,1-32.625,0A22.906,22.906,0,0,1,207.287,97.033Z" transform="translate(3607.564 -2925.146)" fill="#f5f5f5"/>
      <path id="Path_90396" data-name="Path 90396" d="M232.2,670.211l-176.726.122A50.476,50.476,0,0,1,4.974,619.9L4.69,187.428a50.463,50.463,0,0,1,50.435-50.5l176.726-.122a50.476,50.476,0,0,1,50.5,50.435l.264,432.47a50.476,50.476,0,0,1-50.435,50.5Z" transform="translate(3520.316 -3174.881)" fill="#204490"/>
      <path id="Path_90397" data-name="Path 90397" d="M227.354,655.588l-180.375.122a35.51,35.51,0,0,1-35.516-35.475L11.18,178.277a35.51,35.51,0,0,1,35.475-35.516l180.375-.122a35.51,35.51,0,0,1,35.516,35.475l.284,441.957a35.509,35.509,0,0,1-35.475,35.515Z" transform="translate(3526.982 -3168.893)" fill="#fff"/>
      <path id="Path_90398" data-name="Path 90398" d="M7.865,235.277h0A7.86,7.86,0,0,1,0,227.412V186.585a7.86,7.86,0,0,1,7.865-7.865h0a7.86,7.86,0,0,1,7.865,7.865v40.827A7.86,7.86,0,0,1,7.865,235.277Z" transform="translate(3515.499 -3131.834)" fill="#204490"/>
      <path id="Path_90399" data-name="Path 90399" d="M146.4,235.277h0a7.86,7.86,0,0,1-7.865-7.865V186.585a7.86,7.86,0,0,1,7.865-7.865h0a7.86,7.86,0,0,1,7.865,7.865v40.827A7.86,7.86,0,0,1,146.4,235.277Z" transform="translate(3657.789 -3131.834)" fill="#204490"/>
      <g id="Group_42652" data-name="Group 42652" transform="translate(0 18.507)">
        <circle id="Ellipse_2835" data-name="Ellipse 2835" cx="56.192" cy="56.192" r="56.192" transform="translate(3607.592 -2952.384)" fill="#c5deff"/>
        <path id="Union_13" data-name="Union 13" d="M-136.226,225.986c2.244-13.879,11.819-26.53,26.191-30.637a22.044,22.044,0,0,1-11.624-23.1,22.036,22.036,0,0,1,25.272-18.233,22.034,22.034,0,0,1,18.232,25.271A22,22,0,0,1-89.7,195.305a35.408,35.408,0,0,1,26.11,30.56s-12.3,13.36-36.306,13.562l-.529,0C-124.081,239.429-136.226,225.986-136.226,225.986Z" transform="translate(3763.704 -3079.426)" fill="url(#linear-gradient)"/>
      </g>
      <g id="UPI" transform="translate(3633.958 -3000.497)">
        <path id="Path_60813" data-name="Path 60813" d="M2049.578,67.9c-.1.378-.2.757-.307,1.135q-1.7,6.151-3.407,12.3-.364,1.307-.726,2.616c-.017.062-.038.092-.112.092q-1.522,0-3.045,0c-.023,0-.049,0-.082-.006.1-.348.189-.691.283-1.034q1.4-5.053,2.8-10.1.683-2.462,1.363-4.925c.007-.024.009-.049.013-.073Q2047.967,67.9,2049.578,67.9Z" transform="translate(-1999.134 -67.9)" fill="#66686c"/>
        <path id="Path_60814" data-name="Path 60814" d="M1046.871,70.092h8.676a1.921,1.921,0,0,1,.53.058,1.1,1.1,0,0,1,.8,1.182,6.285,6.285,0,0,1-.253,1.049c-.53,1.927-1.06,3.856-1.6,5.779a2.19,2.19,0,0,1-1.751,1.605,1.957,1.957,0,0,1-.448.03q-7.1,0-14.2,0c-.114,0-.15.036-.178.137q-.856,3.113-1.719,6.225a.118.118,0,0,1-.137.105q-1.5-.006-2.991,0c-.11,0-.114-.03-.088-.122q.975-3.5,1.944-7.006c.221-.8.444-1.6.663-2.4.022-.077.049-.107.135-.107,1.008,0,2.017,0,3.023,0q6.425,0,12.847.009c.092,0,.118-.032.142-.114q.431-1.568.869-3.133c.036-.131.036-.131-.1-.131h-15.787c-.028,0-.058,0-.086,0-.064.006-.079-.017-.062-.079q.419-1.5.833-3.008c.019-.067.054-.079.114-.077.414,0,.83,0,1.245,0Z" transform="translate(-1012.365 -70.043)" fill="#65676b"/>
        <path id="Path_60815" data-name="Path 60815" d="M58.439,86.371H50.193a1.32,1.32,0,0,1-.749-.178,1.087,1.087,0,0,1-.509-1.092,7.251,7.251,0,0,1,.3-1.18Q50.51,79.3,51.8,74.691q.612-2.2,1.221-4.4c.019-.071.049-.092.124-.092q1.5,0,2.991,0c.131,0,.131,0,.1.124q-.892,3.2-1.781,6.408-.885,3.177-1.768,6.356c-.034.122-.034.122.1.122q6.312,0,12.622,0a.135.135,0,0,0,.159-.118q1.31-4.728,2.624-9.457.464-1.667.925-3.339a.114.114,0,0,1,.133-.1q1.5,0,3,0c.1,0,.107.028.082.116q-.93,3.331-1.852,6.663-1.149,4.13-2.3,8.262a1.484,1.484,0,0,1-1.5,1.133Q62.56,86.372,58.439,86.371Z" transform="translate(-48.928 -70.151)" fill="#65676b"/>
        <g id="Group_24483" data-name="Group 24483" transform="translate(48.657 0.043)">
          <path id="Path_60816" data-name="Path 60816" d="M2320.267,82.919c-.174.159-.347.318-.519.479q-1.635,1.545-3.272,3.092c-.017.017-.037.034-.075.069q2.25-8.1,4.487-16.158a.21.21,0,0,1,.065.1q.859,1.709,1.721,3.42c.017.034.039.067.058.1.047.021.058.071.079.112.53,1.058,1.056,2.116,1.59,3.172q.264.521.53,1.041a.164.164,0,0,1-.034.225c-.378.361-.753.721-1.137,1.073q-.212.2-.418.4c-.341.33-.691.652-1.034.981-.4.378-.794.751-1.191,1.127-.251.238-.506.472-.756.715C2320.335,82.887,2320.313,82.921,2320.267,82.919Z" transform="translate(-2316.4 -70.389)" fill="#e8661c"/>
          <path id="Path_60817" data-name="Path 60817" d="M2451.294,82.43c.373-.358.747-.717,1.125-1.073q.73-.692,1.465-1.382,1.014-.956,2.026-1.912a.133.133,0,0,0,.03-.189q-1.068-2.115-2.131-4.234c-.017-.034-.03-.071-.047-.107.129-.459.26-.918.388-1.378.2-.721.4-1.442.6-2.163.007-.028.017-.054.03-.092.191.38.378.749.564,1.118q1.728,3.438,3.461,6.875a.111.111,0,0,1-.026.161q-2.961,2.794-5.923,5.594l-2.461,2.326a.2.2,0,0,1-.1.069c.058-.212.115-.416.171-.622q.409-1.477.82-2.955A.181.181,0,0,1,2451.294,82.43Z" transform="translate(-2447.427 -69.9)" fill="#277f3b"/>
        </g>
      </g>
      <g id="Group_42729" data-name="Group 42729" transform="translate(-130.672 173.586)">
        <path id="Integrated_Suite" data-name="Integrated Suite" d="M6.446,0-.2-15.4h3.85L9.46-1.76H7.194l5.9-13.64h3.542L9.966,0ZM22.66.176a7.62,7.62,0,0,1-3.553-.792,5.839,5.839,0,0,1-2.365-2.167,5.914,5.914,0,0,1-.836-3.135,6.016,6.016,0,0,1,.825-3.157,5.849,5.849,0,0,1,2.255-2.156,6.636,6.636,0,0,1,3.234-.781,6.614,6.614,0,0,1,3.135.737,5.518,5.518,0,0,1,2.211,2.112,6.342,6.342,0,0,1,.814,3.289q0,.2-.022.451t-.044.473H18.7v-2h7.81l-1.32.594a3.29,3.29,0,0,0-.374-1.606,2.73,2.73,0,0,0-1.034-1.067,3,3,0,0,0-1.54-.385,3.061,3.061,0,0,0-1.551.385,2.689,2.689,0,0,0-1.045,1.078,3.4,3.4,0,0,0-.374,1.639v.528A3.327,3.327,0,0,0,19.7-4.081a2.8,2.8,0,0,0,1.21,1.122,4.11,4.11,0,0,0,1.837.385,4.452,4.452,0,0,0,1.661-.286,4.046,4.046,0,0,0,1.309-.858l1.826,1.98A5.319,5.319,0,0,1,25.5-.319,7.57,7.57,0,0,1,22.66.176ZM30.668,0V-11.836h3.278v3.344l-.462-.968a3.8,3.8,0,0,1,1.694-1.9,5.758,5.758,0,0,1,2.838-.649v3.168q-.22-.022-.4-.033t-.374-.011a3.222,3.222,0,0,0-2.277.8,3.246,3.246,0,0,0-.869,2.5V0Zm9.394,0V-11.836h3.432V0Zm1.716-13.486a2.177,2.177,0,0,1-1.54-.55,1.784,1.784,0,0,1-.594-1.364,1.784,1.784,0,0,1,.594-1.364,2.177,2.177,0,0,1,1.54-.55,2.261,2.261,0,0,1,1.54.517,1.684,1.684,0,0,1,.594,1.331,1.885,1.885,0,0,1-.583,1.419A2.143,2.143,0,0,1,41.778-13.486ZM47.1,0V-12.1a4.349,4.349,0,0,1,1.188-3.2,4.559,4.559,0,0,1,3.388-1.2,6.624,6.624,0,0,1,1.441.154,3.365,3.365,0,0,1,1.177.484l-.9,2.486a2.338,2.338,0,0,0-.638-.308,2.494,2.494,0,0,0-.748-.11,1.516,1.516,0,0,0-1.155.429,1.807,1.807,0,0,0-.407,1.287v1.1L50.534-9.5V0ZM45.276-8.932v-2.64h8.206v2.64ZM55.418,0V-11.836H58.85V0Zm1.716-13.486a2.177,2.177,0,0,1-1.54-.55A1.784,1.784,0,0,1,55-15.4a1.784,1.784,0,0,1,.594-1.364,2.177,2.177,0,0,1,1.54-.55,2.261,2.261,0,0,1,1.54.517,1.684,1.684,0,0,1,.594,1.331,1.885,1.885,0,0,1-.583,1.419A2.143,2.143,0,0,1,57.134-13.486ZM67.892.176a7.62,7.62,0,0,1-3.553-.792,5.839,5.839,0,0,1-2.365-2.167,5.914,5.914,0,0,1-.836-3.135,6.016,6.016,0,0,1,.825-3.157,5.849,5.849,0,0,1,2.255-2.156,6.636,6.636,0,0,1,3.234-.781,6.614,6.614,0,0,1,3.135.737A5.518,5.518,0,0,1,72.8-9.163a6.342,6.342,0,0,1,.814,3.289q0,.2-.022.451t-.044.473H63.932v-2h7.81l-1.32.594a3.289,3.289,0,0,0-.374-1.606,2.73,2.73,0,0,0-1.034-1.067,3,3,0,0,0-1.54-.385,3.061,3.061,0,0,0-1.551.385,2.689,2.689,0,0,0-1.045,1.078A3.4,3.4,0,0,0,64.5-6.314v.528a3.327,3.327,0,0,0,.429,1.705,2.8,2.8,0,0,0,1.21,1.122,4.11,4.11,0,0,0,1.837.385,4.452,4.452,0,0,0,1.661-.286,4.046,4.046,0,0,0,1.309-.858l1.826,1.98A5.319,5.319,0,0,1,70.73-.319,7.57,7.57,0,0,1,67.892.176Zm13.09,0a6.014,6.014,0,0,1-3.014-.759,5.57,5.57,0,0,1-2.123-2.123,6.354,6.354,0,0,1-.781-3.212,6.4,6.4,0,0,1,.781-3.234,5.491,5.491,0,0,1,2.123-2.112,6.084,6.084,0,0,1,3.014-.748,5.068,5.068,0,0,1,2.618.66,4.337,4.337,0,0,1,1.738,2,8.259,8.259,0,0,1,.616,3.432A8.545,8.545,0,0,1,85.36-2.5,4.231,4.231,0,0,1,83.655-.484,5.142,5.142,0,0,1,80.982.176Zm.594-2.816a2.968,2.968,0,0,0,1.518-.4,2.9,2.9,0,0,0,1.089-1.133,3.564,3.564,0,0,0,.407-1.749,3.549,3.549,0,0,0-.407-1.76A2.914,2.914,0,0,0,83.094-8.8a2.968,2.968,0,0,0-1.518-.4,3.01,3.01,0,0,0-1.54.4,2.914,2.914,0,0,0-1.089,1.122,3.549,3.549,0,0,0-.407,1.76,3.564,3.564,0,0,0,.407,1.749,2.9,2.9,0,0,0,1.089,1.133A3.01,3.01,0,0,0,81.576-2.64ZM84.678,0V-2.42l.066-3.52-.22-3.5v-6.886h3.432V0Z" transform="translate(3767.5 -2936)" fill="#096ef2"/>
        <path id="Icon_material-round-verified" data-name="Icon material-round-verified" d="M27.036,14.438,24.2,11.2,24.6,6.916l-4.19-.952L18.215,2.25,14.268,3.945,10.322,2.25l-2.194,3.7-4.19.94.395,4.295L1.5,14.438l2.832,3.238-.395,4.295,4.19.952,2.194,3.7,3.947-1.706,3.947,1.695,2.194-3.7,4.19-.952L24.2,17.676ZM11.227,19.092,8.464,16.307a1.156,1.156,0,0,1,0-1.637l.081-.081a1.17,1.17,0,0,1,1.648,0l1.869,1.88,5.978-5.989a1.17,1.17,0,0,1,1.648,0l.081.081a1.156,1.156,0,0,1,0,1.637L12.9,19.092a1.2,1.2,0,0,1-1.671,0Z" transform="translate(3721.936 -2958.438)" fill="#096ef2"/>
      </g>
      <path id="Integrated_Suite-2" data-name="Integrated Suite" d="M2.324,0V-9.24l.6.658H.112V-9.8h3.6V0ZM5.7,0V-.952L9.688-4.8a5.614,5.614,0,0,0,.791-.889,2.506,2.506,0,0,0,.35-.714,2.386,2.386,0,0,0,.091-.637,1.453,1.453,0,0,0-.532-1.19,2.409,2.409,0,0,0-1.554-.434,3.688,3.688,0,0,0-1.414.259,2.824,2.824,0,0,0-1.092.8l-.952-.826a3.582,3.582,0,0,1,1.5-1.1A5.46,5.46,0,0,1,8.96-9.912a4.429,4.429,0,0,1,1.778.329,2.627,2.627,0,0,1,1.169.945,2.553,2.553,0,0,1,.413,1.456,3.549,3.549,0,0,1-.126.938,3.359,3.359,0,0,1-.476.98A7.828,7.828,0,0,1,10.71-4.1L7.154-.672l-.336-.546H12.74V0ZM16.884.112A6.353,6.353,0,0,1,14.875-.21a4.489,4.489,0,0,1-1.589-.868l.644-1.106a3.751,3.751,0,0,0,1.274.756,4.745,4.745,0,0,0,1.68.294,2.73,2.73,0,0,0,1.7-.469,1.515,1.515,0,0,0,.609-1.267,1.514,1.514,0,0,0-.581-1.239,2.923,2.923,0,0,0-1.841-.469h-.784v-.98L18.9-9.142l.2.56H13.734V-9.8H20.2v.952l-2.9,3.57-.728-.434h.462a3.884,3.884,0,0,1,2.667.8,2.608,2.608,0,0,1,.889,2.03,2.914,2.914,0,0,1-.406,1.512A2.8,2.8,0,0,1,18.963-.287,4.744,4.744,0,0,1,16.884.112Zm4.872-2.52v-.98L26.768-9.8H28.28L23.31-3.388,22.6-3.612h7.826v1.2ZM27.2,0V-2.408l.042-1.2V-5.74H28.56V0Zm7.21.112A6.353,6.353,0,0,1,32.4-.21a4.489,4.489,0,0,1-1.589-.868l.644-1.106a3.751,3.751,0,0,0,1.274.756,4.705,4.705,0,0,0,1.666.294A2.721,2.721,0,0,0,36.12-1.61a1.541,1.541,0,0,0,.6-1.274,1.7,1.7,0,0,0-.266-.952,1.681,1.681,0,0,0-.917-.623,5.848,5.848,0,0,0-1.785-.217H31.528L32.046-9.8h5.53v1.218H32.564l.728-.686-.406,4.046-.728-.672h1.89a6.179,6.179,0,0,1,2.366.378,2.681,2.681,0,0,1,1.3,1.043,2.883,2.883,0,0,1,.406,1.533,2.977,2.977,0,0,1-.406,1.533A2.868,2.868,0,0,1,36.491-.3,4.606,4.606,0,0,1,34.412.112Zm8.988,0a4.136,4.136,0,0,1-2.226-.574,3.629,3.629,0,0,1-1.407-1.659,6.51,6.51,0,0,1-.483-2.653,6.122,6.122,0,0,1,.588-2.814A4.043,4.043,0,0,1,41.51-9.324a4.844,4.844,0,0,1,2.408-.588,6.214,6.214,0,0,1,1.337.14,3.383,3.383,0,0,1,1.1.434l-.532,1.092a2.257,2.257,0,0,0-.861-.364,5.1,5.1,0,0,0-1.015-.1,3.123,3.123,0,0,0-2.38.931,3.881,3.881,0,0,0-.882,2.765q0,.294.028.7a3.865,3.865,0,0,0,.14.8l-.476-.476a2.609,2.609,0,0,1,.665-1.085,2.879,2.879,0,0,1,1.092-.658,4.25,4.25,0,0,1,1.379-.217,3.955,3.955,0,0,1,1.736.364,2.878,2.878,0,0,1,1.19,1.029,2.817,2.817,0,0,1,.434,1.575,2.9,2.9,0,0,1-.462,1.638A3.045,3.045,0,0,1,45.164-.266,4.01,4.01,0,0,1,43.4.112Zm-.056-1.134a2.521,2.521,0,0,0,1.127-.238,1.891,1.891,0,0,0,.763-.665,1.784,1.784,0,0,0,.28-1,1.715,1.715,0,0,0-.6-1.379,2.45,2.45,0,0,0-1.638-.511,2.6,2.6,0,0,0-1.176.252,2.015,2.015,0,0,0-.791.679,1.7,1.7,0,0,0-.287.973,1.727,1.727,0,0,0,.266.931,1.937,1.937,0,0,0,.784.693A2.767,2.767,0,0,0,43.344-1.022ZM49.518,0l4.158-9.212.364.63H48.216l.7-.686v2.436H47.572V-9.8h7.392v.952L51,0ZM59.766.112a5.49,5.49,0,0,1-2.058-.35,3.008,3.008,0,0,1-1.344-1,2.527,2.527,0,0,1-.476-1.533,2.4,2.4,0,0,1,.455-1.477,2.779,2.779,0,0,1,1.323-.924,6.181,6.181,0,0,1,2.1-.315,6.243,6.243,0,0,1,2.107.315,2.8,2.8,0,0,1,1.337.931,2.38,2.38,0,0,1,.462,1.47A2.527,2.527,0,0,1,63.2-1.239a3,3,0,0,1-1.358,1A5.6,5.6,0,0,1,59.766.112Zm0-1.134A3.082,3.082,0,0,0,61.607-1.5a1.534,1.534,0,0,0,.665-1.309,1.486,1.486,0,0,0-.665-1.281,3.151,3.151,0,0,0-1.841-.469,3.09,3.09,0,0,0-1.82.469,1.49,1.49,0,0,0-.658,1.281A1.539,1.539,0,0,0,57.946-1.5,3.022,3.022,0,0,0,59.766-1.022Zm0-3.71a5.327,5.327,0,0,1-1.9-.3,2.618,2.618,0,0,1-1.2-.868,2.206,2.206,0,0,1-.42-1.351,2.32,2.32,0,0,1,.441-1.421,2.8,2.8,0,0,1,1.239-.917,4.913,4.913,0,0,1,1.848-.322,4.954,4.954,0,0,1,1.862.322,2.85,2.85,0,0,1,1.246.917,2.3,2.3,0,0,1,.448,1.421A2.206,2.206,0,0,1,62.9-5.9a2.613,2.613,0,0,1-1.218.868A5.444,5.444,0,0,1,59.766-4.732Zm0-.9a2.692,2.692,0,0,0,1.6-.42A1.341,1.341,0,0,0,61.95-7.2a1.34,1.34,0,0,0-.6-1.162,2.711,2.711,0,0,0-1.582-.42,2.612,2.612,0,0,0-1.561.42A1.354,1.354,0,0,0,57.624-7.2a1.352,1.352,0,0,0,.567,1.148A2.6,2.6,0,0,0,59.766-5.628ZM70.168,0V-1.568l-.07-.294V-4.536a1.731,1.731,0,0,0-.5-1.323,2.1,2.1,0,0,0-1.491-.469,3.929,3.929,0,0,0-1.288.217,3.318,3.318,0,0,0-1.064.581L65.2-6.538a4.055,4.055,0,0,1,1.379-.707,5.762,5.762,0,0,1,1.687-.245,3.4,3.4,0,0,1,2.352.742,2.9,2.9,0,0,1,.826,2.268V0ZM67.732.084A3.505,3.505,0,0,1,66.283-.2a2.222,2.222,0,0,1-.959-.777A1.966,1.966,0,0,1,64.988-2.1a2.12,2.12,0,0,1,.287-1.092,1.988,1.988,0,0,1,.938-.784A4.338,4.338,0,0,1,67.97-4.27h2.352V-3.3h-2.3a2.006,2.006,0,0,0-1.358.336,1.084,1.084,0,0,0-.35.812,1.044,1.044,0,0,0,.434.875,1.953,1.953,0,0,0,1.2.329,2.546,2.546,0,0,0,1.323-.336,1.911,1.911,0,0,0,.819-.98l.266.924A2.09,2.09,0,0,1,69.426-.3,3.37,3.37,0,0,1,67.732.084Zm10.136,0a3.451,3.451,0,0,1-1.715-.427,3.013,3.013,0,0,1-1.2-1.267,4.486,4.486,0,0,1-.441-2.1,4.37,4.37,0,0,1,.455-2.1,3.054,3.054,0,0,1,1.218-1.26,3.44,3.44,0,0,1,1.687-.42,3.85,3.85,0,0,1,1.932.476,3.515,3.515,0,0,1,1.33,1.323,3.886,3.886,0,0,1,.49,1.981,3.924,3.924,0,0,1-.49,1.988A3.5,3.5,0,0,1,79.8-.392,3.85,3.85,0,0,1,77.868.084ZM73.934,0V-10.388h1.344v4.942l-.14,1.722L75.222-2V0Zm3.822-1.092a2.548,2.548,0,0,0,1.281-.322,2.321,2.321,0,0,0,.9-.917,2.8,2.8,0,0,0,.329-1.379,2.754,2.754,0,0,0-.329-1.379,2.347,2.347,0,0,0-.9-.9,2.548,2.548,0,0,0-1.281-.322,2.52,2.52,0,0,0-1.267.322,2.347,2.347,0,0,0-.9.9,2.754,2.754,0,0,0-.329,1.379,2.8,2.8,0,0,0,.329,1.379,2.321,2.321,0,0,0,.9.917A2.52,2.52,0,0,0,77.756-1.092ZM86.716.084a4.121,4.121,0,0,1-2.023-.49A3.606,3.606,0,0,1,83.3-1.75a3.783,3.783,0,0,1-.5-1.96,3.783,3.783,0,0,1,.5-1.96,3.556,3.556,0,0,1,1.393-1.337,4.169,4.169,0,0,1,2.023-.483,3.94,3.94,0,0,1,1.8.4A2.828,2.828,0,0,1,89.74-5.908l-1.022.658a2.28,2.28,0,0,0-.889-.805A2.513,2.513,0,0,0,86.7-6.314a2.615,2.615,0,0,0-1.3.322,2.382,2.382,0,0,0-.91.9,2.708,2.708,0,0,0-.336,1.379,2.747,2.747,0,0,0,.336,1.386,2.368,2.368,0,0,0,.91.91,2.615,2.615,0,0,0,1.3.322,2.513,2.513,0,0,0,1.127-.259,2.28,2.28,0,0,0,.889-.8l1.022.644A2.936,2.936,0,0,1,88.515-.329,3.829,3.829,0,0,1,86.716.084Zm10.71,2.744a7.176,7.176,0,0,1-2.66-.476,6.128,6.128,0,0,1-2.072-1.33A5.951,5.951,0,0,1,91.35-1a6.712,6.712,0,0,1-.476-2.555A6.659,6.659,0,0,1,91.35-6.1,5.918,5.918,0,0,1,92.7-8.12a6,6,0,0,1,2.093-1.316A7.524,7.524,0,0,1,97.482-9.9a7.418,7.418,0,0,1,2.632.448,6.161,6.161,0,0,1,2.065,1.267,5.637,5.637,0,0,1,1.351,1.946,6.324,6.324,0,0,1,.476,2.485,6.3,6.3,0,0,1-.294,2.044,2.942,2.942,0,0,1-.847,1.323,2.018,2.018,0,0,1-1.351.469,1.68,1.68,0,0,1-1.253-.476,1.854,1.854,0,0,1-.469-1.358V-2.7l.07-.854-.126-1.61V-7.028h1.218v5.04a1.071,1.071,0,0,0,.231.784.783.783,0,0,0,.567.224.938.938,0,0,0,.707-.322,2.054,2.054,0,0,0,.448-.945,6.572,6.572,0,0,0,.147-1.491,5.508,5.508,0,0,0-.4-2.135,4.731,4.731,0,0,0-1.148-1.659A5.13,5.13,0,0,0,99.743-8.6a6.547,6.547,0,0,0-2.261-.371,6.244,6.244,0,0,0-2.275.4,5.211,5.211,0,0,0-1.771,1.12A4.911,4.911,0,0,0,92.3-5.74a5.811,5.811,0,0,0-.4,2.184,6,6,0,0,0,.392,2.205A4.864,4.864,0,0,0,93.415.371a5.165,5.165,0,0,0,1.75,1.12,6.133,6.133,0,0,0,2.261.4,6.741,6.741,0,0,0,1.358-.147,5.276,5.276,0,0,0,1.344-.469l.308.9a5.931,5.931,0,0,1-1.456.49A7.673,7.673,0,0,1,97.426,2.828ZM97.174.084A3.323,3.323,0,0,1,95.41-.385a3.385,3.385,0,0,1-1.218-1.281,3.761,3.761,0,0,1-.448-1.848,3.751,3.751,0,0,1,.448-1.855,3.294,3.294,0,0,1,1.218-1.26,3.4,3.4,0,0,1,1.764-.455,3.374,3.374,0,0,1,1.694.413,2.867,2.867,0,0,1,1.141,1.211,4.194,4.194,0,0,1,.413,1.946,4.255,4.255,0,0,1-.406,1.946A2.914,2.914,0,0,1,98.882-.343,3.315,3.315,0,0,1,97.174.084Zm.2-1.092a2.469,2.469,0,0,0,1.225-.3,2.184,2.184,0,0,0,.854-.868,2.71,2.71,0,0,0,.315-1.337,2.7,2.7,0,0,0-.315-1.344,2.148,2.148,0,0,0-.854-.854,2.516,2.516,0,0,0-1.225-.294,2.5,2.5,0,0,0-1.239.3,2.1,2.1,0,0,0-.84.861,2.771,2.771,0,0,0-.3,1.33,2.74,2.74,0,0,0,.3,1.316,2.2,2.2,0,0,0,.84.875A2.41,2.41,0,0,0,97.37-1.008ZM106.148,0V-9.8h4.4a4.3,4.3,0,0,1,2.6.679,2.19,2.19,0,0,1,.91,1.855,2.4,2.4,0,0,1-.357,1.344,2.359,2.359,0,0,1-.959.84,2.927,2.927,0,0,1-1.3.294l.252-.42a3.539,3.539,0,0,1,1.484.294,2.4,2.4,0,0,1,1.022.861,2.482,2.482,0,0,1,.378,1.407,2.281,2.281,0,0,1-.945,1.953A4.724,4.724,0,0,1,110.824,0Zm1.4-1.134h3.22a3.327,3.327,0,0,0,1.778-.392,1.354,1.354,0,0,0,.616-1.232A1.368,1.368,0,0,0,112.546-4a3.327,3.327,0,0,0-1.778-.392h-3.346V-5.53h3a2.961,2.961,0,0,0,1.652-.392,1.319,1.319,0,0,0,.588-1.176,1.319,1.319,0,0,0-.588-1.176,2.961,2.961,0,0,0-1.652-.392h-2.87ZM115.262,0,119.7-9.8h1.386L125.538,0h-1.47l-3.962-9.016h.56L116.7,0Zm1.89-2.45.378-1.12h5.516l.406,1.12ZM126.994,0V-9.8h1.148l6.482,8.05h-.6V-9.8h1.4V0h-1.148l-6.482-8.05h.6V0Zm12.6-2.366-.07-1.708L145.082-9.8h1.6l-4.3,4.536L141.6-4.4ZM138.362,0V-9.8h1.4V0Zm6.944,0-4.018-4.676.938-1.036L146.944,0Zm3.122,0V-9.8h1.4V0Zm4.34,0V-9.8h4.13a5.96,5.96,0,0,1,2.765.616,4.551,4.551,0,0,1,1.862,1.722A4.875,4.875,0,0,1,162.19-4.9a4.875,4.875,0,0,1-.665,2.562,4.551,4.551,0,0,1-1.862,1.722A5.96,5.96,0,0,1,156.9,0Zm1.4-1.218h2.646a4.513,4.513,0,0,0,2.107-.462,3.359,3.359,0,0,0,1.379-1.3,3.725,3.725,0,0,0,.49-1.925,3.716,3.716,0,0,0-.49-1.932,3.374,3.374,0,0,0-1.379-1.288,4.513,4.513,0,0,0-2.107-.462h-2.646Z" transform="translate(3582.774 -2792.99)" fill="#096ef2"/>
      <g id="shield" transform="translate(3624.617 -2706.923)">
        <g id="Group_32712" data-name="Group 32712">
          <g id="Group_32711" data-name="Group 32711">
            <g id="Group_32710" data-name="Group 32710" transform="translate(0)">
              <path id="Path_74995" data-name="Path 74995" d="M1.15,149.592l.073-.072c9.172,9.824,23.805,17.872,39.454,21.3,0,1.051.036,6.84.145,33.545.157,35.623-33.738,53.024-39.007,55.707C17.282,197.481,5.161,159.622,1.15,149.6Z" transform="translate(37.918 -149.52)" fill="#e7f1ff"/>
              <path id="Path_74996" data-name="Path 74996" d="M66.167,149.58c4.024,10.03,16.132,47.889.665,110.472-5.1-2.344-39.43-19.733-39.587-55.345C27.123,178,27.1,172.213,27.1,171.162,42.688,167.6,57.08,159.453,66.167,149.58Z" transform="translate(-27.099 -149.507)" fill="#e7f1ff"/>
            </g>
            <path id="Path_74997" data-name="Path 74997" d="M40.217,149.592l.073-.072c9.172,9.824,23.805,17.872,39.454,21.3,0,1.051.036,6.84.145,33.545.157,35.623-33.738,53.024-39.007,55.707-5.1-2.344-39.43-19.733-39.587-55.345-.121-26.706-.145-32.494-.145-33.545,15.588-3.565,29.98-11.709,39.067-21.582Z" transform="translate(-1.15 -149.52)" fill="none" stroke="#fff" stroke-miterlimit="10" stroke-width="2.29"/>
          </g>
        </g>
        <g id="Group_32713" data-name="Group 32713" transform="translate(23.274 33.654)">
          <path id="Path_74999" data-name="Path 74999" d="M52.533,190.9v23.382c0,2.6-31.793,2.6-31.793,0V190.9Zm-17.5,12.422v6.622a1.614,1.614,0,0,0,1.6,1.619,1.635,1.635,0,0,0,1.619-1.619V203.3a3.914,3.914,0,1,0-3.214.012Z" transform="translate(-20.74 -174.55)" fill="url(#linear-gradient-3)"/>
          <path id="Path_75000" data-name="Path 75000" d="M23.04,192.052h3.214v-1.571a9.9,9.9,0,1,1,19.793,0v1.571h3.214v-1.571a13.111,13.111,0,1,0-26.222,0v1.571Z" transform="translate(-20.249 -177.37)" fill="url(#linear-gradient-3)"/>
        </g>
      </g>
    </g>
    <g id="Group_42721" data-name="Group 42721" transform="translate(3580.746 -3077.031)">
      <path id="Path_90512" data-name="Path 90512" d="M207.757,128.9c4.853.783,15.813,36.669,20.22,41.357,2.311,2.458,27.535-4.688,27.535-4.688l2.977,9.265s-27.592,11.388-35.1,8.618c-12.581-4.64-18.806-30.538-18.806-30.538Z" transform="translate(-129.394 -64.014)" fill="url(#linear-gradient-5)"/>
      <path id="Path_90513" data-name="Path 90513" d="M196.933,154.764l9.571-8.628,4.869,11.383s-10.271,6.657-12.949,3.919Z" transform="translate(-69.774 -53.061)" fill="#f2b0a7"/>
      <path id="Path_90514" data-name="Path 90514" d="M203.409,151.863,207,163.255l4.593-2.033-3.261-10.688Z" transform="translate(-80.587 -50.266)" fill="#407bff"/>
      <g id="Group_42685" data-name="Group 42685" transform="translate(122.823 100.267)" opacity="0.7">
        <g id="Group_42684" data-name="Group 42684" transform="translate(0)">
          <g id="Group_42683" data-name="Group 42683" clip-path="url(#clip-path)">
            <path id="Path_90515" data-name="Path 90515" d="M203.409,151.863,207,163.255l4.593-2.033-3.261-10.688Z" transform="translate(-203.409 -150.533)" fill="#fff"/>
          </g>
        </g>
      </g>
      <g id="Group_42688" data-name="Group 42688" transform="translate(78.913 88.746)" opacity="0.2">
        <g id="Group_42687" data-name="Group 42687">
          <g id="Group_42686" data-name="Group 42686" clip-path="url(#clip-path-2)">
            <path id="Path_90516" data-name="Path 90516" d="M229.335,154.987c2.208,5.446,5.43,11.645,9.633,15.669,1.03-15.145-8.489-27.167-8.489-27.167a37.14,37.14,0,0,0-1.145,11.5" transform="translate(-229.307 -143.489)"/>
          </g>
        </g>
      </g>
      <path id="Path_90517" data-name="Path 90517" d="M281.607,118.744c-1.132,6.016,0,13.892,0,13.892s-27.984,3.881-34.779-1.294-9.8-35.946,5.338-38.9,33,7.4,29.44,26.3" transform="translate(-212.95 -87.506)" fill="#263238"/>
      <path id="Path_90518" data-name="Path 90518" d="M211.612,349.938l2.342,0,.651-2.892,7.753,3.5H242s3.124-3.14-6.231-5.643a7.053,7.053,0,0,1-1.325-.507c-4.988-2.339-12.087-10.239-12.087-10.239H211.579a13.681,13.681,0,0,0-.883,1.554c-1.178,2.371-3.212,7.349.916,14.229" transform="translate(-120.872 66.437)" fill="#0a192c"/>
      <path id="Path_90519" data-name="Path 90519" d="M214.069,336.607v.033c1.423-1.586,7.9,5.381,12.643,7.753,4.236,2.11,9,3.042,11.105.9-4.988-2.339-12.833-12.551-12.833-12.551h-8.669s-1.74,2.852-2.247,3.867" transform="translate(-124.245 65.538)" fill="#f2b0a7"/>
      <path id="Path_90520" data-name="Path 90520" d="M241.905,350.585,236.961,308.3l-15.5,4.57,10.783,38.071" transform="translate(-140.419 50.006)" fill="#f2b0a7"/>
      <path id="Path_90521" data-name="Path 90521" d="M222.3,176.576l42.353-1.989S275.966,247.5,277,294.093c3.314,31.257,7.236,84.65,11.038,117.334a21.422,21.422,0,0,1-8.052,3.008,22.415,22.415,0,0,1-7.12.335c-9.789-28.053-21.326-74.554-20.538-119.519C222.439,222.583,222.3,176.576,222.3,176.576" transform="translate(-187.928 -34.979)" fill="#263238"/>
      <g id="Group_42691" data-name="Group 42691" transform="translate(34.369 139.612)" opacity="0.4">
        <g id="Group_42690" data-name="Group 42690">
          <g id="Group_42689" data-name="Group 42689" clip-path="url(#clip-path-3)">
            <path id="Path_90522" data-name="Path 90522" d="M222.294,176.568s.065,25.826,12.676,69.315c3.32,11.449,7.507,24.125,12.79,37.88q2.159,5.618,4.563,11.482c-.785,44.962,10.746,91.477,20.543,119.527a22.7,22.7,0,0,0,7.115-.343,21.528,21.528,0,0,0,8.063-3.009c-3.811-32.679-7.736-86.063-11.04-117.335-1.047-46.581-12.365-119.494-12.365-119.494Z" transform="translate(-222.294 -174.589)" fill="#0a192c"/>
          </g>
        </g>
      </g>
      <g id="Group_42694" data-name="Group 42694" transform="translate(47.046 190.658)" opacity="0.2">
        <g id="Group_42693" data-name="Group 42693" transform="translate(0)">
          <g id="Group_42692" data-name="Group 42692" clip-path="url(#clip-path-4)">
            <path id="Path_90523" data-name="Path 90523" d="M246.382,226.047c3.32,11.449,7.507,24.124,12.79,37.88,3.615-37.144-4.988-58.128-4.988-58.128-3.827,4.759-6.313,11.989-7.8,20.248" transform="translate(-246.382 -205.799)"/>
          </g>
        </g>
      </g>
      <path id="Path_90524" data-name="Path 90524" d="M248.635,349.938l2.342,0,.651-2.892,7.753,3.5h19.643s3.124-3.14-6.231-5.643a7.052,7.052,0,0,1-1.325-.507c-4.989-2.339-12.087-10.239-12.087-10.239H248.6a13.679,13.679,0,0,0-.883,1.554c-1.178,2.371-3.212,7.349.916,14.229" transform="translate(-218.448 66.437)" fill="#0a192c"/>
      <path id="Path_90525" data-name="Path 90525" d="M251.092,336.607v.033c1.423-1.586,7.9,5.381,12.643,7.753,4.236,2.11,9,3.042,11.105.9-4.988-2.339-12.833-12.551-12.833-12.551h-8.668s-1.74,2.852-2.247,3.867" transform="translate(-221.822 65.538)" fill="#f2b0a7"/>
      <path id="Path_90526" data-name="Path 90526" d="M274.688,351.743l.213-45.263-16.549.728,7.178,44.566Z" transform="translate(-233.757 48.848)" fill="#f2b0a7"/>
      <path id="Path_90527" data-name="Path 90527" d="M271.826,416.341a44.339,44.339,0,0,1-7.962,1.855,17.92,17.92,0,0,1-6.685-.262c-7.548-31.849-15.263-83.18-6.6-114.084-16.518-99.867,5.391-126.571,5.391-126.571l37.167-4.043s-11.969,84.524-16.019,125.83c-3.479,35.487-6.562,76.9-5.288,117.275" transform="translate(-229.186 -35.837)" fill="#0a192c"/>
      <g id="Group_42697" data-name="Group 42697" transform="translate(15.225 137.399)" opacity="0.4">
        <g id="Group_42696" data-name="Group 42696">
          <g id="Group_42695" data-name="Group 42695" clip-path="url(#clip-path-5)">
            <path id="Path_90528" data-name="Path 90528" d="M271.826,416.341a44.339,44.339,0,0,1-7.962,1.855,17.92,17.92,0,0,1-6.685-.262c-7.548-31.849-15.263-83.18-6.6-114.084-16.518-99.867,5.391-126.571,5.391-126.571l37.167-4.043s-11.969,84.524-16.019,125.83c-3.479,35.487-6.562,76.9-5.288,117.275" transform="translate(-244.412 -173.236)" fill="#0a192c"/>
          </g>
        </g>
      </g>
      <path id="Path_90529" data-name="Path 90529" d="M252.224,126.3s28.931,14.331,26.447,1.235c0,0,10.664-.1,17.679,4.187,0,0,4.169,17.419,0,64.245l2.975,22.646L282.2,223.785l-5.641-16.424-6.83,17.283-29.741-9.29,6-17.447s-3.019-40.115-12.079-58.449c0,0,1.443-13.346,18.31-13.16" transform="translate(-218.211 -65.671)" fill="#e7f1ff"/>
      <path id="Path_90530" data-name="Path 90530" d="M245.916,111.066c2,7.386,4.452,20.922-.348,25.85,0,0-6.562,5.249,12.937,4.658,1.694,4.059,8.107,12.739,8.107,12.739s2.978-8.228,1.624-11.187c12.542-1.083.29-6.209.29-6.209-8.384-1.968-8.628-8.078-7.62-13.819Z" transform="translate(-210.096 -75.35)" fill="#f2b0a7"/>
      <g id="Group_42703" data-name="Group 42703" transform="translate(41.804 40.626)" opacity="0.2">
        <g id="Group_42702" data-name="Group 42702" transform="translate(0)">
          <g id="Group_42701" data-name="Group 42701" clip-path="url(#clip-path-7)">
            <path id="Path_90531" data-name="Path 90531" d="M252.577,114.068l8.871,7.116a23.129,23.129,0,0,0-.4,4.076c-3.181-.455-7.761-3.909-8.34-7.2a11.014,11.014,0,0,1-.128-3.987" transform="translate(-252.447 -114.068)"/>
          </g>
        </g>
      </g>
      <path id="Path_90532" data-name="Path 90532" d="M244,109.3c2.241,11.928,2.938,17.01,9.743,22.731,10.239,8.606,24.3,4.053,25.649-8.107,1.21-10.945-2.659-28.613-14.949-32.549-12.11-3.881-22.684,6-20.443,17.926" transform="translate(-214.485 -88.411)" fill="#f2b0a7"/>
      <path id="Path_90533" data-name="Path 90533" d="M273.92,99.584c-6.583,8.493,6.936,18.261-6.583,17.7s-8.026-19.655,0-24,6.583,6.3,6.583,6.3" transform="translate(-234.15 -87.312)" fill="#263238"/>
      <path id="Path_90534" data-name="Path 90534" d="M245.67,103.941a29.942,29.942,0,0,0,4.449,6.182c-1.127,1.34-3.428.934-3.428.934Z" transform="translate(-188.23 -79.879)" fill="#d4827d"/>
      <path id="Path_90535" data-name="Path 90535" d="M255.487,112.128a9.334,9.334,0,0,0,1.678.023.272.272,0,0,0,.249-.317.32.32,0,0,0-.334-.275,8.465,8.465,0,0,1-6.833-2.655.284.284,0,1,0-.44.358,8.906,8.906,0,0,0,5.68,2.866" transform="translate(-202.178 -76.799)" fill="#263238"/>
      <path id="Path_90536" data-name="Path 90536" d="M253.594,101.022a.54.54,0,0,0,.415-.178,4.361,4.361,0,0,1,3.86-1.482.544.544,0,0,0,.654-.466.644.644,0,0,0-.509-.7,5.441,5.441,0,0,0-4.9,1.815.606.606,0,0,0,.069.841.624.624,0,0,0,.412.17" transform="translate(-208.587 -83.569)" fill="#263238"/>
      <path id="Path_90537" data-name="Path 90537" d="M249.529,100.487a.543.543,0,0,0,.407-.132.586.586,0,0,0,.021-.831,6.226,6.226,0,0,0-5.047-2.249.541.541,0,0,0-.473.651.643.643,0,0,0,.685.523,4.984,4.984,0,0,1,3.979,1.824.642.642,0,0,0,.427.214" transform="translate(-186.199 -84.125)" fill="#263238"/>
      <path id="Path_90538" data-name="Path 90538" d="M257.454,94.89s-2.342,14.059-11.681,16.411-1.758-14.455-1.758-14.455,1.961-7.617,14.578-7.617,27.177,12.816,23.132,31.238c0,0,.693-6.15-2.1-10.994s-5.675-.672-22.168-14.583" transform="translate(-213.069 -89.229)" fill="#263238"/>
      <path id="Path_90539" data-name="Path 90539" d="M276.348,90.516c-13.336,5.334-18.189,14.069-17.057,23.775s13.1,19.977,15.044,20.341l5.991.849s-9.221-12.821-7.445-17.168,3.556-4.774,3.556-4.774Z" transform="translate(-240.456 -88.411)" fill="#263238"/>
      <path id="Path_90540" data-name="Path 90540" d="M261.677,111.855a8.342,8.342,0,0,0,5.072,4.442c2.776.738,3.979-2.445,3.055-5.623-.831-2.861-3.278-6.691-5.991-6-2.671.682-3.533,4.385-2.136,7.182" transform="translate(-233.323 -79.465)" fill="#f2b0a7"/>
      <path id="Path_90541" data-name="Path 90541" d="M275.642,126.63c9.035,8.384,13.884,52.606,12.592,66.89s-12.592,52.506-12.592,52.506l-17.818-1.461s4.311-26.516,15.307-47.652c0,0-7-52.552-13.474-65.63,0,0,6.135-2.429,8.034-2.982,2.1-.613,7.951-1.672,7.951-1.672" transform="translate(-246.431 -65.458)" fill="url(#linear-gradient-5)"/>
      <path id="Path_90542" data-name="Path 90542" d="M263.555,126.63s-6.979,14.368-5.361,29.088l10.518-8.248-5.989,7.762,13.425,24.589s-1.083-43.944-12.592-53.192" transform="translate(-234.344 -65.458)" fill="#263238"/>
      <path id="Path_90543" data-name="Path 90543" d="M230.653,127.089S241.538,145.72,239.6,193.6l6.47,48.529h7.116L245.267,193.6s8.456-36.664-.172-63.545a42.161,42.161,0,0,0-14.442-2.967" transform="translate(-166.735 -65.167)" fill="url(#linear-gradient-5)"/>
      <path id="Path_90544" data-name="Path 90544" d="M234.212,127.2s1.675-.921,5.443.605,12.826,21.477,12.826,21.477l-6.9-3.989,3.883,3.989-4.691,23.935s-5.211-43.081-10.559-46.017" transform="translate(-171.854 -65.274)" fill="#263238"/>
      <path id="Path_90545" data-name="Path 90545" d="M241.251,125.047s6.434,4.485,5.666,9.192l10.971,2.7s-6.487-11.114-16.637-11.894" transform="translate(-188.772 -66.464)" fill="#407bff"/>
      <path id="Path_90546" data-name="Path 90546" d="M255.044,139.385,270.4,134.4s-8.129-6.559-10.664-10.108l-5.07,3.811-.016.016c-.115.278-1.619,4.007.393,11.269" transform="translate(-222.146 -66.946)" fill="#407bff"/>
      <g id="Group_42706" data-name="Group 42706" transform="translate(52.478 58.583)">
        <g id="Group_42705" data-name="Group 42705" transform="translate(0)">
          <g id="Group_42704" data-name="Group 42704" clip-path="url(#clip-path-8)">
            <path id="Path_90547" data-name="Path 90547" d="M241.251,125.047s6.434,4.485,5.666,9.192l10.971,2.7s-6.487-11.114-16.637-11.894" transform="translate(-241.251 -125.047)" fill="#e7f1ff"/>
          </g>
        </g>
      </g>
      <g id="Group_42709" data-name="Group 42709" transform="translate(31.858 57.342)">
        <g id="Group_42708" data-name="Group 42708">
          <g id="Group_42707" data-name="Group 42707" clip-path="url(#clip-path-9)">
            <path id="Path_90548" data-name="Path 90548" d="M255.044,139.385,270.4,134.4s-8.129-6.559-10.664-10.108l-5.07,3.811-.016.016c-.115.278-1.619,4.007.393,11.269" transform="translate(-254.004 -124.289)" fill="#e7f1ff"/>
          </g>
        </g>
      </g>
      <g id="Group_42712" data-name="Group 42712" transform="translate(23.445 113.426)" opacity="0.2">
        <g id="Group_42711" data-name="Group 42711">
          <g id="Group_42710" data-name="Group 42710" clip-path="url(#clip-path-10)">
            <path id="Path_90549" data-name="Path 90549" d="M247.894,183.456c.72.016,1.472.016,2.241.016,4.416-.016,9.617-.229,14.54-.507,9.5-.54,18.024-1.292,18.024-1.292l-.7-11.858-9.519.131-.474-.883a39.773,39.773,0,0,1-5.545-1.8,169.029,169.029,0,0,1-16.208-7.72c-.654-.36-1.243-.687-1.766-.965,1.636,10.288,2.666,18.024,2.666,18.024-1.161,2.241-2.257,4.531-3.255,6.853" transform="translate(-247.894 -158.579)"/>
          </g>
        </g>
      </g>
      <path id="Path_90550" data-name="Path 90550" d="M268.427,129.475c-5.716,5.041-15.889,50.6-12.582,56.388s41.941,12.368,41.941,12.368l3.718-9.813s-30.6-8.438-30.6-11.781c0-3.222,5.35-16.874,5.35-16.874s1.232-15.557-3.081-23.189a41.923,41.923,0,0,0-4.745-7.1" transform="translate(-255.198 -63.65)" fill="url(#linear-gradient-5)"/>
      <path id="Path_90551" data-name="Path 90551" d="M250.481,166.679l12.784-1.622-2.5,12.126s-12.236-.394-12.87-4.172Z" transform="translate(-205.021 -41.035)" fill="#f2b0a7"/>
      <path id="Path_90552" data-name="Path 90552" d="M253.76,172.664l-3.925,7.98-7.232-3.461,2.5-12.126Z" transform="translate(-186.855 -41.035)" fill="#f2b0a7"/>
      <path id="Path_90553" data-name="Path 90553" d="M258.467,164.482l-3.549,11.4,4.931.952,3.422-10.639Z" transform="translate(-216.509 -41.401)" fill="#407bff"/>
      <g id="Group_42715" data-name="Group 42715" transform="translate(38.409 123.081)" opacity="0.7">
        <g id="Group_42714" data-name="Group 42714">
          <g id="Group_42713" data-name="Group 42713" clip-path="url(#clip-path-11)">
            <path id="Path_90554" data-name="Path 90554" d="M258.467,164.482l-3.549,11.4,4.931.952,3.422-10.639Z" transform="translate(-254.918 -164.482)" fill="#fff"/>
          </g>
        </g>
      </g>
      <g id="Group_42716" data-name="Group 42716" transform="translate(131.008 88.304)">
        <path id="Path_90555" data-name="Path 90555" d="M407.726,114.268l14.5-2.858s.22,1.979-1.1,2.418l-1.318.44s-3.3,7.915-4.835,8.795-10.773,4.691-10.773,4.691l-2.414-9.308Z" transform="translate(-397.294 -109.43)" fill="#f5a69c"/>
        <path id="Path_90556" data-name="Path 90556" d="M415.616,125.283s.14-.983,2.082-4.92a40.77,40.77,0,0,0,2.637-6.156s6.813-2.638,7.912-3.958A4.863,4.863,0,0,1,430,108.71a3.484,3.484,0,0,1-.659,4.178c-1.978,1.759-3.736,3.078-3.736,3.078s.22,5.057-.44,7.476a6.441,6.441,0,0,1-2.641,3.591Z" transform="translate(-415.616 -108.71)" fill="#f2b0a7"/>
        <path id="Path_90058" data-name="Path 90058" d="M405.228,120.844c.015-.005,1.532-.535,3.1-1.127,3.253-1.229,3.55-1.526,3.676-1.653a11,11,0,0,0,1.441-2.63l.369-.909-9.574,2.742.263.918,7.649-2.191a6.29,6.29,0,0,1-.824,1.395,49.324,49.324,0,0,1-6.413,2.553Z" transform="translate(-390.481 -110.416)" fill="#d3968e"/>
        <path id="Path_90059" data-name="Path 90059" d="M406.711,124.04c.013,0,1.354-.393,2.729-.828,2.882-.912,3.1-1.129,3.227-1.258a13.136,13.136,0,0,0,1.378-3.134l-.906-.3A14.793,14.793,0,0,1,412,121.269a45.9,45.9,0,0,1-5.556,1.854Z" transform="translate(-392.409 -111.358)" fill="#d3968e"/>
        <path id="Path_90060" data-name="Path 90060" d="M420.516,118.353l2.818-2.2-.587-.754-2.449,1.908-1.77-.45-.235.926Z" transform="translate(-410.416 -110.575)" fill="#d3968e"/>
      </g>
    </g>
    <g id="Group_42726" data-name="Group 42726" transform="translate(76.146 -434.115)">
      <circle id="Ellipse_2837" data-name="Ellipse 2837" cx="32.014" cy="32.014" r="32.014" transform="translate(3566.142 -2773.883)" fill="#fff"/>
      <g id="Group_42725" data-name="Group 42725" transform="translate(3547.88 -2792.057)">
        <path id="Subtraction_22" data-name="Subtraction 22" d="M52.806,99.765c-.183,0-.372,0-.563-.007L49.83,99.7l-3.682-.084a14,14,0,0,1-3.839-.526,4.22,4.22,0,0,1-2.733-2.2,6.667,6.667,0,0,1-.3-3.26,11.049,11.049,0,0,0,.015-2.167c-.346-2.728-3.171-4.416-5.59-4.416a4.624,4.624,0,0,0-3,1.03,11.069,11.069,0,0,0-1.525,1.676,6.812,6.812,0,0,1-2.485,2.258,3.612,3.612,0,0,1-1.421.287c-1.959,0-3.9-1.464-5.365-2.739-.668-.579-1.36-1.155-2.029-1.711-3.629-3.017-7.056-5.866-6.243-8.976a7,7,0,0,1,1.905-2.851,10.854,10.854,0,0,0,1.515-1.883,5.1,5.1,0,0,0-.193-5.048A5.1,5.1,0,0,0,10.6,66.369h-.034a11.121,11.121,0,0,0-2.3.328l-.011,0A11.019,11.019,0,0,1,6,67.028a3.749,3.749,0,0,1-1.422-.256c-1.8-.722-2.532-2.88-2.973-4.679C1.022,59.71.544,57.281.183,54.872A13.344,13.344,0,0,1,.3,49.807a4.387,4.387,0,0,1,2.8-3.412,7.357,7.357,0,0,1,1.966-.269A10.761,10.761,0,0,0,6.448,46a5.282,5.282,0,0,0,2.239-9.434,10.885,10.885,0,0,0-1.629-.942A7.081,7.081,0,0,1,4.789,34.09c-1.534-1.77-1.158-4.55,1.119-8.262l1.664-2.714L9.235,20.4c1.268-2.067,2.737-3.99,4.878-4.056l.112,0a6.748,6.748,0,0,1,3.539,1.429A10.78,10.78,0,0,0,20.2,19.046a4.189,4.189,0,0,0,1.273.2A5.446,5.446,0,0,0,25.6,17.151,4.762,4.762,0,0,0,26.685,13.2,10.212,10.212,0,0,0,26.11,11.5a8.987,8.987,0,0,1-.616-1.937C25,6.417,27.925,3.675,31.07,2.59a33.974,33.974,0,0,1,3.886-1A29.563,29.563,0,0,0,39.4.378,5.3,5.3,0,0,1,41.318,0a4,4,0,0,1,3.619,2.24,15.355,15.355,0,0,1,.849,2.023,10.214,10.214,0,0,0,1.4,2.868,4.825,4.825,0,0,0,3.864,1.733,5.182,5.182,0,0,0,4.833-2.878,10.4,10.4,0,0,0,.467-1.511,7.36,7.36,0,0,1,.739-2.041A4.546,4.546,0,0,1,61.3.451a14.024,14.024,0,0,1,4.6.918c2.266.826,4.528,1.764,6.721,2.789,1.812.846,3.713,1.97,4.075,3.89a6.287,6.287,0,0,1-.786,3.631,11.253,11.253,0,0,0-.789,2.274,4.79,4.79,0,0,0,1.147,3.968,5.879,5.879,0,0,0,4.364,2.175,4.323,4.323,0,0,0,1.725-.351,10.867,10.867,0,0,0,1.68-.982,6.918,6.918,0,0,1,2.583-1.25,3.671,3.671,0,0,1,.62-.053c2,0,3.859,1.622,5.7,4.959q1.025,1.856,2.05,3.715l.986,1.788c1.215,2.205,2.421,5,.947,7.065a6.693,6.693,0,0,1-2.693,1.9A10.789,10.789,0,0,0,92.284,38a5.028,5.028,0,0,0-1.643,4.875,5.031,5.031,0,0,0,3.173,4.054,10.624,10.624,0,0,0,2.056.394,7.236,7.236,0,0,1,2.814.74,4.108,4.108,0,0,1,1.88,2.637,12.544,12.544,0,0,1-.154,5.558l-1.224,6.014c-.51,2.5-1.416,5.46-3.914,6.091a3.883,3.883,0,0,1-.959.114A9.92,9.92,0,0,1,92,68.1a11.192,11.192,0,0,0-2.156-.383c-.07,0-.14,0-.209,0a5.458,5.458,0,0,0-4.746,2.881,5.4,5.4,0,0,0,.53,5.7,10.841,10.841,0,0,0,1,1.066,7.131,7.131,0,0,1,1.379,1.65,4.755,4.755,0,0,1-.456,4.764,14.237,14.237,0,0,1-3.578,3.48l-2.427,1.86L78.9,90.976C77.439,92.1,75.86,93.14,74.237,93.14a3.5,3.5,0,0,1-1.061-.163,6.428,6.428,0,0,1-2.932-2.549,11.126,11.126,0,0,0-1.757-1.936,4.556,4.556,0,0,0-2.878-.959c-2.369,0-5.143,1.659-5.493,4.339a10.7,10.7,0,0,0-.011,1.964,7.1,7.1,0,0,1-.212,2.795C59.15,98.711,56.765,99.765,52.806,99.765ZM49.849,18.506a31.245,31.245,0,1,0,12.2,2.461A31.15,31.15,0,0,0,49.849,18.506Z" transform="translate(0 0)" fill="url(#linear-gradient-9)"/>
        <path id="Path_85211" data-name="Path 85211" d="M209.81,162.3H202.74l-1.349,3.258h-3.611l6.788-15.207h3.481l6.809,15.207h-3.7Zm-1.11-2.672-2.415-5.823-2.414,5.823Z" transform="translate(-167.548 -108.074)" fill="#096ef2"/>
        <path id="Path_85212" data-name="Path 85212" d="M230.337,151.026a5.031,5.031,0,0,1,3.1,4.845,5.276,5.276,0,0,1-.8,2.921,5.123,5.123,0,0,1-2.3,1.912,8.579,8.579,0,0,1-3.513.662h-3.068v4.193h-3.525V150.353h6.592a8.468,8.468,0,0,1,3.513.673m-1.294,6.789a2.382,2.382,0,0,0,.826-1.944,2.408,2.408,0,0,0-.826-1.967,3.708,3.708,0,0,0-2.414-.684h-2.872V158.5h2.872a3.708,3.708,0,0,0,2.414-.684" transform="translate(-171.336 -108.074)" fill="#096ef2"/>
        <rect id="Rectangle_10834" data-name="Rectangle 10834" width="3.524" height="15.207" transform="translate(64.602 42.279)" fill="#096ef2"/>
      </g>
    </g>
    <g id="Group_42723" data-name="Group 42723" transform="translate(-392 -3.341)">
      <path id="Path_90558" data-name="Path 90558" d="M49.926,154.852,15.611,172.064a6.959,6.959,0,0,0-4.23,6.4v16.052a74.5,74.5,0,0,0,12.236,41.1C29.8,245.034,38,257.072,51.636,263.953h6.157c15.184-4.63,26.517-16.974,33.446-27.532a74.5,74.5,0,0,0,12.236-41.1V178.465a6.958,6.958,0,0,0-4.231-6.4L60.156,155.409c-1.743-.743-8.486-1.3-10.229-.557" transform="translate(4264.082 -2920.664)" fill="#407bff"/>
      <path id="Path_90559" data-name="Path 90559" d="M49.2,155.372,10.107,172.028a6.957,6.957,0,0,0-4.231,6.4V194.48a75.156,75.156,0,0,0,46.412,69.437c15.185-4.631,26.517-16.975,33.446-27.533a74.5,74.5,0,0,0,12.237-41.1V178.429a6.958,6.958,0,0,0-4.231-6.4l-39.09-16.656a6.954,6.954,0,0,0-5.455,0" transform="translate(4263.428 -2920.626)" fill="#b3caff"/>
      <g id="Group_42722" data-name="Group 42722" transform="translate(4289.728 -2741.958)">
        <g id="Group_42656" data-name="Group 42656">
          <g id="Group_42655" data-name="Group 42655" clip-path="url(#clip-path-12)" style="isolation: isolate">
            <path id="Path_90459" data-name="Path 90459" d="M75.381,201.763a25.624,25.624,0,1,1-25.625-25.625,25.625,25.625,0,0,1,25.625,25.625" transform="translate(-24.133 -176.138)" fill="url(#linear-gradient)"/>
          </g>
        </g>
      </g>
      <path id="Path_90560" data-name="Path 90560" d="M58.805,191.928a10.638,10.638,0,1,1-10.638-10.639,10.638,10.638,0,0,1,10.638,10.639" transform="translate(4267.185 -2917.484)" fill="#fff"/>
      <path id="Path_90561" data-name="Path 90561" d="M29.671,215.228a20.8,20.8,0,0,1,19.037-11.816c14.084,0,19.822,11.816,19.822,11.816s-6.285,9.282-20.182,8.923a24.353,24.353,0,0,1-18.676-8.923" transform="translate(4266.252 -2914.859)" fill="#fff"/>
      <path id="Path_90562" data-name="Path 90562" d="M75.412,201.786a2.252,2.252,0,0,1-.05-.415c-.022-.3-.053-.7-.091-1.215q-.027-.4-.059-.894c-.037-.328-.109-.682-.168-1.068a18.652,18.652,0,0,0-.544-2.637,24.492,24.492,0,0,0-2.85-6.774,25.392,25.392,0,0,0-30.5-10.812,23.283,23.283,0,0,0-6.412,3.454,28.529,28.529,0,0,0-2.874,2.444,28.569,28.569,0,0,0-2.482,2.939,24.527,24.527,0,0,0-3.621,6.981,25.118,25.118,0,0,0,0,15.988,24.552,24.552,0,0,0,3.62,6.983,28.713,28.713,0,0,0,2.482,2.94,28.829,28.829,0,0,0,2.875,2.445,26.724,26.724,0,0,0,3.107,2,26.6,26.6,0,0,0,3.307,1.455,25.458,25.458,0,0,0,30.5-10.814,24.486,24.486,0,0,0,2.85-6.772,18.793,18.793,0,0,0,.543-2.637c.059-.386.131-.741.168-1.068.021-.326.041-.624.059-.894.038-.51.068-.912.091-1.214a2.252,2.252,0,0,1,.05-.415,2.13,2.13,0,0,1,.009.415c-.008.3-.019.708-.032,1.222q-.015.408-.031.9c-.028.33-.091.688-.142,1.078a18.132,18.132,0,0,1-.494,2.668,24.23,24.23,0,0,1-2.79,6.883,25.807,25.807,0,0,1-17.368,12.241,25.92,25.92,0,0,1-13.6-1.088,23.787,23.787,0,0,1-6.561-3.513,28.967,28.967,0,0,1-2.942-2.494,29.09,29.09,0,0,1-2.544-3,25.082,25.082,0,0,1-3.711-7.137,25.639,25.639,0,0,1,0-16.355,25.047,25.047,0,0,1,3.711-7.136,29.053,29.053,0,0,1,2.543-3,28.964,28.964,0,0,1,2.942-2.494,23.793,23.793,0,0,1,6.56-3.512,25.912,25.912,0,0,1,13.593-1.088A25.794,25.794,0,0,1,71.93,188.617a24.246,24.246,0,0,1,2.791,6.885,18.227,18.227,0,0,1,.494,2.668c.051.389.114.747.142,1.077q.017.493.031.9c.013.512.025.917.032,1.222a2.13,2.13,0,0,1-.009.415" transform="translate(4265.563 -2918.119)" fill="#263238"/>
    </g>
  </g>
</svg>
